<?xml version="1.0" standalone="no"?>
<!DOCTYPE svg PUBLIC "-//W3C//DTD SVG 1.1//EN" "http://www.w3.org/Graphics/SVG/1.1/DTD/svg11.dtd" >
<svg>
<metadata>
Created by FontForge 20090914 at Sat Feb 16 20:28:17 2013
 By www-data
(c)2005 FLOP Design. All Right Reserved.                                          SUKURA  Designed by Kato Masashi                                                         contact :flop@jp.org
</metadata>
<defs>
<font id="SAKURAalp" horiz-adv-x="500" >
  <font-face 
    font-family="SAKURAalp"
    font-weight="400"
    font-stretch="normal"
    units-per-em="1000"
    panose-1="0 0 4 0 0 0 0 0 0 0"
    ascent="800"
    descent="-200"
    x-height="498"
    cap-height="700"
    bbox="-21 -207 753 800"
    underline-thickness="20"
    underline-position="-123"
    unicode-range="U+0020-U+2019"
  />
<missing-glyph 
d="M63 0v800h375v-800h-375zM125 63h250v675h-250v-675z" />
    <glyph glyph-name=".notdef" 
d="M63 0v800h375v-800h-375zM125 63h250v675h-250v-675z" />
    <glyph glyph-name="space" unicode=" " 
 />
    <glyph glyph-name="exclam" unicode="!" horiz-adv-x="295" 
d="M108 182l-101 4l21 515l101 -4zM117 1l-115 4l4 113l115 -4z" />
    <glyph glyph-name="quotedbl" unicode="&#x22;" horiz-adv-x="368" 
d="M232 548l-93 3l7 149l92 -3zM93 547l-92 3l6 149l93 -3z" />
    <glyph glyph-name="numbersign" unicode="#" horiz-adv-x="723" 
d="M479 199l1 -186h-98l-1 185l-174 -2l-3 -198l-98 2l3 194l-109 -1l-1 98l112 1l2 184l-106 6l5 97l103 -5l2 120l97 -1l-2 -124l168 -9l-1 158h97l1 -163l85 -4l-5 -98l-79 4v-160l98 1l1 -98zM380 462l-169 9l-3 -177l173 2z" />
    <glyph glyph-name="dollar" unicode="$" horiz-adv-x="650" 
d="M301 89l1.00098 -91.001l-98 -1v95c-67.333 7.33301 -136 21 -206 41l27 94c59.333 -17.333 118.666 -29.333 177.999 -36l-2 105c-134.667 9.33301 -202 58.333 -202 147c0 90.667 66.333 142.334 199 155.001l-1 100l98 1l1 -99c54 -2 109 -8.66699 165 -20l-19 -96
c-48.667 9.33301 -97 15.333 -145 18l1 -109c56 -2.66699 102.333 -14 139 -34c46.667 -26 70 -64.333 70 -115c0 -97.333 -68.667 -149 -206 -155zM199.001 499.999c-68.667 -6.66699 -103 -26.333 -103 -59c0 -25.333 34.667 -41 104 -47zM299.001 295l1 -108.001
c73.333 2 110 21.333 110 58c0 28.667 -37 45.334 -111 50.001z" />
    <glyph glyph-name="percent" unicode="%" horiz-adv-x="756" 
d="M131 441c-36 0 -66.667 12.667 -92 38s-38 56 -38 92s12.667 66.833 38 92.5s56 38.5 92 38.5s66.667 -12.833 92 -38.5s38 -56.5 38 -92.5s-12.667 -66.667 -38 -92s-56 -38 -92 -38zM113 -6l-80 56l465 661l80 -56zM487 -2c-36 0 -66.667 12.833 -92 38.5
s-38 56.5 -38 92.5s12.667 66.667 38 92s56 38 92 38s66.667 -12.667 92 -38s38 -56 38 -92s-12.667 -66.833 -38 -92.5s-56 -38.5 -92 -38.5zM131 604c-8.66699 0 -16.167 -3.33301 -22.5 -10s-9.5 -14.334 -9.5 -23.001s3.16699 -16.167 9.5 -22.5s13.833 -9.5 22.5 -9.5
s16.334 3.16699 23.001 9.5s10 13.833 10 22.5s-3.33301 16.334 -10 23.001s-14.334 10 -23.001 10zM487 161c-8.66699 0 -16.167 -3.16699 -22.5 -9.5s-9.5 -13.833 -9.5 -22.5c0 -22 10.667 -33 32 -33c22 0 33 11 33 33c0 21.333 -11 32 -33 32z" />
    <glyph glyph-name="ampersand" unicode="&#x26;" horiz-adv-x="761" 
d="M613 292c-27.333 0 -48.668 -8.33203 -64.001 -24.999s-23 -39 -23 -67c0 -56 26.667 -84 80 -84l2 -98c-59.333 -0.666992 -105.666 19.333 -138.999 60c-53.333 -52.667 -123.666 -79 -210.999 -79c-68.667 0 -127.334 16.667 -176.001 50
c-55.333 38.667 -83 91 -83 157c0 70 26.667 124.667 80 164c-40.667 34 -61 79.333 -61 136c0 64.667 25.667 116 77 154c46 34 102.333 51 169 51c65.333 0 121 -16.333 167 -49c52 -37.333 78 -87.333 78 -150s-21.333 -111.334 -64 -146.001
c12.667 -9.33301 24 -19.333 34 -30c34 36.667 79.333 54.667 136 54zM269.998 418.001l-0.000976562 -0.999023l24 -1c78.667 0 118 32 118 96c0 34 -17 60 -51 78c-28 15.333 -60.333 23 -97 23c-38.667 0 -71.667 -8 -99 -24c-32.667 -19.333 -49 -47 -49 -83
s15.667 -60.667 47 -74c20.667 -8.66699 56.334 -13.334 107.001 -14.001zM289.997 318.002c-6.66699 0 -19.334 0.333008 -38.001 1l-11 1c-40 3.33301 -73.333 -4.33398 -100 -23.001c-29.333 -21.333 -44 -51.666 -44 -90.999c0 -36.667 18.667 -65 56 -85
c29.333 -16 64.333 -24 105 -24c42 0 78.667 8.66699 110 26c38.667 20.667 58 50.334 58 89.001c0 33.333 -15 59.666 -45 78.999c-25.333 16.667 -55.666 25.667 -90.999 27z" />
    <glyph glyph-name="parenleft" unicode="(" horiz-adv-x="346" 
d="M90 355c0 -102.667 34.999 -205.667 104.999 -309l-75 -58c-82 120.667 -123 242 -123 364c0 63.333 12.167 129.5 36.5 198.5s56.5 127.167 96.5 174.5l68 -67c-33.333 -39.333 -59.666 -86.5 -78.999 -141.5s-29 -108.833 -29 -161.5z" />
    <glyph glyph-name="parenright" unicode=")" horiz-adv-x="350" 
d="M74 -9l-76 57.001c70.667 104 106 207.333 106 310c0 53.333 -9.66699 107.166 -29 161.499s-46 101.5 -80 141.5l68 66c41.333 -48 73.833 -105.833 97.5 -173.5s35.5 -134.167 35.5 -199.5c0 -122 -40.667 -243 -122 -363z" />
    <glyph glyph-name="asterisk" unicode="*" horiz-adv-x="586" 
d="M382 148l-158 152l-170 -167l-63 63l169 165l-159 151l60 65l162 -155l145 142l62 -63l-143 -140l155 -148z" />
    <glyph glyph-name="plus" unicode="+" horiz-adv-x="659" 
d="M313 326l-3 -239h-89l3 237l-221 -5l-3 89l225 5l2 203h89l-2 -201l216 5l3 -89z" />
    <glyph glyph-name="comma" unicode="," horiz-adv-x="309" 
d="M71 -80l-71 75l85 82l71 -75z" />
    <glyph glyph-name="hyphen" unicode="-" horiz-adv-x="687" 
d="M3 319l-3 90l530 12l3 -90z" />
    <glyph glyph-name="hyphen" unicode="&#x2010;" horiz-adv-x="687" 
d="M3 319l-3 90l530 12l3 -90z" />
    <glyph glyph-name="period" unicode="." horiz-adv-x="283" 
d="M107 -9l-99 4l7 107l98 -3z" />
    <glyph glyph-name="slash" unicode="/" horiz-adv-x="653" 
d="M73 -6l-79 56l463 661l80 -56z" />
    <glyph glyph-name="zero" unicode="0" horiz-adv-x="740" 
d="M295 4c-94.667 0 -168 34.334 -220 103.001c-47.333 62 -71 141.667 -71 239c0 98 23.333 180.333 70 247c52.667 74.667 126.334 112 221.001 112c97.333 0 171.666 -37 222.999 -111c44.667 -64.667 67 -147.667 67 -249c0 -98.667 -23 -178.334 -69 -239.001
c-51.333 -68 -125 -102 -221 -102zM295 607.001c-64.667 0 -114.333 -27.333 -149 -82c-29.333 -46.667 -44 -104 -44 -172c0 -72 13.667 -129.667 41 -173c33.333 -52 84 -78 152 -78s118.667 24.667 152 74c27.333 42 41 98.667 41 170c0 72.667 -13.667 131.667 -41 177
c-33.333 56 -84 84 -152 84z" />
    <glyph glyph-name="one" unicode="1" horiz-adv-x="492" 
d="M342 4c-148.667 6.66699 -250 10 -304 10v99c24.667 0 57 -0.666992 97 -2l18 525l-145 -7l-5 98l249 13l-21 -633l116 -5z" />
    <glyph glyph-name="two" unicode="2" horiz-adv-x="728" 
d="M282 289c-55.333 0 -96.3311 -17.999 -122.998 -53.999c-20.667 -27.333 -35.334 -71 -44.001 -131l446 -3l-1 -98l-455 3c-8.66699 -2.66699 -40.334 -4.33398 -95.001 -5.00098c0 118.667 18.667 208.667 56 270c47.333 76.667 126.666 115 237.999 115
c128.667 0 193 37 193 111c0 77.333 -66.667 116 -200 116c-78.667 0 -161.667 -11.333 -249 -34l-25 94c95.333 26 186 39 272 39c84.667 0 152.334 -14.333 203.001 -43c64 -36 96 -93.333 96 -172c0 -138.667 -104 -208 -312 -208z" />
    <glyph glyph-name="three" unicode="3" horiz-adv-x="717" 
d="M224 -7c-72 0 -145.333 5.99902 -220 17.999l15 96c68.667 -10.667 136.334 -16 203.001 -16c165.333 0 248 28.667 248 86c0 42.667 -51.667 75 -155 97c-64 14 -133.667 21.667 -209 23l-93 2l1 98c-8 0 8.33301 -0.333008 49 -1h42c75.333 0 144 5.66699 206 17
c100.667 18.667 151 48.334 151 89.001c0 71.333 -97 107 -291 107c-54 0 -106.667 -3 -158 -9l-12 97c56.667 7.33301 113.667 11 171 11c99.333 0 180.666 -11.333 243.999 -34c95.333 -34 143 -91.333 143 -172c0 -69.333 -46.667 -122.333 -140 -159
c98.667 -38.667 148 -94 148 -166c0 -122.667 -114.333 -184 -343 -184z" />
    <glyph glyph-name="four" unicode="4" horiz-adv-x="724" 
d="M435 123l-9 -120l-97 7l8 112c-223.333 5.33301 -335 81 -335 227c0 79.333 40.667 202.666 122 369.999l88 -43c-75.333 -154 -113 -262.667 -113 -326c0 -52.667 28 -89 84 -109c37.333 -13.333 91 -20.666 161 -21.999l28 396l97 -7l-27 -386c41.333 2 88 6 140 12
l11 -98c-59.333 -6.66699 -112 -11 -158 -13z" />
    <glyph glyph-name="five" unicode="5" horiz-adv-x="652" 
d="M243 4c-76.667 0 -157.333 12.333 -242 37l27 94c76 -22 148.333 -33 217 -33c116.667 0 175 38 175 114c0 70.667 -70 106 -210 106c-38 0 -77.333 -2.66699 -118 -8l-1 -14l-97 3l11 393l51 -2v2l428 -11l-3 -98l-382 10l-5 -183c36.667 4.66699 73 7 109 7
c209.333 0 314 -68.667 314 -206c0 -74.667 -28.333 -130 -85 -166c-47.333 -30 -110.333 -45 -189 -45z" />
    <glyph glyph-name="six" unicode="6" horiz-adv-x="718" 
d="M534 553c-67.333 34 -131.998 51.001 -193.998 51.001c-82 0 -144 -25.667 -186 -77c-38 -47.333 -57 -113 -57 -197c0 -66.667 19 -121.334 57 -164.001c40 -45.333 92.667 -68 158 -68c44.667 0 81.334 11.333 110.001 34c32 25.333 48 59.666 48 102.999
c0 40 -12.333 70.833 -37 92.5s-57.334 32.5 -98.001 32.5c-29.333 0 -59 -6.33301 -89 -19l-84 -38l-38 90l98 47c34.667 13.333 70.667 20 108 20c69.333 0 126.166 -20.667 170.499 -62s66.5 -96.666 66.5 -165.999s-25.333 -126 -76 -170
c-48 -41.333 -107.333 -62 -178 -62c-93.333 -0 -168.833 31.333 -226.5 94s-86.5 141 -86.5 235c0 112 28.333 201 85 267c60 70.667 145 106 255 106c77.333 0 156.666 -20.333 237.999 -61z" />
    <glyph glyph-name="seven" unicode="7" horiz-adv-x="709" 
d="M566 600h-32l-275 -619l-89 40l259 582l-430 10l3 98l566 -13z" />
    <glyph glyph-name="eight" unicode="8" horiz-adv-x="722" 
d="M281 -4c-71.333 0 -133 15.667 -185 47c-63.333 38 -95 91.333 -95 160c0 70 28.667 125 86 165c-44 33.333 -66 78.333 -66 135c0 66.667 29 118.667 87 156c50 32.667 110 49 180 49c68 0 127 -15.333 177 -46c59.333 -36 89 -87 89 -153
c0 -62.667 -23 -111.334 -69 -146.001c56.667 -38.667 85 -90 85 -154c0 -69.333 -32.667 -123.666 -98 -162.999c-55.333 -33.333 -119 -50 -191 -50zM294 415v-1.00195l27 -1c90.667 0 136 32 136 96c0 34.667 -20.667 61.334 -62 80.001c-32 14 -67.667 21 -107 21
c-42 0 -78.333 -7.66699 -109 -23c-40 -19.333 -60 -48 -60 -86c0 -35.333 19.333 -59.666 58 -72.999c24 -8 63 -12.333 117 -13zM318 314.998c-7.33301 0 -21.332 0.333984 -41.999 1.00098l-13 1c-43.333 3.33301 -80.333 -3.66699 -111 -21
c-36 -20.667 -54 -51.667 -54 -93c0 -36.667 21.667 -65 65 -85c35.333 -16 74.666 -24 117.999 -24c46 0 87.333 8.66699 124 26c45.333 21.333 68 51 68 89c0 34.667 -18 61.667 -54 81c-29.333 15.333 -63 23.666 -101 24.999z" />
    <glyph glyph-name="nine" unicode="9" horiz-adv-x="724" 
d="M223 -2c-60.667 0 -124.999 13.001 -192.999 39.001l35 91c56.667 -21.333 109.334 -32 158.001 -32c84.667 0 148.667 27 192 81c40 50 60 118.333 60 205c0 69.333 -14.667 124.333 -44 165c-33.333 47.333 -83.333 71 -150 71c-48.667 0 -90.667 -12.667 -126 -38
c-40 -28.667 -60 -66.334 -60 -113.001c0 -40.667 12.5 -71.834 37.5 -93.501s58.167 -32.5 99.5 -32.5c56 0 114.667 25.333 176 76l48 -85c-40 -31.333 -75 -53.666 -105 -66.999c-36.667 -15.333 -77.334 -23 -122.001 -23c-68 0 -123.667 21 -167 63s-65 96.667 -65 164
c0 74 29.333 134.333 88 181c55.333 44 120.666 66 195.999 66c94 0 167.333 -33 220 -99c48 -60.667 72 -139 72 -235c0 -114 -29.333 -205.333 -88 -274c-62 -73.333 -149.333 -110 -262 -110z" />
    <glyph glyph-name="colon" unicode=":" horiz-adv-x="275" 
d="M93 488l-98 4l2 118l98 -4zM93 138l-98 4v117l98 -4v-117z" />
    <glyph glyph-name="semicolon" unicode=";" horiz-adv-x="278" 
d="M95 491l-101 4l1 118l101 -4zM78 87l-99 22l26 167l100 -21z" />
    <glyph glyph-name="less" unicode="&#x3c;" horiz-adv-x="451" 
d="M143 351l164 -202l-74 -62l-233 287l74 62l7 -9l189 194l68 -68z" />
    <glyph glyph-name="equal" unicode="=" horiz-adv-x="596" 
d="M3 398l-3 100l454 11l3 -100zM1 229l-2 99l454 1l2 -99z" />
    <glyph glyph-name="greater" unicode="&#x3e;" horiz-adv-x="451" 
d="M196 351l-164 -202l73 -62l233 287l-74 62l-7 -9l-189 194l-68 -68z" />
    <glyph glyph-name="question" unicode="?" horiz-adv-x="655" 
d="M275 291l2 -168.999l-97 -1l-3 266c32 0 57 0.333008 75 1c113.333 4 170 39 170 105c0 76 -58 114 -174 114c-68.667 0 -141 -11 -217 -33l-28 94c85.333 24.667 166.333 37 243 37c78.667 0 141.667 -15 189 -45c56 -36 84 -91.333 84 -166
c0 -120.667 -81.333 -188.334 -244 -203.001zM285 -1.99902l-121 7l6 98l121 -8z" />
    <glyph glyph-name="at" unicode="@" horiz-adv-x="871" 
d="M552 89c-50.667 1.33301 -87.665 18.333 -110.998 51c-22 -2.66699 -44 -4 -66 -4c-68.667 0 -124 12.333 -166 37c-53.333 30 -80 77 -80 141c0 69.333 32.667 119.333 98 150c50 23.333 112.667 33.333 188 30c3.33301 20 7.33301 40.333 12 61l96 -23
c-18.667 -78 -28 -150 -28 -216c0 -33.333 1.33301 -57.333 4 -72c6 -33.333 19.333 -52 40 -56v1c17.333 -1.33301 33.666 1 48.999 7c20 8 30 19.667 30 35v276c0 30 -10.667 55.5 -32 76.5s-47 31.5 -77 31.5h-302c-30 0 -55.667 -10.5 -77 -31.5s-32 -46.5 -32 -76.5
v-303c0 -30 10.667 -55.5 32 -76.5s47 -31.5 77 -31.5h266v-98h-266c-57.333 0 -106.166 20 -146.499 60s-60.5 88.667 -60.5 146v303c0 57.333 20.167 106 60.5 146s89.166 60 146.499 60h302c57.333 0 106.166 -20 146.499 -60s60.5 -88.667 60.5 -146v-283
c-6 -44.667 -23.5 -78.5 -52.5 -101.5s-66.167 -34.167 -111.5 -33.5zM397.002 320c0 23.333 1.33203 48.667 3.99902 76c-116.667 2 -175 -25.333 -175 -82c0 -53.333 49.667 -80 149 -80c8.66699 0 18.334 0.333008 29.001 1c-4.66699 26 -7 54.333 -7 85z" />
    <glyph glyph-name="A" unicode="A" horiz-adv-x="776" 
d="M596 -3l-96.002 20c15.333 75.333 23 152.666 23 231.999c0 18.667 -0.666992 37.334 -2 56.001l-425 -19c-1.33301 -92.667 7.33398 -182 26.001 -268l-96 -21c-18.667 86.667 -28 175.667 -28 267c0 123.333 20.333 221.666 61 294.999c52 94 134.667 141 248 141
c114.667 0 198.334 -50.333 251.001 -151c41.333 -77.333 62 -178.666 62 -303.999c0 -85.333 -8 -168 -24 -248zM305.998 602c-112 0 -179.333 -72.333 -202 -217l405 18c-29.333 132.667 -97 199 -203 199z" />
    <glyph glyph-name="B" unicode="B" horiz-adv-x="737" 
d="M167 6c-22.667 0 -45.999 0.333008 -69.999 1v-7l-97 2l8 666h13c86.667 20 169.667 30 249 30c77.333 0 139.666 -11.333 186.999 -34c64.667 -30.667 97 -80.334 97 -149.001c0 -62 -37 -111 -111 -147c94 -37.333 141 -92.666 141 -165.999
c0 -78.667 -53.333 -134 -160 -166c-67.333 -20 -153 -30 -257 -30zM271.001 600c-51.333 0 -106.667 -5 -166 -15l-2 -169c-5.33301 0 3.66699 -0.333008 27 -1h26c61.333 0 119.333 5.66699 174 17c84 17.333 126 45.333 126 84c0 56 -61.667 84 -185 84zM150 317
l-22.999 -0.000976562c-22.667 -0.666992 -31.334 -1 -26.001 -1l-2 -211c22 -0.666992 43.667 -1 65 -1c72 0 134 4.66699 186 14c90.667 16 136 44 136 84c0 42.667 -46.667 74.334 -140 95.001c-60.667 13.333 -126 20 -196 20z" />
    <glyph glyph-name="C" unicode="C" horiz-adv-x="674" 
d="M425 0c-125.333 0 -224.669 27.001 -298.002 81.001c-82.667 61.333 -124 152.666 -124 273.999c0 118 39.667 206.667 119 266c70 53.333 165.667 80 287 80c54 0 105 -5 153 -15l-20 -96c-42 8.66699 -86.667 13 -134 13c-204.667 0 -307 -82.667 -307 -248
c0 -171.333 107.333 -257 322 -257c46.667 0 91.334 4 134.001 12l19 -96c-47.333 -9.33301 -97.666 -14 -150.999 -14z" />
    <glyph glyph-name="D" unicode="D" horiz-adv-x="717" 
d="M0 28l3.00098 -5c-0.666992 72.667 4.66602 301 15.999 685l98 -3l-1 -31c16 1.33301 31 2 45 2c119.333 0 214 -26.333 284 -79c79.333 -58.667 119 -145.667 119 -261c0 -116 -41 -203 -123 -261c-70.667 -50.667 -166.334 -76 -287.001 -76
c-55.333 0 -107.666 5 -156.999 15zM162.001 578c-16 0 -32.333 -0.666992 -49 -2l-15 -477c20 -1.33301 39 -2 57 -2c208 0 312 79.667 312 239c0 161.333 -101.667 242 -305 242z" />
    <glyph glyph-name="E" unicode="E" horiz-adv-x="672" 
d="M98 695v-1l454 -3l-1 -98l-451 3l5 -207l402 20l4 -98l-404 -20l4 -181l452 -11l-2 -98l-555 14l-5 680c46 -0.666992 78.333 -0.666992 97 0z" />
    <glyph glyph-name="F" unicode="F" horiz-adv-x="621" 
d="M103 574l-2 -174l405 -14l-3 -97l-403 13l-2 -303l-98 1l6 691l98 -1l-1 -18l445 28l6 -97z" />
    <glyph glyph-name="G" unicode="G" horiz-adv-x="713" 
d="M362 -2c-116 0 -205.335 31.666 -268.002 94.999s-94 153 -94 269c0 114.667 38.667 201.334 116 260.001c68.667 51.333 162.334 77 281.001 77c61.333 0 120 -6.33301 176 -19l-21 -96c-50 11.333 -102 17 -156 17c-198.667 0 -298 -79.667 -298 -239
c0 -177.333 87.667 -266 263 -266c38.667 0 79.334 4.33301 122.001 13v143l-132 -7l-6 98l235 13l1 -322c-80 -24 -153 -36 -219 -36z" />
    <glyph glyph-name="H" unicode="H" horiz-adv-x="734" 
d="M551 23l-97 4l12 283l-356 10l9 -319l-97 -3l-21 699l97 3l9 -282l363 -10l12 279l98 -4z" />
    <glyph glyph-name="I" unicode="I" horiz-adv-x="596" 
d="M459 0l-458 7l1 98l180 -3l-9 498l-126 2v98l351 -4l-1 -98l-127 1l9 -498l181 -3z" />
    <glyph glyph-name="J" unicode="J" horiz-adv-x="736" 
d="M433 600c8 -65.333 11.999 -126.999 11.999 -184.999c0 -107.333 -14 -195.666 -42 -264.999c-39.333 -98.667 -104.666 -148 -195.999 -148c-62.667 0 -112.667 18.5 -150 55.5s-56 86.833 -56 149.5c0 5.33301 0.666992 12.666 2 21.999l96 -9v-14
c0 -70.667 36 -106 108 -106c92.667 0 139 105.333 139 316c0 59.333 -3.66699 120.666 -11 183.999h-230v98h495v-98h-167z" />
    <glyph glyph-name="K" unicode="K" horiz-adv-x="683" 
d="M561 0c-206 24 -358.667 76.999 -458 158.999l-4 -153l-97 3l18 701l98 -3l-6 -205c52.667 44 123 79 211 105c76 22.667 154 36 234 40l5 -98c-104 -6 -196.333 -25 -277 -57c-109.333 -43.333 -164 -102.666 -164 -177.999c0 -58 59.667 -109 179 -153
c83.333 -30.667 174 -52 272 -64z" />
    <glyph glyph-name="L" unicode="L" horiz-adv-x="648" 
d="M96 20v-18h-97l2 699h98l-2 -583l471 3v-98z" />
    <glyph glyph-name="M" unicode="M" horiz-adv-x="780" 
d="M521 -2l-11 429c-51.333 -44.667 -115.666 -67 -192.999 -67c-84.667 0 -154.334 24 -209.001 72l-9 -431l-97 2l13 666c0 9.33301 0.333008 20 1 32l97 -5v-41c0 -62.667 18.167 -111.167 54.5 -145.5s86.166 -51.5 149.499 -51.5c126.667 0 188.667 80.333 186 241
l97 6c0.666992 -7.33301 1.33398 -23 2.00098 -47l16 -658z" />
    <glyph glyph-name="N" unicode="N" horiz-adv-x="728" 
d="M557 -3l-97 1v41l-360 451v-488h-98v692h98v-47l362 -454l7 502l98 -1z" />
    <glyph glyph-name="O" unicode="O" horiz-adv-x="841" 
d="M348 -4c-98.667 0 -181.167 34.333 -247.5 103s-99.5 152.334 -99.5 251.001s33.167 182.334 99.5 251.001s148.833 103 247.5 103c98 0 180 -34.333 246 -103s99 -152.334 99 -251.001s-33 -182.334 -99 -251.001s-148 -103 -246 -103zM348 606
c-70.667 0 -129.834 -24.833 -177.501 -74.5s-71.5 -110.167 -71.5 -181.5s23.833 -131.833 71.5 -181.5s106.834 -74.5 177.501 -74.5s129.667 25 177 75s71 110.333 71 181s-23.667 131 -71 181s-106.333 75 -177 75z" />
    <glyph glyph-name="P" unicode="P" horiz-adv-x="693" 
d="M-1 684l2 -0.000976562v1c66 13.333 133.333 20 202 20c100 0 180.667 -16.667 242 -50c78.667 -42.667 118 -110 118 -202c0 -87.333 -34 -151.666 -102 -192.999c-56 -34 -130.333 -51 -223 -51c-38 0 -79 3 -123 9l9 -216l-97 -4zM203 606.999
c-32.667 0 -67.334 -2 -104.001 -6l12 -284c44.667 -6.66699 87.334 -10 128.001 -10c151.333 0 227 48.667 227 146c0 102.667 -87.667 154 -263 154z" />
    <glyph glyph-name="Q" unicode="Q" horiz-adv-x="845" 
d="M626 0l-70.002 70c-63.333 -48 -133.666 -72 -210.999 -72c-96.667 0 -178.167 34 -244.5 102s-99.5 150.333 -99.5 247c0 97.333 33.167 179.833 99.5 247.5s147.833 101.5 244.5 101.5s178.334 -33.833 245.001 -101.5s100 -150.167 100 -247.5
c0 -78.667 -21.667 -148 -65 -208l70 -69zM344.998 598c-69.333 0 -127.666 -24.5 -174.999 -73.5s-71 -108.167 -71 -177.5s23.667 -128.5 71 -177.5s105.666 -73.5 174.999 -73.5c49.333 0 96 14.333 140 43l-91 90l68 70l92 -90c25.333 40 38 86 38 138
c0 69.333 -23.833 128.5 -71.5 177.5s-106.167 73.5 -175.5 73.5z" />
    <glyph glyph-name="R" unicode="R" horiz-adv-x="706" 
d="M441 258l111.999 -231l-88 -43l-117 241c-33.333 -6.66699 -69.666 -10 -108.999 -10c-44.667 0 -92 4.33301 -142 13v-229h-97l-2 691c66.667 14.667 134.667 22 204 22c98.667 0 178 -16.667 238 -50c76.667 -42.667 115 -109.667 115 -201
c0 -93.333 -38 -161 -114 -203zM201.999 614c-33.333 0 -68.333 -2.33301 -105 -7v-280c49.333 -9.33301 97 -14 143 -14c144.667 0 217 49.333 217 148c0 102 -85 153 -255 153z" />
    <glyph glyph-name="S" unicode="S" horiz-adv-x="689" 
d="M307 -11c-93.333 0 -196.334 21.668 -309.001 65.001l35 92c102 -39.333 194 -59 276 -59c100.667 0 151 38.333 151 115c0 44 -22.667 73.333 -68 88c-26 8.66699 -69 13 -129 13c-76 0 -136.667 13.333 -182 40c-58 34 -87 87 -87 159c0 74 28.333 128.333 85 163
c46.667 29.333 109 44 187 44c76.667 0 158.334 -12.333 245.001 -37l-27 -94c-77.333 22 -151 33 -221 33c-114.667 0 -172 -37.667 -172 -113c0 -58.667 48.667 -90.667 146 -96c12 -0.666992 32 -1 60 -1c72.667 0 132 -14.667 178 -44
c54.667 -34.667 82 -86.334 82 -155.001c0 -72 -24.333 -126.667 -73 -164c-43.333 -32.667 -102.333 -49 -177 -49z" />
    <glyph glyph-name="T" unicode="T" horiz-adv-x="685" 
d="M335 598l-13 -600l-98 2l13 597l-236 -2v98l554 5l1 -98z" />
    <glyph glyph-name="U" unicode="U" horiz-adv-x="726" 
d="M292 -5c-104.667 0 -181.667 40.001 -231 120.001c-40 65.333 -60 153.666 -60 264.999c0 108 15.667 218.333 47 331l94 -27c-28.667 -103.333 -43 -205 -43 -305c0 -190.667 64 -286 192 -286c122 0 183 93.333 183 280c0 102 -15 207 -45 315l94 26
c32 -116 48 -229.333 48 -340c0 -108 -19 -194.333 -57 -259c-47.333 -80 -121.333 -120 -222 -120z" />
    <glyph glyph-name="V" unicode="V" horiz-adv-x="736" 
d="M374 -14l-90 38l10 24l-300 642l88 42l263 -562l238 567l90 -38z" />
    <glyph glyph-name="W" unicode="W" horiz-adv-x="843" 
d="M538 -18l-94 29l9 29l-81 403l-108 -456l-95 23l3 14l-177 678l95 25l130 -500l110 462l93 -1l90 -449l146 485l94 -29z" />
    <glyph glyph-name="X" unicode="X" horiz-adv-x="773" 
d="M384 347l243 -298l-75 -62l-231 284l-241 -289l-75 63l253 303l-263 322l76 62l250 -307l259 310l75 -63z" />
    <glyph glyph-name="Y" unicode="Y" horiz-adv-x="771" 
d="M368 308l2 -310l-97 -1l-2 308l-288 360l77 61l258 -324l256 326l77 -60z" />
    <glyph glyph-name="Z" unicode="Z" horiz-adv-x="692" 
d="M141 101l425 -7l-2 -98l-564 10l1 98l18 -1l392 505l-401 -7l-1 98l481 8h3h20l1 -15l53 -42z" />
    <glyph glyph-name="bracketleft" unicode="[" horiz-adv-x="350" 
d="M203 3h-108v-7l-93 1l10 708l182 -1l-1 -98l-90 1l-6 -506l106 -1v-97z" />
    <glyph glyph-name="backslash" unicode="\" horiz-adv-x="663" 
d="M460 -9l-464 660l80 57l463 -661z" />
    <glyph glyph-name="bracketright" unicode="]" horiz-adv-x="361" 
d="M182 -4l-182 5l3 98l89 -2l15 505l-107 3l2 98l108 -3v7l94 -3z" />
    <glyph glyph-name="asciicircum" unicode="^" horiz-adv-x="631" 
d="M174 578l-110 -94l-64 71l182 156l163 -170l-63 -70z" />
    <glyph glyph-name="underscore" unicode="_" horiz-adv-x="687" 
d="M3 3l-3 90l530 12l3 -90z" />
    <glyph glyph-name="a" unicode="a" horiz-adv-x="637" 
d="M429 20c-36.667 -5.33301 -74.335 -7.99902 -113.002 -7.99902c-88 0 -159.333 15 -214 45c-69.333 38 -104 97.333 -104 178c0 82.667 38 143.667 114 183c58.667 30 133.334 45 224.001 45c12.667 0 25.334 -0.333008 38.001 -1l9 39l95 -22
c-19.333 -84.667 -29 -163.334 -29 -236.001c0 -99.333 21.333 -149 64 -149l2 -97c-33.333 -0.666992 -62 7 -86 23zM351.999 247.001c0 36 2.33203 75.333 6.99902 118c-8 0.666992 -15.667 1 -23 1c-160.667 0 -241 -43.667 -241 -131c0 -84 73.667 -126 221 -126
c16.667 0 34.334 0.666992 53.001 2c-11.333 38 -17 83.333 -17 136z" />
    <glyph glyph-name="b" unicode="b" horiz-adv-x="634" 
d="M95 5c-8.66699 -2.66699 -40.332 -3.66699 -94.999 -3l18 698l97 -2l-5 -194l20 1c91.333 4.66699 170.666 -11.333 237.999 -48c78 -42.667 117 -110.334 117 -203.001c0 -95.333 -45 -164 -135 -206c-67.333 -31.333 -152.333 -45.666 -255 -42.999zM129.002 407
l-22 -1l-7 -303c192 -2.66699 288 48 288 152c0 109.333 -86.333 160 -259 152z" />
    <glyph glyph-name="c" unicode="c" horiz-adv-x="601" 
d="M359 -1c-100 0 -180.331 15.668 -240.998 47.001c-80 41.333 -120 107.666 -120 198.999c0 90.667 41.333 157 124 199c62.667 32 142.667 48 240 48c41.333 0 80.666 -2.66699 117.999 -8l-14 -96c-33.333 4.66699 -67.333 7 -102 7c-179.333 0 -269 -50.333 -269 -151
c0 -98.667 88.333 -148 265 -148c37.333 0 73.666 2.33301 108.999 7l15 -96c-40 -5.33301 -81.667 -8 -125 -8z" />
    <glyph glyph-name="d" unicode="d" horiz-adv-x="649" 
d="M386 -1v4.00098h-24c-100 0 -180 15.667 -240 47c-82.667 43.333 -124 110.666 -124 201.999c0 96.667 42.667 166 128 208c64.667 31.333 150 45.333 256 42l-2 194l97 1l6 -698h-97zM382 404.001h-28c-172.667 0 -259 -50.333 -259 -151
c0 -104 96.667 -154.667 290 -152z" />
    <glyph glyph-name="e" unicode="e" horiz-adv-x="646" 
d="M290 -2c-86.667 0 -155.669 21.998 -207.002 65.998c-54.667 46 -82 111.667 -82 197c0 70.667 27.667 127.334 83 170.001c50.667 38.667 112.334 58 185.001 58c57.333 0 107 -13.667 149 -41c49.333 -32 74 -75 74 -129c0 -53.333 -20.333 -93.333 -61 -120
c-34 -22 -79 -33 -135 -33c-57.333 0 -112.333 10.667 -165 32l2 9l25 78c40 -14.667 86.667 -22 140 -22c64 0 96 18.667 96 56c0 24.667 -15.667 43.667 -47 57c-24 10 -50 15 -78 15c-45.333 0 -83.666 -10 -114.999 -30c-37.333 -23.333 -56 -56.666 -56 -99.999
c0 -110 64 -165 192 -165c53.333 0 109 11.667 167 35l37 -89c-70.667 -29.333 -138.667 -44 -204 -44z" />
    <glyph glyph-name="f" unicode="f" horiz-adv-x="613" 
d="M487 398l-283.002 7.99707c-2.66699 -19.333 -4 -39 -4 -59c0 -85.333 24 -190.666 72 -315.999l-90 -36c-52.667 138 -79 255.333 -79 352c0 20.667 1 41.334 3 62.001l-110 2l2 98l133 -3c26.667 62.667 69.334 111.167 128.001 145.5s120 49.833 184 46.5l18 -1
l-5 -97c-99.333 0.666992 -171.666 -31.666 -216.999 -96.999l251 -7z" />
    <glyph glyph-name="g" unicode="g" horiz-adv-x="653" 
d="M205 -201c-54.667 0 -118.999 12.666 -192.999 37.999l32 93c63.333 -22 116.666 -33 159.999 -33c76 0 129.667 33.333 161 100c-13.333 -0.666992 -25.333 -1 -36 -1c-94 0 -169 17 -225 51c-68.667 41.333 -103 106 -103 194c0 83.333 32.333 146.333 97 189
c54.667 36 126 54 214 54c13.333 0 28 -0.333008 44 -1l-2 7l93 26c30.667 -112 46 -222 46 -330c0 -111.333 -19.667 -199.666 -59 -264.999c-48 -81.333 -124.333 -122 -229 -122zM378.001 381.999c-20.667 2.66699 -42.333 4 -65 4c-143.333 0 -215 -48.667 -215 -146
s77.333 -146 232 -146c20 0 40.333 1 61 3c3.33301 27.333 5 56.666 5 87.999c0 60.667 -6 126.334 -18 197.001z" />
    <glyph glyph-name="h" unicode="h" horiz-adv-x="632" 
d="M392 -4c-1.33301 84.667 -7.00098 160.668 -17.001 228.001c-17.333 116.667 -46.333 175 -87 175c-9.33301 0 -20.666 -3.66699 -33.999 -11c-44.667 -24.667 -83 -77.334 -115 -158.001c-28.667 -72 -43 -138 -43 -198v-24l-97 -2v692h97v-342
c61.333 94 125.333 141 192 141c130.667 0 197.667 -167 201 -501h-97z" />
    <glyph glyph-name="i" unicode="i" horiz-adv-x="265" 
d="M99 524l-106 33l25 94l106 -33zM12 -1l-10 498l89 2l10 -498z" />
    <glyph glyph-name="j" unicode="j" horiz-adv-x="573" 
d="M282 565v98h132v-98h-132zM206 -4c-62.667 0 -113.5 19 -152.5 57s-56.833 88.333 -53.5 151l1 19l96 -8c-1.33301 -80.667 35 -121 109 -121c76.667 0 115 87 115 261c0 45.333 -3.33301 92.333 -10 141l96 14c7.33301 -52 11 -104 11 -156c0 -94 -12.667 -171 -38 -231
c-35.333 -84.667 -93.333 -127 -174 -127z" />
    <glyph glyph-name="k" unicode="k" horiz-adv-x="613" 
d="M483 390c-33.333 4.66699 -67.332 7 -101.999 7c-179.333 0 -269 -50.667 -269 -152s86.333 -152 259 -152c34.667 0 68.667 2.33301 102 7l14 -96c-37.333 -6 -76.333 -9 -117 -9c-123.333 0 -215 24.333 -275 73l-2 -67h-97l4 703l97 -1l-1 -284
c64.667 50.667 159 76 283 76c41.333 0 80.666 -2.66699 117.999 -8z" />
    <glyph glyph-name="l" unicode="l" horiz-adv-x="294" 
d="M0 407c0 97.333 6.33301 198.333 19 303l92 -13c-12.667 -98.667 -19 -195 -19 -289c0 -208 28 -312 84 -312v-99c-117.333 2 -176 138.667 -176 410z" />
    <glyph glyph-name="m" unicode="m" horiz-adv-x="805" 
d="M632 -3l-95.999 15c9.33301 60 14 119.333 14 178c0 139.333 -23 209 -69 209c-35.333 0 -61.333 -45.333 -78 -136c-10.667 -58 -16 -120 -16 -186c0 -19.333 -0.333008 -39.666 -1 -60.999l-97 1c-0.666992 7.33301 -0.666992 21.666 0 42.999v37
c0 56 -5.66699 112 -17 168c-17.333 84.667 -42.333 127 -75 127c-33.333 0 -57.666 -28.333 -72.999 -85c-10.667 -39.333 -15 -83 -13 -131l7 -174l-98 -4l-21 499l98 4l2 -48c29.333 24 62 36 98 36c59.333 0 105.666 -36.667 138.999 -110
c35.333 78 83.666 117 144.999 117c111.333 0 167 -101.667 167 -305c0 -64 -5.33301 -128.667 -16 -194z" />
    <glyph glyph-name="n" unicode="n" horiz-adv-x="661" 
d="M405 0c-0.666992 83.333 -6.33203 158.667 -16.999 226c-18 115.333 -47.667 173 -89 173c-9.33301 0 -21 -4 -35 -12c-46 -26 -85.333 -78.667 -118 -158c-28.667 -69.333 -43 -135.333 -43 -198v-22l-97 -1l-5 477h97l2 -137c63.333 98.667 129.666 148 198.999 148
c132 0 199.667 -165 203 -495z" />
    <glyph glyph-name="o" unicode="o" horiz-adv-x="653" 
d="M248 -5c-70 0 -129 24.5 -177 73.5s-72 108.5 -72 178.5s24 129.667 72 179s107 74 177 74s129 -24.667 177 -74s72 -109 72 -179s-24 -129.5 -72 -178.5s-107 -73.5 -177 -73.5zM248 403c-43.333 0 -79.5 -15.167 -108.5 -45.5s-43.5 -67.166 -43.5 -110.499
s14.667 -80 44 -110s65.333 -45 108 -45s78.667 15 108 45s44 66.667 44 110s-14.5 80.166 -43.5 110.499s-65.167 45.5 -108.5 45.5z" />
    <glyph glyph-name="p" unicode="p" horiz-adv-x="647" 
d="M98 -6l-3 -198l-97 1l5 361c2.66699 194 2.66699 302.667 0 326c41.333 6.66699 84 10 128 10c99.333 0 181 -16.333 245 -49c83.333 -42.667 125 -109 125 -199c0 -99.333 -46 -169.666 -138 -210.999c-68 -30.667 -156.333 -44.334 -265 -41.001zM129 396
c-8 0 -17 -0.333008 -27 -1l-3 -303h31c182.667 0 274 51 274 153c0 100.667 -91.667 151 -275 151z" />
    <glyph glyph-name="q" unicode="q" horiz-adv-x="662" 
d="M405 -207l-2 198.999c-12 -0.666992 -23 -1 -33 -1c-102 0 -184.333 16.333 -247 49c-82 42.667 -123 110.334 -123 203.001c-0 92 42.333 159 127 201c62.667 31.333 143.667 47 243 47c44 0 86 -3 126 -9l-1 -10l8 -677zM398 392.999h-26.999
c-182.667 0 -274 -50.333 -274 -151c0 -102 91.333 -153 274 -153c9.33301 0 19.666 0.333008 30.999 1z" />
    <glyph glyph-name="r" unicode="r" horiz-adv-x="537" 
d="M110 3l-95.998 -4.99902c-0.666992 8.66699 -7 173 -19 493l96 4l6 -160c71.333 100 176.666 151.333 315.999 154l2 -97c-108.667 -2.66699 -189.334 -42.334 -242.001 -119.001c-46 -67.333 -67 -157.333 -63 -270z" />
    <glyph glyph-name="s" unicode="s" horiz-adv-x="643" 
d="M278 -5c-84 0 -177.667 14.667 -281 44l27 94c94.667 -27.333 180.334 -41 257.001 -41c85.333 0 128 19.333 128 58c0 22.667 -24.333 37.667 -73 45c-22 3.33301 -53.333 5 -94 5c-63.333 0 -116 9 -158 27c-57.333 24.667 -86 64.667 -86 120
c0 104.667 87 157 261 157c63.333 0 130.333 -7 201 -21l-19 -95c-64 12.667 -125.333 19 -184 19c-108 0 -162 -20.333 -162 -61c0 -22 25.667 -36.333 77 -43c25.333 -3.33301 58.333 -5 99 -5c61.333 0 112.333 -9.66699 153 -29c54.667 -25.333 82 -65 82 -119
c0 -57.333 -25.333 -99 -76 -125c-38.667 -20 -89.334 -30 -152.001 -30z" />
    <glyph glyph-name="t" unicode="t" horiz-adv-x="632" 
d="M280 405c-1.33301 -26.667 -2 -50.999 -2 -72.999c0 -154.667 29 -232.334 87 -233.001l2 -98c-124.667 0 -187 113 -187 339c0 19.333 0.666992 40 2 62l-180 -5l-2 98l189 5c6 68.667 15 135.667 27 201l96 -18c-10.667 -58.667 -19 -118.667 -25 -180l209 6l2 -98z
" />
    <glyph glyph-name="u" unicode="u" horiz-adv-x="650" 
d="M393 3l-2 65.999c-42 -48 -95.333 -72 -160 -72c-85.333 0 -147.666 41.333 -186.999 124c-29.333 61.333 -44 140 -44 236c0 49.333 3.66699 97 11 143l96 -15c-6.66699 -41.333 -10 -83.666 -10 -126.999c0 -175.333 45 -263 135 -263c53.333 0 93.666 31 120.999 93
c20.667 47.333 31 103.333 31 168c0 6 -1.33301 49.333 -4 130l97 6c2 -24.667 3 -64 3 -118c0 -4 3.33301 -126.667 10 -368z" />
    <glyph glyph-name="v" unicode="v" horiz-adv-x="696" 
d="M219 34l9 17l-229 428l86 46l198 -370l188 359l86 -45l-251 -480z" />
    <glyph glyph-name="w" unicode="w" horiz-adv-x="790" 
d="M448 4c-59.333 0 -105.333 37.333 -138 112c-35.333 -79.333 -84 -119 -146 -119c-110.667 0 -166 101.667 -166 305c0 62.667 5 127.334 15 194.001l97 -15c-9.33301 -61.333 -14 -121 -14 -179c0 -138.667 22.667 -208 68 -208c36 0 63 47.333 81 142
c12 63.333 18 126.333 18 189c0 20 0.666992 40.667 2 62l97 -1v-44c0 -8 -0.333008 -16.333 -1 -25v-12c0 -62.667 5 -121.334 15 -176.001c16 -85.333 40 -128 72 -128c58 0 87 83.333 87 250c0 44.667 -2.66699 89.667 -8 135l97 12c6 -50 9 -100.333 9 -151
c0 -228.667 -61.667 -343 -185 -343z" />
    <glyph glyph-name="x" unicode="x" horiz-adv-x="671" 
d="M329 249l188 -190l-69 -69l-188 190l-190 -190l-69 69l191 190l-198 199l70 69l196 -199l197 197l69 -69z" />
    <glyph glyph-name="y" unicode="y" horiz-adv-x="666" 
d="M284 -204c-86 0 -181.668 26.6699 -287.001 80.0029l43 88c92.667 -46.667 174.334 -70 245.001 -70c84 0 125 44.667 123 134l-1 47c-44.667 -51.333 -100.667 -77 -168 -77c-82 0 -143.333 27.667 -184 83c-35.333 48 -53 114.333 -53 199
c0 75.333 12 151.666 36 228.999l92 -30c-20.667 -68.667 -31 -135.334 -31 -200.001c0 -122 46.667 -183 140 -183c58.667 0 103 35.333 133 106c22.667 54 33.667 117.333 33 190l-1 98l97 4c0.666992 -12.667 1 -47.334 1 -104.001c0 -40 0.666992 -100 2 -180l1 -182
c0 -72 -19 -128.667 -57 -170s-92.667 -62 -164 -62z" />
    <glyph glyph-name="z" unicode="z" horiz-adv-x="643" 
d="M503 -1l-496 7l1 75l-4 4l4 4l1 14h14l316 296l-341 6l2 97l496 -9l-2 -97h-16l-315 -295l342 -5z" />
    <glyph glyph-name="braceleft" unicode="{" horiz-adv-x="407" 
d="M149 354c0 -102.667 35.668 -205.998 107.001 -309.998l-76 -57c-71.333 103.333 -112 207.666 -122 312.999h-62v98h61c5.33301 57.333 19.666 114.666 42.999 171.999c24 60.667 54 111.667 90 153l70 -66c-34 -39.333 -61 -86.5 -81 -141.5s-30 -108.833 -30 -161.5z
" />
    <glyph glyph-name="bar" unicode="|" horiz-adv-x="254" 
d="M2 0l-4 699h86l4 -699h-86z" />
    <glyph glyph-name="braceright" unicode="}" horiz-adv-x="403" 
d="M197 300c-10 -105.333 -50.665 -209.667 -121.998 -313l-77 57c71.333 104 107 207.333 107 310c0 54 -9.83301 108.167 -29.5 162.5s-46.834 101.166 -81.501 140.499l70 66c36 -41.333 66 -92.333 90 -153c23.333 -57.333 37.666 -114.666 42.999 -171.999h61v-98h-61z
" />
    <glyph glyph-name="asciitilde" unicode="~" horiz-adv-x="631" 
d="M295 448l-121 130l-110 -94l-64 71l182 156l127 -137l125 87l57 -77z" />
    <glyph glyph-name="quoteleft" unicode="&#x2018;" horiz-adv-x="330" 
 />
    <glyph glyph-name="quoteright" unicode="&#x2019;" horiz-adv-x="266" 
d="M98 547l-86 3l6 149l85 -3z" />
    <glyph glyph-name=".null" horiz-adv-x="0" 
 />
    <glyph glyph-name="glyph2" 
 />
    <glyph glyph-name="HT" 
 />
    <glyph glyph-name="nonmarkingreturn" 
 />
  </font>
</defs>
</svg>
