<?xml version="1.0" standalone="no"?>
<!DOCTYPE svg PUBLIC "-//W3C//DTD SVG 1.1//EN" "http://www.w3.org/Graphics/SVG/1.1/DTD/svg11.dtd" >
<svg>
<metadata>
Created by FontForge 20090914 at Sat Feb 16 04:12:25 2013
 By www-data
2007 Vic Fieger
</metadata>
<defs>
<font id="Xenophone" horiz-adv-x="80" >
  <font-face 
    font-family="Xenophone"
    font-weight="400"
    font-stretch="normal"
    units-per-em="2048"
    panose-1="2 0 0 0 0 0 0 0 0 0"
    ascent="1638"
    descent="-410"
    x-height="1326"
    cap-height="1344"
    bbox="-110.001 -401.999 2196 1833"
    underline-thickness="150"
    underline-position="-142"
    unicode-range="U+0020-U+F002"
  />
<missing-glyph horiz-adv-x="1104" 
d="M40 0v1280h1024v-1280h-1024zM72 32h960v1216h-960v-1216z" />
    <glyph glyph-name=".notdef" horiz-adv-x="1104" 
d="M40 0v1280h1024v-1280h-1024zM72 32h960v1216h-960v-1216z" />
    <glyph glyph-name="space" unicode=" " horiz-adv-x="444" 
 />
    <glyph glyph-name="space" unicode="&#xa0;" horiz-adv-x="444" 
 />
    <glyph glyph-name="exclam" unicode="!" horiz-adv-x="602" 
d="M321 402l65.0029 8.00098c46 -8.66699 77 -29.334 93 -62.001l4 -69c-4.66699 -44 -8.83398 -72.833 -12.501 -86.5s-14.834 -21.167 -33.501 -22.5l-46 -37l-67 23c-22.667 -4.66699 -43.667 1.66602 -63 18.999c3.33301 36 5.66602 64.667 6.99902 86
c-2 8 -6.66699 15 -14 21l7 28c16.667 30.667 36.667 61.334 60 92.001zM354.003 1678c38.667 -3.33301 77.332 -12.001 115.999 -26.001l-12 -134l12 -15l-6 -16l-12 -16c4.66699 -26.667 15 -54 31 -82c-11.333 -24.667 -19.666 -54 -24.999 -88l12 -77l-6 -16l6 -47
l-12 -15l-6 -41l24 -16l-18 -51l12 -62l-30 -16c17.333 -24.667 29.333 -53.667 36 -87l7 -47l-7 -36l7 -16l-25 -15l25 -51l-7 -79l13 -66l-25 -26c-3.33301 -14.667 -11.333 -28.667 -24 -42l12 16l-12 6l-104 4l-61 11l-12 15l6 82l-13 104l7 88l-7 72l7 15
c-8 35.333 -12.333 73.333 -13 114l-5 108l5 99c0 33.333 -4 69.333 -12 108l7 109l48 51c12 -4.66699 26.333 -9.66699 43 -15l-25 21l-18 9c-14 -2.66699 -30 -4 -48 -4l-13 31l13 15l-13 62l18 36c28 10.667 62.667 19.334 104 26.001zM293.001 1469l-6 -22l6 -9l12 -6
l24 6c-9.33301 10.667 -21.333 21 -36 31zM287.001 1213c2 -7.33301 8.33301 -14 19 -20c-2 8 -8.33301 14.667 -19 20zM385.001 930c8 -12 20.332 -22.333 36.999 -31c-7.33301 12 -19.666 22.333 -36.999 31zM460 678v30h-12zM286 220l14 -41l12 29zM395 210l41 -14l12 41
h-26z" />
    <glyph glyph-name="quotedbl" unicode="&#x22;" horiz-adv-x="578" 
d="M203 1122l-52 -54.999h1l8 -5l34 16c6.66699 1.33301 12.667 4.66602 18 9.99902c-2.66699 12.667 -5.66699 24 -9 34zM450 1042l27 9.99902l5 10l-2 2l-65 -2l-2 -4c2 -1.33301 3.33301 -2.33301 4 -3c0 -1.33301 11 -5.66602 33 -12.999zM342 1335l69 6
c-4.66699 8 -10.667 14 -18 18l-39 7c-8 -10 -12 -20.333 -12 -31zM243 1053l-159 -35l-13 101l-7 131l-7 125l14 23l68 16l105 -24l28 -39l-14 -101l7 -116l-27 -78zM313 1118l54 68.002c13.333 -6.66699 29.333 -13.334 48 -20.001l-28 27l-20 13
c-15.333 -4 -33.333 -6 -54 -6l-14 41l14 20l-14 82l20 47l79 35c42.667 -4.66699 85.667 -16.334 129 -35.001l-13 -177l13 -20l-7 -21l-13 -20c5.33301 -36 5.66602 -77.667 0.999023 -125c-28 -9.33301 -57 -14 -87 -14c-11.333 0 -22.666 0.666992 -33.999 2l-56 31z
" />
    <glyph glyph-name="numbersign" unicode="#" 
 />
    <glyph glyph-name="dollar" unicode="$" 
 />
    <glyph glyph-name="percent" unicode="%" 
 />
    <glyph glyph-name="ampersand" unicode="&#x26;" horiz-adv-x="1412" 
d="M794 581l-60.002 64.998l-96 98l-78 97c-12.667 14.667 -27 29.334 -43 44.001l-11 -5l-57 -42c-19.333 -13.333 -36.666 -29.666 -51.999 -48.999s-29.333 -41 -42 -65l-5 -96l-16 -21l31 -118l37 -48l42 -54l12 2c1.33301 -2 3 -3.66699 5 -5l35 4
c6.66699 -8 15.334 -15.333 26.001 -22l77 -5l5 -3l96 31l54 48c14.667 8.66699 29.667 38 45 88l16 39zM484.998 1424l-17 -34l50 17c-3.33301 8 -14.333 13.667 -33 17zM270.998 560.998l-7 -28c0 -22 4.66699 -45.333 14 -70l7 77zM684.998 799.998
c-5.33301 28.667 -23 48.334 -53 59.001c7.33301 -18.667 25 -38.334 53 -59.001zM1161 414.998c3.33301 -17.333 13 -33.333 29 -48c-2 21.333 -11.667 37.333 -29 48zM388.998 1095v-57l29 47zM493.998 969.998l-7 -21l21 -7c-1.33301 10.667 -6 20 -14 28z
M934.998 427.998l-10 -38l29 10zM717.998 345.998l-7 -21l14 -7l7 28h-14zM808.998 218.998v-14l14 7zM785.998 1499h14v14h-7zM729.998 1422l-7 -21h14l7 21h-14zM771.998 1351l-7 -21h14v21h-7zM1081 593.998l19.999 -29.0039l19 -10l-6 -33l66 -32l97 -114l86 -42l3 -44
l-72 -95l-60 -35l-24 5l-68 85l-136 124l-14 17c-6.66699 -16.667 -17.667 -32.667 -33 -48l-105 -116l-144 -67l-39 -5l-14 5l-25 -4l-10 -6c-6.66699 2.66699 -12.667 6.33398 -18 11.001h-8l-16 -10c-12 4.66699 -21.333 12 -28 22c-10 -4.66699 -21.667 -7 -35 -7l-14 6
c-8.66699 -3.33301 -18 -5 -28 -5l-150 61l-67 50l-55 56c-17.333 14 -32 34 -44 60c-10 19.333 -19 41.666 -27 66.999l-33 77l-5 50l21 23c-12 18.667 -21 40.667 -27 66c11.333 18 20.333 38.333 27 61c9.33301 21.333 17 45.333 23 72
c9.33301 22.667 21.666 46.667 36.999 72c13.333 16 24.666 36.333 33.999 61c19.333 13.333 39.333 30 60 50c18.667 15.333 39.334 28.333 62.001 39l24 11c-6.66699 6 -13 12 -19 18c8.66699 4.66699 14 9.66699 16 15c-8 17.333 -15.667 30 -23 38
c-4 2.66699 -8.33301 5.33398 -13 8.00098c-4 0.666992 -8 -0.666016 -12 -3.99902l-38 21l-3 24l1 1l-25 85l14 20c-1.33301 26.667 -8.33301 40.667 -21 42l15 53c-2 0.666992 -3.66699 1.33398 -5 2.00098l6 4l11 39c16 21.333 34.667 42 56 62c10 22.667 24 46 42 70
l97 21l83 34l112 -7c30.667 -1.33301 63 -6 97 -14l83 -41c18 -19.333 47.333 -49 88 -89l26 -99l-96 -50l107 8l-7 -48l-27 -14l-91 -14c-21.333 -5.33301 -46.666 -8.33301 -75.999 -9c-13.333 20.667 -21.333 45.334 -24 74.001l-46 86c-20 18.667 -53.667 30 -101 34
l-83 -35l-51 -43l21 -35l21 -43l4 -23c10.667 -8.66699 20.334 -20 29.001 -34l22 -45l124 -90l7 -29l49 -41l8 -20l148 -169l48 -31c6 -8 12.333 -23.667 19 -47l91 120l44 36l29 56l66 -51l62 -78l4 -47l-71 -67l-35 -54z" />
    <glyph glyph-name="quotesingle" unicode="'" horiz-adv-x="332" 
d="M104 1232l-33 28l35 -67l3 2zM83 1444l119 -32.999c26.667 -22.667 48 -59.334 64 -110.001v-77c-2 -48.667 0.333008 -87.667 7 -117c-14 -12.667 -30.333 -20 -49 -22l-63 -45l-21 10c-31.333 6.66699 -52.333 32 -63 76c3.33301 24.667 -4 58 -22 100
c-2 12 -6.66699 22.667 -14 32l7 43c0 47.333 11.667 95 35 143zM177 1393c2.66699 -37.333 13.667 -66.333 33 -87c-2 41.333 -13 70.333 -33 87z" />
    <glyph glyph-name="parenleft" unicode="(" 
 />
    <glyph glyph-name="parenright" unicode=")" 
 />
    <glyph glyph-name="asterisk" unicode="*" 
 />
    <glyph glyph-name="plus" unicode="+" 
 />
    <glyph glyph-name="comma" unicode="," horiz-adv-x="468" 
d="M379 285l-137 -248.002l-35 5h-63l-19 16c-7.33301 28 -16 55 -26 81c11.333 34.667 18 68.334 20 101.001l32 101l-6 14l19 46l26 -16c32 10 62.333 16 91 18l76 -5c30.667 -13.333 47 -33.666 49 -60.999zM334 311.998l35 11l-5 14l-28 -4zM154 101.998l29 11l8 14
l-21 2l-35 -11z" />
    <glyph glyph-name="hyphen" unicode="-" horiz-adv-x="708" 
d="M502 807l-40 49l-21 -17zM194 696l-7.99902 -1.00195l-52 -28l-36 38l9 29l-13 74l8 14l17 80l37 21l80 -17c11.333 -12 26 -22 44 -30c0 13.333 5 25.333 15 36l125 11l74 -10l22 7l91 1l-3 -46l20 11l-13 -56c-0.666992 -21.333 -9.33398 -25.666 -26.001 -12.999
c4.66699 -23.333 17.667 -42 39 -56l-21 -47v-35l-65 -2l-124 11l-29 8c-22 -2 -46.667 -6 -74 -12l-59 16l-43 -3c-18 18.667 -37.333 36.667 -58 54c12 -19.333 26.333 -37.666 43 -54.999z" />
    <glyph glyph-name="hyphen" unicode="&#xad;" horiz-adv-x="708" 
d="M502 807l-40 49l-21 -17zM194 696l-7.99902 -1.00195l-52 -28l-36 38l9 29l-13 74l8 14l17 80l37 21l80 -17c11.333 -12 26 -22 44 -30c0 13.333 5 25.333 15 36l125 11l74 -10l22 7l91 1l-3 -46l20 11l-13 -56c-0.666992 -21.333 -9.33398 -25.666 -26.001 -12.999
c4.66699 -23.333 17.667 -42 39 -56l-21 -47v-35l-65 -2l-124 11l-29 8c-22 -2 -46.667 -6 -74 -12l-59 16l-43 -3c-18 18.667 -37.333 36.667 -58 54c12 -19.333 26.333 -37.666 43 -54.999z" />
    <glyph glyph-name="period" unicode="." horiz-adv-x="538" 
d="M321 402l65.0029 8.00098c46 -8.66699 77 -29.334 93 -62.001l4 -69c-4.66699 -44 -8.83398 -72.833 -12.501 -86.5s-14.834 -21.167 -33.501 -22.5l-46 -37l-67 23c-22.667 -4.66699 -43.667 1.66602 -63 18.999c3.33301 36 5.66602 64.667 6.99902 86
c-2 8 -6.66699 15 -14 21l7 28c16.667 30.667 36.667 61.334 60 92.001z" />
    <glyph glyph-name="slash" unicode="/" 
 />
    <glyph glyph-name="zero" unicode="0" horiz-adv-x="1274" 
d="M623 1340l132.001 -13.9971c36 -9.33301 75.333 -23 118 -41l97 -56c29.333 -20.667 57 -46 83 -76c26 -22.667 49.333 -52.667 70 -90l62 -91c17.333 -36.667 29 -78.334 35 -125.001l14 -125l-14 -132c-8.66699 -37.333 -25 -74.333 -49 -111l-55 -97
c-26 -23.333 -51.667 -51 -77 -83c-22 -28.667 -54.333 -49.667 -97 -63c-30 -12.667 -62.333 -31 -97 -55c-32.667 -14.667 -69.667 -26.334 -111 -35.001l-97 -7l-21 7l-90 21l-21 -7l-118 28c-32.667 8.66699 -67.334 22.334 -104.001 41.001
c-23.333 21.333 -46.666 49.333 -69.999 84l-55 90c-23.333 25.333 -42 57.666 -56 96.999l-41 104c-1.33301 36 -8.33301 75.333 -21 118l21 125c2.66699 36 14 73 34 111c13.333 29.333 29.666 59.666 48.999 90.999c9.33301 34.667 30 67 62 97l174 139l118 41l28 -7
l76 14h21v7zM331.001 1194l14 -27l7 27h-21zM977.001 1090v14h-7zM547.001 1042l-125 -62.998l-63 -104l-48 -48l-28 6l-7 -6l21 -14l14 -42l-14 -21l-14 -48l7 -21l7 -56c12.667 -16.667 24 -37.334 34 -62.001l35 -56l49 -41l62 -28l56 -35l76 -14l69 21l21 -7l49 14
c18 3.33301 36.333 10.333 55 21l63 28c14 12.667 28 28.667 42 48l41 56l28 55l14 77l-7 69c-3.33301 25.333 -10.333 50.666 -21 75.999l-35 56l-83 90c-18 12 -38.667 23.667 -62 35l-42 7l-14 -7h-14zM241.001 951.005l-7 -20h14v20h-7zM1053 625.005
c1.33301 -6 6.00098 -10.668 14.001 -14.001c-0.666992 6.66699 -5.33398 11.334 -14.001 14.001zM220.002 604.004c1.33301 -6 6 -10.668 14 -14.001c-1.33301 4.66699 -6 9.33398 -14 14.001z" />
    <glyph glyph-name="one" unicode="1" horiz-adv-x="468" 
d="M342 1356c24 -14 48.333 -33.666 73 -58.999l13 -21l-10 -62l-3 -503l10 -90l-4 -75l7 -1l-15 -26l13 -311c-17.333 -21.333 -39 -41 -65 -59l-191 43l-3 235c2 27.333 16.667 42.666 44 45.999l16 54l-13 8l-15 -13c-3.33301 -11.333 -12.666 -20.333 -27.999 -27l-6 35
l8 7l-23 263l16 27l-3 103l-16 83l2 42l-56 -18c-26.667 6 -44.334 25 -53.001 57l13 117c6 28.667 16.333 58 31 88l-12 28l49 12l13 -8l104 16c33.333 0 68 3 104 9zM104 1277l-8 -27l13 -7l16 33zM358 817.001l1 14l-7 1zM356 769.001l-16 -33l-1 -21l15 6l15 27z
M356 328.001l-21.999 -33c13.333 8 20.666 19 21.999 33z" />
    <glyph glyph-name="two" unicode="2" horiz-adv-x="889" 
d="M498 1356l87.999 -33.998c27.333 -8 54.333 -19.333 81 -34l74 -40c14.667 -22 32.667 -44.333 54 -67l28 -50l23 -139l-50 -165l-55 -87c-17.333 -26.667 -37.666 -48.334 -60.999 -65.001c-14.667 -22.667 -32.667 -45.334 -54 -68.001l-272 -213l197 18
c28 10.667 59.333 12.334 94 5.00098l94 7c27.333 -1.33301 56.666 -6 87.999 -14c3.33301 -13.333 6 -35.333 8 -66l14 -60l-14 -20c0 -24 -4.33301 -49 -13 -75l-48 -6l7 13h-20v-7c-32 -4 -68 -6 -108 -6l-67 -7c-9.33301 0.666992 -16.333 5 -21 13l-161 -40l-61 -7
l-20 14l-81 6l-47 -13l-21 20c-22 1.33301 -46.667 6 -74 14c-10.667 14.667 -19.667 32.667 -27 54l-6 87c-4.66699 27.333 -13.667 47.666 -27 60.999l20 34l61 40c14.667 22.667 32.334 45 53.001 67c17.333 19.333 37.666 37.333 60.999 54
c18.667 10.667 34.334 26.667 47.001 48l156 108l68 62c83.333 86 111.666 159 84.999 219l-39 49c-16.667 18 -37 36 -61 54l-67 7l-20 -7c-20.667 -15.333 -45.667 -29.666 -75 -42.999l-44 -84c-11.333 -32 -19 -66 -23 -102l-20 -34h-14l-74 20l-27 -7l-20 -13
c-1.33301 -6.66699 -5.66602 -11.334 -12.999 -14.001l6 14h-6l-27 61l6 101c4 25.333 11 52.333 21 81l33 81l61 53c15.333 20 33.333 40.333 54 61l81 34l94 7c26.667 3.33301 53.667 10 81 20zM531.999 742.002c0.666992 -6 5 -10.333 13 -13
c-0.666992 6 -5 10.333 -13 13zM261.999 540.002v-14l14 7zM194.999 486.002l6 -20l7 20h-13zM780.999 365.002c-0.666992 6 -4.99902 10.333 -12.999 13c1.33301 -4.66699 5.66602 -9 12.999 -13zM336 162.002v14h-6zM94 156.002l33 -14c-10.667 1.33301 -21.667 6 -33 14z
" />
    <glyph glyph-name="three" unicode="3" horiz-adv-x="832" 
d="M394 1348l95.999 -5.99707l135 -71c17.333 -14 34.333 -31 51 -51l39 -51l26 -71l6 -84l-6 -90c-12 -20 -22.667 -43.333 -32 -70l-39 -58l58 -45l32 -71c10 -23.333 18.667 -49 26 -77l6 -90l-19 -83l-32 -71c-10.667 -20.667 -23.667 -42 -39 -64l-109 -90l-64 -26
l-84 -19c-14 -6 -31 -10.333 -51 -13l-20 13l-83 19c-16 1.33301 -29 10 -39 26c-20.667 8 -42 12.333 -64 13l-45 25c-4 17.333 -10.333 34.666 -19 51.999l-45 58l-32 70l-7 71l7 19c22 6.66699 47.667 11 77 13l51 6l19 -6l84 6c14.667 -18.667 27.667 -40 39 -64
c16.667 -17.333 38 -30 64 -38l58 -7l19 13c18 11.333 37.333 26.333 58 45l13 58v19h-7c-4.66699 23.333 -15.334 44.666 -32.001 63.999l-83 7l-84 -13c-20.667 7.33301 -40 18 -58 32c-9.33301 16.667 -15.666 36 -18.999 58l6 58l-6 19l6 32c-4 8 -10.333 12.333 -19 13
l13 13c10.667 20.667 27.667 37.667 51 51l84 13c24.667 1.33301 50.334 5.66602 77.001 12.999c14 16.667 27 36 39 58l-7 77c-12.667 18 -29.667 35 -51 51l-77 -13c-14.667 -16 -27.667 -35 -39 -57c-7.33301 -19.333 -18 -38.666 -32 -57.999l-71 6l-19 -6l-77 -7
c-19.333 11.333 -34.333 28.666 -45 51.999l6 90l19 58l39 57l58 52l116 51zM438.999 1342l-39.001 -6l52 -7c-1.33301 6 -5.66602 10.333 -12.999 13zM328.998 1252c6.66699 -8 15.333 -12.333 26 -13zM309.997 1136l-6 -19l13 7v12h-7zM688.997 1002v-39l13 32z
M637.997 764.003l-13 -39c8 10 12.333 23 13 39zM746.997 680.003v13h-6zM541.997 661.003c0.666992 -5.33301 4.66699 -9.66699 12 -13c-0.666992 6 -4.66699 10.333 -12 13zM496.997 629.002h12v13h-6zM720.997 629.002c1.33301 -6 5.66602 -10.333 12.999 -13
c-1.33301 4 -5.66602 8.33301 -12.999 13z" />
    <glyph glyph-name="four" unicode="4" horiz-adv-x="953" 
d="M610 1388c10 -12.667 17.002 -28.668 21.002 -48.001l76 7c26.667 -19.333 45 -46.666 55 -81.999v-62l6 -21l-6 -48l-28 -68l28 -241l-7 -20l-14 -28l14 -68l-7 -14l7 -34l-7 -14v-14l34 -7l69 7l34 -34l28 -69l-14 -48c-2.66699 -32.667 -18.667 -60 -48 -82l-21 7
l-62 -7l7 -42c-1.33301 -36.667 -10.333 -77.667 -27 -123l7 -41c-4.66699 -2 -9.33398 -6.66699 -14.001 -14l7 -21l-35 -13l-55 13l-55 -7c-36.667 8 -57 33.333 -61 76v110l-14 20v35l-179 -14l-27 7l-131 7c-36.667 5.33301 -75.667 16.666 -117 33.999
c-20 26.667 -31.333 61 -34 103c3.33301 30.667 17 60.334 41 89.001c5.33301 31.333 14.666 63.333 27.999 96l357 522c17.333 29.333 40.333 57 69 83zM452.002 962.999l-26.999 -35c2 -7.33301 6.66699 -14 14 -20c7.33301 16 11.666 34.333 12.999 55zM528.003 941.999
c-24 -24 -46.999 -53.667 -68.999 -89l-62 -96c-16.667 -30 -39.334 -60 -68.001 -90l55 -41l137 -7c12 34.667 30.333 66.667 55 96c-22 24.667 -35.667 57 -41 97v109l7 14zM88.0039 618.999c1.33301 -6 6 -10.333 14 -13c-1.33301 6 -6 10.333 -14 13zM280.004 557.999
c5.33301 -7.33301 12.333 -12.001 21 -14.001c-4 6.66699 -11 11.334 -21 14.001zM390.004 440.998h14v14h-7z" />
    <glyph glyph-name="five" unicode="5" horiz-adv-x="907" 
d="M569 1348l73.998 -6.99902l28 7l101 -21l21 -169l-7 -20c-16 -16 -36.333 -29.667 -61 -41l-14 20l-40 -13l-177 -14l-47 -13c-1.33301 5.33301 -6 9.66602 -14 12.999c-19.333 -4 -39.666 -13 -60.999 -27l-14 -14l14 -27v-13h7l-7 -21c3.33301 -9.33301 10 -16 20 -20
l55 14l81 -21l48 14l13 -7l14 -20l95 -7l115 -109l34 -88c7.33301 -28 12 -57.333 14 -88l6 -74c-3.33301 -6.66699 -5.33301 -16 -6 -28l6 -74l-34 -115l-95 -129l-74 -41c-27.333 -4 -56.666 -10.667 -87.999 -20l-156 -34l-21 7l-88 13c-16 6 -32 15 -48 27
c-17.333 4 -35.333 11 -54 21c-18.667 14.667 -34.334 32.667 -47.001 54c-22 14.667 -42.333 32.667 -61 54l-41 75c-8 24 -14.667 51 -20 81l47 48l68 -14l20 14l68 13l27 -7c16.667 -17.333 32.667 -37.666 48 -60.999c11.333 -20.667 27 -41 47 -61
c22.667 -8.66699 47.667 -13 75 -13l47 -7l41 13l68 55l41 68l13 67l-7 27c-13.333 22 -26.666 47 -39.999 75l-61 54l-68 14l-21 -7c-28.667 -5.33301 -58 -14.333 -88 -27l-47 -48l-55 -6l-13 6l-95 14l-81 27c-4.66699 24 -7 51.333 -7 82l34 176l27 88l13 88
c6 30 15.333 61.667 28 95c10 21.333 25.667 41.666 47 60.999l68 14l20 -14l82 20zM235.998 1124l-6 -20l13 6v14h-7zM181.998 1070v-21l20 14zM147.998 921.001l-7 -41l21 13l20 28h-34zM690.998 853.001c3.33301 -10 10.001 -17 20.001 -21
c-2.66699 10 -9.33398 17 -20.001 21zM744.999 805.001c5.33301 -13.333 14.333 -24.667 27 -34zM249.999 765l-14 -21h21v21h-7zM771.999 724h14v14h-7zM66.999 676c-4.66699 -6.66699 -11.333 -11 -20 -13zM155 656c-6.66699 0 -11.333 4.66699 -14 14zM711.001 643v13h-7
zM406.001 344l-13.999 -27c11.333 4 22.666 10.667 33.999 20zM453.002 263l-27 -41l21 -13l20 13z" />
    <glyph glyph-name="six" unicode="6" horiz-adv-x="881" 
d="M309 1367l94 -13.9951l20 7l61 7l20 -7l13 -27l-6 -13c-17.333 -25.333 -33 -59 -47 -101c-9.33301 -32.667 -23 -68.667 -41 -108c-8 -32.667 -19.333 -66.334 -34 -101.001c5.33301 -24 21.333 -37.667 48 -41l-21 -20c36 -2.66699 76.667 -9.33398 122 -20.001
l107 -41c27.333 -11.333 54.333 -27 81 -47l41 -47l54 -88l20 -128l-7 -101l-7 -20l-47 -101c-18.667 -28 -41 -55 -67 -81l-81 -67c-30.667 -18.667 -66.667 -32.334 -108 -41.001c-31.333 -8 -69.333 -14.667 -114 -20c-33.333 5.33301 -69.333 16.666 -108 33.999
l-175 121c-18 27.333 -40.667 56.666 -68 87.999l-6 101l-13 61l19 195l202 526zM363 969.005v-13l13 7zM733 727.005c3.33301 -14.667 10 -28.333 20 -41c-4 13.333 -10.667 27 -20 41zM389 700.006l-66.999 -27.001l-40 -54l6 -47l-6 -14v-20l-7 -13l7 -34l6 -14
c4.66699 -21.333 11.667 -43.666 21 -66.999c17.333 -12.667 37.333 -24 60 -34l68 -20l74 7l54 40l40 54l7 81l-14 81c-12.667 16 -28.334 31.667 -47.001 47l-13 27l-74 7l-54 -7zM780.001 504.005v14h-7zM120.001 477.005l-7 -27l14 7v20h-7zM275.001 363.005
c1.33301 -6 5.66602 -10.668 12.999 -14.001c-1.33301 4.66699 -5.66602 9.33398 -12.999 14.001z" />
    <glyph glyph-name="seven" unicode="7" horiz-adv-x="775" 
d="M370 1353l49 -21.001l28 14l162 -7v7c33.333 -5.33301 68.333 -14.666 105 -27.999c12.667 -35.333 19.667 -72.666 21 -111.999c-17.333 -28 -26.666 -60.667 -27.999 -98l-84 -239c-12.667 -32.667 -24.334 -72.667 -35.001 -120l-77 -238
c-7.33301 -30.667 -19.333 -61.334 -36 -92.001l-35 -98c-9.33301 -30 -16.333 -62.667 -21 -98h35c-20.667 -8.66699 -39.334 -22.667 -56.001 -42l28 7l7 -7l-105 -28l-56 -7l-56 21h-42l14 91l119 358c8 36.667 22 74 42 112c1.33301 36.667 8.33301 79 21 127l49 112
l28 120l-77 7l-21 -7h-105l-70 21c-32 -16.667 -69.667 -26 -113 -28c-8.66699 36 -15.667 78 -21 126l35 63c-5.33301 10 -14.666 19.333 -27.999 28l14 35l106 -7l126 21c4 -8 11 -12.667 21 -14zM258 1262l7 7.00098l-21 7c2 -4.66699 6.66699 -9.33398 14 -14.001z
M370 735c0.666992 -12 5.33301 -23.667 14 -35l14 28z" />
    <glyph glyph-name="eight" unicode="8" horiz-adv-x="853" 
d="M490 1358c32 -8 65.665 -20.665 100.998 -37.998l82 -57l70 -76c18.667 -20.667 29.334 -48 32.001 -82c13.333 -28.667 23.666 -64.667 30.999 -108l-25 -114c-14 -30.667 -35 -60.334 -63 -89.001l-13 -50l38 -32c22 -26 41 -57.667 57 -95l13 -38
c-3.33301 -20 -9.66602 -41 -18.999 -63l6 -83c-15.333 -28.667 -30 -62.334 -44 -101.001l-70 -76c-21.333 -20.667 -51 -39.667 -89 -57c-30 -19.333 -65.667 -32 -107 -38l-32 -7l-13 7h-12l-64 6c-33.333 6.66699 -69.333 17.334 -108 32.001l-95 44l-76 70l-38 108
l-12 57l12 63c4.66699 34.667 17.334 70.667 38.001 108c12.667 28 31.667 57.333 57 88c-17.333 25.333 -38.333 50.666 -63 75.999l-32 89l-12 95l6 19c5.33301 36 16 74 32 114l31 57l70 76c22 20.667 51.667 39.667 89 57c36 13.333 76 22 120 26l64 6l25 -6z
M446.998 1156l-71 -23.999l-47 -35l-42 -47c-12 -7.33301 -19.667 -19.333 -23 -36l-6 -71c6 -18.667 15.667 -36.334 29 -53.001l48 -48l59 -23l18 6l47 -6l53 29c16 11.333 32 25.333 48 42l23 59v89c-5.33301 18 -13 37.667 -23 59c-15.333 14 -33.333 25.667 -54 35z
M191.998 978.003h12v13h-6zM444.998 660.003l-66 -18l-47 -42c-11.333 -11.333 -25 -23 -41 -35l-30 -77l12 -48l35 -47l48 -30l83 -24l47 12l48 30l41 41l18 66l-6 77l-24 53l-53 30zM628.998 414.003c4 -10.667 12.333 -18.999 25 -24.999
c-4.66699 9.33301 -13 17.666 -25 24.999z" />
    <glyph glyph-name="nine" unicode="9" horiz-adv-x="871" 
d="M455 1353l121.001 -25.999c27.333 -14.667 61.333 -29.334 102 -44.001c29.333 -16.667 54.666 -42.334 75.999 -77.001c16 -24 31 -51.667 45 -83c6.66699 -28 17.334 -57.667 32.001 -89l-13 -96l7 -19l6 -63l-70 -153c-4.66699 -30 -15.334 -64 -32.001 -102
c-16.667 -28 -31.667 -62 -45 -102l-51 -96c-18 -19.333 -35 -44.666 -51 -75.999c-6.66699 -38 -19.334 -76.333 -38.001 -115c-16 -34 -45.667 -53 -89 -57c-42 -2 -83.667 1.33301 -125 10l-51 12l19 64l58 89c11.333 28 31.333 55.333 60 82c2 32 10.333 64 25 96l39 74
l-102 6c-17.333 1.33301 -36.333 5.66602 -57 12.999l-109 38c-21.333 22 -42.333 47.333 -63 76c-20 25.333 -39.333 57.333 -58 96l-32 102c-3.33301 8.66699 -9.66602 15 -18.999 19l26 83c8 32 25 63.667 51 95c5.33301 33.333 20 65.333 44 96
c21.333 24 47 47.333 77 70l102 51c34.667 4.66699 73 13.334 115 26.001zM519.001 1283l19 -13c-4 6 -10.333 10.333 -19 13zM703.001 1161l7 -12v12h-7zM426.001 1141c-18 -10.667 -40.001 -18.999 -66.001 -24.999c-14.667 -11.333 -29 -25.333 -43 -42
c-8.66699 -18.667 -14.667 -39 -18 -61l-12 -66l24 -73l30 -54l55 -43l67 -24c22 3.33301 44 11.333 66 24c16.667 11.333 33 25.666 49 42.999l24 66l6 73l-12 79c-9.33301 18.667 -21.666 38.667 -36.999 60l-48 37zM582 626.002l-24.999 -19
c3.33301 -6 9.66602 -10.333 18.999 -13l25 26zM436.001 575.002l18.999 -13c-9.33301 2 -15.666 6.33301 -18.999 13zM538 346.002l-7 -19h13l6 12z" />
    <glyph glyph-name="colon" unicode=":" 
 />
    <glyph glyph-name="semicolon" unicode=";" 
 />
    <glyph glyph-name="semicolon" unicode="&#x37e;" 
 />
    <glyph glyph-name="less" unicode="&#x3c;" 
 />
    <glyph glyph-name="equal" unicode="=" 
 />
    <glyph glyph-name="greater" unicode="&#x3e;" 
 />
    <glyph glyph-name="question" unicode="?" horiz-adv-x="1061" 
d="M450 1539c2 -8.66699 6.66699 -15.333 14 -20l7 20h-21zM691 767.001c2 -10.667 9 -20 21 -28c-2 12 -9 21.333 -21 28zM480 592.001l21 -7v21h-7zM352 1282l-2 -10l16 -12l21 24c-11.333 -1.33301 -23 -2 -35 -2zM756 1412c16 -22 35.667 -42 59 -60
c-11.333 23.333 -25 47 -41 71zM580 886.001l-14.9961 -9l-20 -34l11 -56l2 -48l104 16l3 48c29.333 -0.666992 54.666 -7.66699 75.999 -21l91 -14l27 -14l7 -48h-7l-21 -41c-24 -18 -45 -36.667 -63 -56l-83 -41c-34 -8 -66.333 -12.667 -97 -14l-49 1l-79 14l-30 25
c-18 24 -32 47.333 -42 70c-21.333 20 -40 40.667 -56 62l-23 93c12.667 1.33301 19.667 15.333 21 42l-14 20l48 87c15.333 17.333 31.666 29 48.999 35c22.667 22 45.667 40.667 69 56l70 48l76 26l64 51c28.667 13.333 52 29.333 70 48l14 49l-7 56l-56 55l-83 42
c-16 -5.33301 -32.333 -9 -49 -11l25 29l-46 28l-14 -60l-82 -30c-30.667 -14 -49.334 -35 -56.001 -63c2.66699 -53.333 -11.333 -85 -42 -95l-83 1l-83 -7l-14 27l14 70l-7 28l13 76l48 70l63 62l76 42l84 28l83 7l71 -19l17 29l190 -66c24.667 -20 45.667 -40.667 63 -62
c21.333 -20 39.666 -41 54.999 -63l35 -83l14 -84c-10.667 -14 -17.667 -37 -21 -69l7 -14l-14 -49l-42 -83l-48 -45l-58 -42l-41 -7l-77 -29l-81 -29l-39 -24c-17.333 25.333 -37.333 51 -60 77c8.66699 -32 22.667 -61.333 42 -88zM506.004 402.001l119.001 -21.001
c26.667 -14.667 48 -38.334 64 -71.001l-21 -77c12 -13.333 21.333 -29.666 28 -48.999c-14 -8 -30.333 -12.667 -49 -14l-92 -21l-21 7c-31.333 4 -52.333 20.333 -63 49c3.33301 16 5.66602 34.667 6.99902 56c-2 8 -6.66699 15 -14 21l7 28
c0 30.667 11.667 61.334 35 92.001z" />
    <glyph glyph-name="at" unicode="@" 
 />
    <glyph glyph-name="A" unicode="A" horiz-adv-x="1248" 
d="M973 1357l89.9971 -7l90 7l34 -7l-14 -42l14 -103l-7 -14v-14l-7 -20l7 -70l7 -20l-7 -62l21 -76l7 -90l-7 -56l7 -20v-76c-4 -21.333 -11 -44.333 -21 -69l14 -83l-14 -62c4 -24 6.33301 -51.667 7 -83l-7 -69l7 -76l14 -35l-28 -21l-41 -20l-21 13l-83 7
c-26 4 -44.333 20.333 -55 49c-9.33301 14.667 -23.333 23.667 -42 27l-55 -41l-69 -28l-62 7l-62 -34c-21.333 -2 -44.333 -6.66699 -69 -14l-69 21c-23.333 0.666992 -46.666 7.33398 -69.999 20.001l-124 49c-13.333 8.66699 -29.333 13 -48 13l-28 28
c-18 12 -38.667 23.667 -62 35c-8 21.333 -19.667 42 -35 62l-82 110l-28 63c-1.33301 21.333 -6 44.333 -14 69l-21 138l7 20l7 76c4 27.333 11 55 21 83l21 69l34 63l49 131l34 28c6.66699 -4.66699 11.334 -11.667 14.001 -21c16 8 29.667 19.333 41 34l132 56
c21.333 5.33301 44.333 14.333 69 27l138 14l21 -7c22 -0.666992 45 -5.33398 69 -14.001l55 7l14 -7c8.66699 -13.333 13 -29.333 13 -48l42 -21l-21 55c0.666992 6 5.33398 10.667 14.001 14l90 -69c18 -2.66699 36.333 -11.667 55 -27c7.33301 15.333 12 31.333 14 48
l-7 62zM1042 1295v13h-7zM1111 1302c2.66699 -12.667 9.66699 -24.333 21 -35c-4 12 -11 23.667 -21 35zM475.997 1288l-14 -21l34 14zM350.997 1233l-7 -21h14l7 21h-14zM875.997 1226c1.33301 -6 6 -10.668 14 -14.001c-1.33301 4.66699 -6 9.33398 -14 14.001z
M958.997 1212l7 -21v21h-7zM730.997 1184l7 -54.999l7 7l21 -7c-8 19.333 -19.667 37.666 -35 54.999zM1007 1184l-13 -27l27 6zM675.997 1177l-7 -20h14v20h-7zM240.997 1157c4 -9.33301 10.667 -16.333 20 -21c-3.33301 9.33301 -10 16.333 -20 21zM599.997 1122
c-8 -20.667 -19.667 -38.9961 -35 -54.9961l-20 41l-28 -14c-25.333 -4.66699 -53 -13.667 -83 -27c-10.667 -21.333 -26.667 -42 -48 -62l-62 -42l-28 -69l-14 -62c-4.66699 -26 -13.667 -53.667 -27 -83c6 -21.333 15 -44.333 27 -69l21 -55l-14 -21
c6.66699 -13.333 16 -25 28 -35c8.66699 -18.667 13 -39.334 13 -62.001c26 -10 49.333 -26 70 -48c22 -7.33301 45 -19 69 -35l83 -7l-7 63l34 -7c11.333 -22 25.333 -40.667 42 -56l89 -13l76 34c19.333 13.333 35.666 31.666 48.999 54.999l-7 21l7 14l34 7
c1.33301 -4.66699 6 -9.33398 14 -14.001c18.667 9.33301 34.667 23 48 41c8.66699 22.667 20.334 46 35.001 70c12 23.333 21.333 50.666 28 81.999l-14 90c-6 22.667 -15.333 45.667 -28 69l-34 69l-49 63l-62 48c-14 14.667 -32.333 26 -55 34zM841.997 1108v-14h7v14h-7
zM1125 1094c0.666992 -18 5.33301 -36.333 14 -55c-1.33301 18.667 -6 37 -14 55zM861.996 1087c6 -18 17.667 -34 35 -48zM302.996 998.005l-14.001 -21c8.66699 4.66699 13.334 11.667 14.001 21zM108.995 908.005l-6 -21l13 -7zM1014 694.005l14 -21
c-1.33301 9.33301 -6 16.333 -14 21zM1153 694.005l6 -21v21h-6zM1035 673.005c2 -11.333 9 -20.667 21 -28zM1132 438.004c1.33301 -14 6 -27.667 14 -41l7 27c-9.33301 8 -16.333 12.667 -21 14zM495.995 383.004c1.33301 -6 6.00098 -10.667 14.001 -14
c-0.666992 6 -5.33398 10.667 -14.001 14z" />
    <glyph glyph-name="B" unicode="B" horiz-adv-x="1111" 
d="M386 1701l63.9961 -6.99707l19 7l19 -7l58 7c22.667 -6 48.334 -10.333 77.001 -13l57 -32l71 -26l83 -89l39 -58l25 -64l26 -128l-7 -20c2 -19.333 6.33301 -40.666 13 -63.999c-0.666992 -20 -7 -39 -19 -57l-26 -64l-44 -52c11.333 -14.667 26 -27.334 44 -38.001
l52 -39c12.667 -16 25.334 -35 38.001 -57l71 -109l-7 -51l7 -13c1.33301 -22.667 5.33301 -46.334 12 -71.001l13 -19l-19 -45l-13 -13l-38 13l45 -45l-20 -57l-12 -77l-32 -58l-45 -32c-6.66699 -20 -17.334 -41.333 -32.001 -64l-45 -45l-58 -32
c-18.667 -3.33301 -38 -9.66602 -58 -18.999c-20.667 -5.33301 -42 -14 -64 -26l-19 7l-51 -13l-128 19l-20 -6c-21.333 3.33301 -44.666 9.66602 -69.999 18.999l-51 38l-7 45l7 13l6 19l-13 141l45 7l13 -13l58 -32l19 6l96 -19l19 6l77 13l109 77l39 45l25 64
c4.66699 22 13.334 43.333 26.001 64l-84 186l-44 45l-58 38l-51 7l-20 -7h-83v-6l-83 -7l-58 32c-10 20.667 -18.333 44.334 -25 71.001l6 83c2.66699 17.333 11.334 34.333 26.001 51l76 -12c21.333 6.66699 45 10.667 71 12l51 7l13 -7l64 20l32 64l13 64
c-0.666992 19.333 -5 40.666 -13 63.999l-13 58l-38 44l-51 39l-129 13l-12 -7h-20l-115 -64c-16 -9.33301 -28.667 -22 -38 -38l-20 -64l7 -58l-26 -83l19 -58l-6 -83l-26 -32l20 -13l19 -147l-7 -52l7 -13l-7 -19l7 -51l-7 -19c3.33301 -14.667 5.66602 -32 6.99902 -52
l-7 -19l13 -51l-32 -122c12 -16 22.667 -35 32 -57l7 -71l12 -19l-12 -45l-7 -64l7 -19l-20 -122c-18 -12.667 -39.333 -21.334 -64 -26.001l-83 -12l-45 44l7 84l-7 32l7 13v96h-7l7 19c-1.33301 19.333 -5.66602 40.666 -12.999 63.999l6 83l-19 71l13 57l-7 77l7 52
l-7 12l-6 58l6 19l-6 52l6 12l-12 20l12 121l-6 45l6 19l-12 64l6 58l-6 19l12 45l-6 13l-6 19l12 52l7 76l19 71l77 102c17.333 10.667 34.333 23.667 51 39zM590.996 1553c3.33301 -10 11.666 -18.333 24.999 -25c-3.33301 10 -11.666 18.333 -24.999 25zM756.996 1066
l-13 -32l32 20zM840.996 957.003l18.999 -12c-3.33301 6 -9.66602 10 -18.999 12zM115.995 701.003c2 -8 6.33301 -14.333 13 -19zM756.995 330.003c1.33301 -10 5.66699 -18.668 13 -26.001c0 8.66699 -4.33301 17.334 -13 26.001zM750.996 1556l-50 -57l-21 -35l21 7
l78 71zM644.996 1492c-1.33301 6.66699 -6.33301 11.334 -15 14.001c2 -4.66699 7 -9.33398 15 -14.001zM757.996 1414l-7 -21h14v21h-7zM357.996 1658c2 -6 7 -10.667 15 -14c-1.33301 6 -6.33301 10.667 -15 14zM555.996 1074l-34.999 -28l21 -14l28 28
c-0.666992 6 -5.33398 10.667 -14.001 14zM456.997 1601c4 -10 11 -17 21 -21c-2.66699 10 -9.66699 17 -21 21zM506.997 1573l-7 -21h21l21 21h-35zM693.997 1174l7 -21v21h-7zM799.997 1174l14 -28l7 28h-21zM506.997 940.002l-14.001 -21
c8.66699 4.66699 13.334 11.667 14.001 21zM153.996 862.002l-7 -42l14 -14zM160.996 630.002l-11 -64l22 -22l10 11l11 65zM907.996 902.002l-7 -36l21 22zM878.996 796.002v14h-7zM118.996 450.002l10 -34v34h-10zM907.996 697.002l-29 -36c2 -9.33301 7 -16.333 15 -21
c8 16.667 12.667 35.667 14 57zM864.996 428.002c-9.33301 -16 -14 -32.333 -14 -49c8 14.667 12.667 31 14 49zM850.996 372.002l-7 -50c10 9.33301 17 21.333 21 36z" />
    <glyph glyph-name="C" unicode="C" horiz-adv-x="1239" 
d="M630 1361l100.001 -13.9961c33.333 -5.33301 71.333 -15 114 -29c24.667 -17.333 53 -34 85 -50c29.333 -6.66699 46 -25.667 50 -57c-15.333 -6.66699 -29.666 -16 -42.999 -28l50 7c26.667 -6 52.667 -18 78 -36c2 -24 14 -42.667 36 -56l57 -86
c-2.66699 -34.667 -24 -53.667 -64 -57l-50 -21l57 7c26.667 -2 52.667 -6.66699 78 -14l-14 -22l-36 -28l-71 7l-78 -7l-22 36l-21 85c-31.333 6 -57.333 22.667 -78 50c-28 11.333 -42.333 32.666 -43 63.999l-78 -14l-29 7l-163 14l-29 -14l-78 -57
c-25.333 -17.333 -49 -38.666 -71 -63.999c-20 -26 -39 -54.667 -57 -86l-7 -128l-22 -28l43 -157l50 -85l64 -79l64 8c9.33301 -10.667 21.333 -20.334 36 -29.001l106 -7l29 -14l164 50l56 85c20.667 25.333 39.667 53.666 57 84.999c4.66699 32 19 60.667 43 86
c29.333 0 60.333 -7.33301 93 -22l78 29c16 -30.667 27.667 -66.334 35 -107.001c-16.667 -30 -30.667 -63 -42 -99c-7.33301 -30.667 -24 -59.334 -50 -86.001l-135 -149l-185 -86l-50 -7l-21 7h-22l-21 -14c-26.667 11.333 -43.334 32.666 -50.001 63.999
c-20 -27.333 -48.333 -41.666 -85 -42.999l-193 79l-85 64l-71 71c-22.667 18.667 -41.667 44.667 -57 78c-13.333 24.667 -25.333 53.334 -36 86.001l-42 99l-7 64l28 29c-16 24 -27.667 52.333 -35 85c14.667 23.333 26.334 49.333 35.001 78c11.333 28 21 59 29 93
c12.667 29.333 29 60 49 92c17.333 20.667 31.666 47 42.999 79c25.333 17.333 51.333 38.666 78 63.999c23.333 19.333 49.666 36 78.999 50l149 71c12.667 -1.33301 27 -6 43 -14l35 -15zM353.001 1219c-10.667 -11.333 -20.333 -25.667 -29 -43l21 7
c13.333 8.66699 25.333 20.667 36 36h-28zM267.002 1183c-13.333 -17.333 -29.999 -34.001 -49.999 -50.001c0.666992 -13.333 8 -22.666 22 -27.999c15.333 21.333 24.666 47.333 27.999 78zM210.003 1098l-7 -65l14 50zM943.003 1026
c-0.666992 6.66699 -5.33301 11.667 -14 15c2 -5.33301 6.66699 -10.333 14 -15zM281.004 1005l-14 -43l29 29c-1.33301 6 -6.33301 10.667 -15 14zM296.004 984.002l-7 -22l14 7v15h-7zM139.004 799.002h14v14h-7zM160.004 706.002l15 -7v21h-7zM1128 642.002
c1.33301 -6 6.33301 -10.667 15 -14c-1.33301 6 -6.33301 10.667 -15 14zM1029 628.002c0.666992 -11.333 5.33301 -21 14 -29l7 29h-21zM281.003 542.002v-14h8v14h-8zM1107 521.002v14h-7zM1064 486.002c10 -9.33301 22 -14.333 36 -15zM915.003 450.002l-14 -29l28 -7
c-1.33301 12 -6 24 -14 36zM986.003 379.002c4 -12.667 11 -24.667 21 -36c-3.33301 13.333 -10.333 25.333 -21 36zM296.003 315.002c4.66699 -10.667 14 -20.333 28 -29c-6 10 -15.333 19.667 -28 29zM374.003 308.003c3.33301 -10 10.333 -17.333 21 -22
c-4 8.66699 -11 16 -21 22z" />
    <glyph glyph-name="D" unicode="D" horiz-adv-x="1259" 
d="M928 1245l-7 -28.001l21 14c-1.33301 6.66699 -6 11.334 -14 14.001zM1033 1196l-7 -28c0 -22 4.66699 -45.333 14 -70l7 77zM1057 814.999c-2 9.33301 -8.33301 15.667 -19 19c2.66699 -6 9 -12.333 19 -19zM1011 415c3.33301 -17.333 13 -33.333 29 -48
c-2 21.333 -11.667 37.333 -29 48zM731 1133h14v14h-7zM928 1133c3.33301 -8 10.333 -12.667 21 -14zM1066 748v-57l29 47zM808 1091l-7 -21l21 -7c-1.33301 10.667 -6 20 -14 28zM777 278l-10 -38l29 10zM112 935c1.33301 -6 6 -10.668 14 -14.001
c-1.33301 4.66699 -6 9.33398 -14 14.001zM252 899.999h14v14h-7zM196 822.999l-7 -21h14l7 21h-14zM238 751.999l-7 -21h14v21h-7zM133 625.999c-1.33301 6 -6 10.668 -14 14.001c2 -4.66699 6.66699 -9.33398 14 -14.001zM252 605l-35 -14l21 -21h28zM154 549
c4.66699 -10.667 13.999 -20 27.999 -28c-5.33301 10.667 -14.666 20 -27.999 28zM568.999 1624l-20.999 -21.001l35 -14c-0.666992 12.667 -5.33398 24.334 -14.001 35.001zM421 359.999v14h-8zM478 1575c1.33301 -6 6 -10.668 14 -14.001
c-2 4.66699 -6.66699 9.33398 -14 14.001zM308 352.998c-0.666992 6 -5.33301 10.668 -14 14.001c2 -4.66699 6.66699 -9.33398 14 -14.001zM568.001 345.999l-7 -21l14 -7l7 28h-14zM562.001 1540c2 -9.33301 6.66699 -16.333 14 -21c-2 9.33301 -6.66699 16.333 -14 21z
M499.001 1477c2.66699 -10 9.66699 -17 21 -21zM659.001 218.999v-14l14 7zM498.001 1794c29.333 -10.667 60.001 -24.998 92.001 -42.998l106 -71l64 15l198 99l63 -29c16 -24.667 30.333 -53 43 -85l42 -35c-2.66699 -13.333 -9.66699 -25 -21 -35l-78 -50l-127 -56
c4 -14 11 -28.333 21 -43l7 -84c26.667 -2 52.667 -11.667 78 -29c0 -22.667 7 -43.667 21 -63c22 -18.667 43.333 -40 64 -64c15.333 -23.333 27 -49 35 -77l71 -177c3.33301 -26.667 12.666 -55 27.999 -85l14 -99l-7 -78l7 -28l-14 -113
c-6.66699 -31.333 -23 -59.666 -49 -84.999l-99 -155l-64 -64l-85 -42c-27.333 -15.333 -58 -29.333 -92 -42l-99 -29l-77 -7l-113 14l-99 29l-163 99l-63 63l-50 78c-18.667 25.333 -35 53.666 -49 84.999l-36 77l-7 64l7 21l-27 78c4.66699 1.33301 9 6 13 14l21 113
l135 247l155 106l198 57l99 14c19.333 -4 38 -11 56 -21c10.667 0 18 4.66699 22 14l-64 63c-12 25.333 -33.333 39.666 -64 42.999l-91 -43c-28 -10.667 -56.333 -24.667 -85 -42l-99 -35c-16 -4.66699 -35 -7 -57 -7l-14 35c-4 27.333 -11 55.666 -21 84.999l-28 28l7 64
c31.333 8 64.333 19.667 99 35l84 42l22 29l-50 28l-35 14l28 49zM562.002 1066c-17.333 -15.333 -38.667 -29.665 -64 -42.998c-18.667 -8.66699 -37.334 -20.334 -56.001 -35.001l-64 -14c-16 -14 -25.333 -33 -28 -57c-15.333 -14.667 -29.333 -33.334 -42 -56.001
l-15 -21l15 -43l-29 -70c0.666992 -20 5.33398 -41.333 14.001 -64c-9.33301 -10 -21 -17 -35 -21c4 -8.66699 11 -15.667 21 -21c14.667 -14 29 -30.667 43 -50c10.667 -19.333 24.667 -38 42 -56l42 -57l50 -42c17.333 -14 33.666 -30.667 48.999 -50l128 -21l21 7l78 7
l113 71c18 12.667 34.333 29 49 49c16 15.333 30.333 34.333 43 57l28 63l21 78l-7 156c-4 21.333 -11 40 -21 56l-92 99l-57 42c-21.333 4.66699 -44.666 12 -69.999 22zM958.001 917.002v15h-7zM343.001 437.002c0.666992 -6.66699 5.33301 -11.334 14 -14.001
c-1.33301 4.66699 -6 9.33398 -14 14.001zM781 1677l-7 -28l21 7zM900 1586v14h-7zM697 1530c1.33301 -6 6 -10.668 14 -14.001c-1.33301 4.66699 -6 9.33398 -14 14.001zM837 1495h14v14h-7zM781 1418l-7 -21h14l7 21h-14zM823 1347l-7 -21h14v21h-7z" />
    <glyph glyph-name="E" unicode="E" horiz-adv-x="1147" 
d="M634 1355c36 -6.66699 78.332 -11.333 126.999 -14l106 -36l92 -49l148 -134c-18.667 -21.333 -40 -40.333 -64 -57l-77 -63l-43 -22l-35 43c-19.333 12.667 -40.666 22 -63.999 28l-21 -14c-18.667 26 -47 42.333 -85 49c-30.667 14.667 -66 26.667 -106 36l-92 -7l8 28
l-50 -42c-25.333 -14 -51.333 -33 -78 -57c-24.667 -18.667 -48 -42.334 -70 -71.001l-50 -84c6.66699 -28 25.667 -44.667 57 -50l113 14l56 -14l64 7l106 -14l78 7l49 -14l78 7c6.66699 -3.33301 16 -5.66602 28 -6.99902l28 -7l-7 -85
c-2 -30.667 -6.66699 -63.667 -14 -99c-31.333 -13.333 -66.666 -20.333 -105.999 -21l-56 -7l-57 14l-226 -14l-120 7l-14 -7l-36 7v-64c14.667 -26.667 38.334 -50 71.001 -70c18 -24 41.667 -45.333 71 -64l99 -42l106 -7l205 56c25.333 15.333 48.666 39 69.999 71
c31.333 -2 59.666 -16 84.999 -42c22 -23.333 41 -51.666 57 -84.999l-85 7c19.333 -19.333 38 -43 56 -71l-77 -63l-99 -43c-29.333 -7.33301 -62.333 -12 -99 -14l-50 -28c-16 3.33301 -34.667 5.66602 -56 6.99902l-43 7l-14 -7h-35v-7l-7 7l-113 21l-85 50
c-32 6 -55.667 24.667 -71 56l-106 35c-23.333 23.333 -44.333 49.333 -63 78l-43 99c-10 32 -19.333 69.667 -28 113l-7 120l14 106l28 43c-8.66699 6 -15.667 15.333 -21 28c3.33301 34 15 67 35 99l43 92l78 7c2.66699 27.333 12 55.333 28 84l85 57
c22 22 47.667 40.667 77 56l113 29c34.667 2 72.667 9 114 21zM781.999 1136c8 -12 19.667 -21.332 35 -27.999c-8 11.333 -19.667 20.666 -35 27.999zM1015 1122l-6.99902 -21l21 7c-0.666992 6 -5.33398 10.667 -14.001 14zM916 1093v-14l14 7zM160 874.002l7 -35l21 35
l-21 15zM443 790.002v14h-7zM803 804.002c-16.667 -7.33301 -28.333 -14.333 -35 -21c17.333 0.666992 29 7.66699 35 21zM330.001 783.002c-21.333 -4 -42.667 -13.667 -64 -29l42 14c20.667 4 39.667 13.667 57 29h-28zM549 691.002l-36 -43h29l28 7zM690 677.002l-28 -22
l14 -21c6.66699 8.66699 16 15.667 28 21zM132 634.002l-21 -28c11.333 6.66699 18.333 16 21 28zM231 557.002h14v14h-7zM351 408.002l-14 -35l28 21c-1.33301 6 -6 10.667 -14 14zM245 387.002l-7 -21l14 7v14h-7zM429 359.002v-21l21 14zM499 359.002v-43l29 7
c-7.33301 12.667 -17 24.667 -29 36zM959 352.002c2 -14 11.333 -23.667 28 -29zM330 323.002v15h-7zM443 253.002c1.33301 -6 6 -10.667 14 -14c-1.33301 6 -6 10.667 -14 14z" />
    <glyph glyph-name="F" unicode="F" horiz-adv-x="581" 
d="M362 1728l88.999 -6.99805l55 7l14 -7c10.667 -18.667 17.667 -39.334 21 -62.001l-7 -55l7 -75c-21.333 -13.333 -44.333 -22.666 -69 -27.999l-62 -7c-19.333 -6 -37.666 -17.333 -54.999 -34c-18.667 -10.667 -37 -24.334 -55 -41.001l-20 -55l13 -83l48 -27l90 7
c20.667 -2 43.334 -6.66699 68.001 -14l14 -62l-7 -62l7 -20c-2.66699 -16.667 -9.33398 -32.667 -20.001 -48l-35 -28l-20 14c0.666992 18.667 5 37 13 55l-48 -21l-13 -48l27 -7l-55 -13l-41 6c-6.66699 -6 -11.334 -15 -14.001 -27l-7 -21l7 -61l-14 -49l14 -20l7 -69
c-10 -15.333 -17 -33.666 -21 -54.999c10.667 -20 17.667 -43 21 -69l-14 -75c-2.66699 -14.667 -9.33398 -28.334 -20.001 -41.001c0.666992 -4.66699 5 -9.33398 13 -14.001l28 -69l7 -68l-14 -124l7 -21l-28 -48l-27 -14l-13 7h-97l-48 -7l-13 14l-7 -7l-21 28l14 144
l-14 69l7 55l-14 41l7 62l21 62c-3.33301 15.333 -10.333 29 -21 41l-7 75c0.666992 22 5.33398 42.667 14.001 62l-7 62l-20 76l13 75l-20 138l7 13c2 18.667 11 37 27 55c-12 18 -21 38.667 -27 62l6 69l14 41l-20 21l20 75c6 21.333 15.333 42 28 62
c10.667 20 24.334 38.333 41.001 55l48 48l55 34l54 14c22.667 2 45.667 6.66699 69 14zM368.999 1673c6 -9.33301 15 -18.333 27 -27c-3.33301 11.333 -12.333 20.333 -27 27zM114.999 1302l-14 -21l28 14zM258.999 1254c-10.667 -11.333 -19.667 -25 -27 -41
c14 10 23 23.667 27 41zM272.999 1178v14h-7zM265.999 1171l-20 -20l20 14v6zM224.999 1151l-14 -28l35 21zM190.999 1117l-27.999 -42c13.333 10.667 22.666 24.667 27.999 42zM266 1096c4 -8 11 -15 21 -21c-3.33301 10 -10.333 17 -21 21zM122 1062l-21 -42l21 7l28 35
h-28zM108 945.002l7 -21l7 14zM115 450.002l14 -7v21h-7zM108 340.002l14 -34l21 14l20 34h-48zM136 237.002l-14 -27h41zM266 237.002l-7 -20h14v20h-7z" />
    <glyph glyph-name="G" unicode="G" horiz-adv-x="1216" 
d="M558 1356l121.002 -7.00195l78 7l21 -14c30 -14 63 -25.667 99 -35l93 -43l64 -71c-5.33301 -32 -15 -65 -29 -99c-18.667 -25.333 -44.667 -44.333 -78 -57c-30 10 -60.667 24.333 -92 43c-30.667 14.667 -66.334 26.334 -107.001 35.001l-28 21
c-20 -4 -41.333 -11 -64 -21l-64 21l-21 -14l-99 -35l-71 -64c-20.667 -22 -39.667 -48 -57 -78l-50 -85l14 -213l64 -71l50 -85l85 -50l106 -28c35.333 2.66699 73.333 9.66699 114 21c30 6 60.667 15.333 92 28l78 57l57 78l-14 21l-78 -7l-92 15l-15 -15l-127 7
c-19.333 26.667 -36 57.667 -50 93l-7 78l7 28c4.66699 24 21.334 38.333 50.001 43l78 7l28 -7h234l57 7l21 -7h29c30.667 -3.33301 63.667 -10.666 99 -21.999l14 -85l-7 -7l7 -21l8 -99l-8 -71l8 -22v-71l-36 -28l-64 -71
c-22.667 -18.667 -46.334 -42.334 -71.001 -71.001l-78 -57l-177 -78l-107 14l-57 -14l-42 29c-34 0.666992 -67.333 12.334 -100 35.001l-99 36l-149 120c-22.667 17.333 -39.334 41 -50.001 71l-56 64l-15 78l-35 106l21 206l29 107l42 92l142 135l85 49zM560.002 228.998
l-7 26c-8 -8 -12.333 -16.667 -13 -26h20zM595.002 282.998v27h-14l7 -27h7zM924.002 316.998c-8 -4.66699 -12.667 -11.333 -14 -20zM979.002 410.999l53 81l-38 4l-55 -59zM294.002 344.999c9.33301 -12 18.333 -21.333 27 -28c-4 14.667 -13 24 -27 28zM273.002 337.999
l21 7l-14 27l-14 -20zM362.002 351.999h7v14zM766.002 385.999c-7.33301 -4 -12.001 -8.66797 -14.001 -14.001c8.66699 2.66699 13.334 7.33398 14.001 14.001zM1095 426.998c-12 -12 -21 -25.667 -27 -41c12 12 21 25.667 27 41zM198.001 931.998v30l-30 71l-15 -29
l30 -72h15zM486.001 406.998l-28 6.99902l14 -21c7.33301 4.66699 12 9.33398 14 14.001zM177.001 481.997v13l-14 7l7 -20h7zM1156 652.997c-8 -10.667 -12.332 -22.333 -12.999 -35c7.33301 12 11.666 23.667 12.999 35zM190.002 659.998l21 -35.001
c-4 14.667 -11 26.334 -21 35.001zM758.002 1176v58h-38l19 -58h19zM430.002 1152l-13 35v-47c8 2.66699 12.333 6.66699 13 12zM965.002 1187l-28 14l14 -21zM499.002 1249v20l-7 -20h7zM712.002 1304l-48 -7l27 -21c12 8 19 17.333 21 28z" />
    <glyph glyph-name="H" unicode="H" horiz-adv-x="1270" 
d="M209 1694c41.333 -6.66699 74.3379 -26.999 99.0049 -60.999c-9.33301 -16 -14.666 -32.667 -15.999 -50l-2 -57l-8 -14l7 -7l5 -58l-7 -21l-1 -29l-8 -21l-1 -29c11.333 -21.333 20 -45.333 26 -72c13.333 -0.666992 28 3.66602 44 12.999
c39.333 16 84.666 24 135.999 24l80 12c7.33301 -14 18.666 -26.333 33.999 -37l-26 58l29 13c39.333 -3.33301 81.666 -16.666 126.999 -39.999l115 -11l6 -21l203 -136l61 -117c18.667 -30 36.667 -66.333 54 -109c14 -40.667 24.333 -86.334 31 -137.001l-16 -50l14 -22
l8 -194l27 -44c-12 -17.333 -22.333 -38.333 -31 -63l-52 -70l29 6l34 -44l-19 -143l7 -14l-2 -65l-15 -21l-47 -127c-12.667 -33.333 -33 -66 -61 -98c-19.333 -25.333 -46 -41.333 -80 -48c-18.667 -4 -31 -15.667 -37 -35c-2.66699 -33.333 -22.667 -61.333 -60 -84
c-36 -4.66699 -72.333 -17.667 -109 -39c-32 -15.333 -68 -26.333 -108 -33c-34.667 18 -57.667 50 -69 96l11 121l29 7l116 46c30.667 18 62.667 43.333 96 76c16 22.667 31 48.334 45 77.001l-20 36c27.333 30.667 45.333 68.334 54 113.001l9 50c-4 14 -11 28.667 -21 44
l16 21l7 21l-11 94l7 7l-6 21l11 122l-6 29l9 57l-20 51l8 21l-18 115l8 29c-8 37.333 -28.333 71.333 -61 102c-24 24.667 -54 52 -90 82c-30.667 25.333 -68.334 48 -113.001 68l-107 3l-21 8l-124 -46c-30.667 -18.667 -60 -46.334 -88 -83.001
c-16.667 -36 -27.667 -76.333 -33 -121c-2 -40 -8.33301 -85 -19 -135l18 -109l-7 -14c-0.666992 -39.333 2.66602 -84.666 9.99902 -135.999c-6.66699 -21.333 -17 -45 -31 -71c9.33301 -12.667 16 -27.334 20 -44.001c7.33301 -40 10.666 -85.333 9.99902 -136
c-24.667 -34.667 -59 -55 -103 -61l-115 -11l-13 22c7.33301 16.667 17.333 30.667 30 42l-27 65l-2 158l18 114l-28 8l-8 -7l-3 108l30 49l-26 73l12 150l1 258l8 21l-7 8l-6 50l9 50c-0.666992 25.333 -4.66699 51.666 -12 78.999l10 79l-23 166l43 20
c36 13.333 77 24 123 32zM221.005 1621c0.666992 -21.333 7.33301 -43.001 20 -65.001c-2 22.667 -8.66699 44.334 -20 65.001zM197.004 1522l6 -22l8 21zM159.004 1480c-0.666992 6.66699 -4.99902 11.667 -12.999 15c1.33301 -4.66699 5.66602 -9.66699 12.999 -15z
M133.005 1330v-14l14 7zM452.005 1234l-8 -43l29 14c-4 11.333 -11 21 -21 29zM301.005 1210c-16 -19.333 -26.333 -43 -31 -71c16.667 20 27 43.667 31 71zM121.005 1180c0.666992 -12.667 5 -24.667 13 -36l15 28zM204.005 1084l-23.001 -35.001
c10.667 8.66699 18.334 20.334 23.001 35.001zM891.004 1062c1.33301 -9.33301 6 -16.666 14 -21.999c-2 9.33301 -6.66699 16.666 -14 21.999zM946.004 995.999c10.667 -22.667 24.333 -44.667 41 -66c-9.33301 23.333 -23 45.333 -41 66zM1102 939.999l6 -21l1 21h-7z
M1007 871.999c3.33301 -8.66699 10.333 -13.667 21 -15zM1113 824.999c2.66699 -9.33301 9.66699 -14.333 21 -15c-4 7.33301 -11 12.333 -21 15zM236.003 738.999v14l-7 1zM1131 723.999l-8 -28l14 -8l1 29zM243.003 738.999l-15 -21l21 -8zM1127 594.999l-9 -42
c11.333 3.33301 21.333 12.333 30 27zM1116 487.999l6.99902 -13.999l21 6c-1.33301 9.33301 -5.66602 16.666 -12.999 21.999zM119.002 463c1.33301 -6 6 -11 14 -15c-1.33301 5.33301 -6 10.333 -14 15zM232.002 417c2 -11.333 6.66797 -21.333 14.001 -30
c-0.666992 11.333 -5.33398 21.333 -14.001 30zM1151 243l-8 -28l22 13c-1.33301 5.33301 -6 10.333 -14 15zM971.003 228c2 -11.333 6.66699 -21.333 14 -30c-2 11.333 -6.66699 21.333 -14 30zM40.0029 236c7.33301 -14.667 11.667 -33.667 13 -57
c-6.66699 16.667 -11 35.667 -13 57zM991.004 162v15h-7zM995.004 -138l-22 -7l14 -29l15 21v14zM812.004 -261l-15 -29l28 -15l15 21z" />
    <glyph glyph-name="I" unicode="I" horiz-adv-x="332" 
d="M229 1344c21.333 -38.667 35.332 -83.332 41.999 -133.999c0.666992 -24.667 5.33398 -50.334 14.001 -77.001l-14 -28l21 -50c-10 -2.66699 -17 -9.66699 -21 -21l21 -112c-4 -6.66699 -6.33301 -16 -7 -28l7 -78l-7 -28l-7 -14l7 -7l-21 -260l-21 7l-71 -14l-77 7
c-20.667 0 -32.334 16.333 -35.001 49l-14 106l7 21l1 440l-14 70l7 77c14.667 38 35.334 58 62.001 60l106 -7zM206.999 767.002l8 -35l7 28zM214.999 697.002l-8 -35h15v7zM87.999 402.002l119.001 -21.001c26.667 -14.667 48 -38.334 64 -71.001l-21 -77
c12 -13.333 21.333 -29.666 28 -48.999c-14 -8 -30.333 -12.667 -49 -14l-92 -21l-21 7c-31.333 4 -52.333 20.333 -63 49c3.33301 16 5.66602 34.667 6.99902 56c-2 8 -6.66699 15 -14 21l7 28c0 30.667 11.667 61.334 35 92.001zM172 331.001
c1.33301 -6 6.00098 -10.668 14.001 -14.001c-0.666992 6.66699 -5.33398 11.334 -14.001 14.001z" />
    <glyph glyph-name="J" unicode="J" horiz-adv-x="557" 
d="M426 1376c16 -10 28.9971 -25.6641 38.9971 -46.9971c11.333 -12.667 19.666 -28.334 24.999 -47.001l5 -53l-7 -32l12 -14l-7 -13l-7 -46l12 -20l-14 -39c1.33301 -4 5.66602 -8.33301 12.999 -13c-4 -34.667 -11.667 -74 -23 -118l25 -53l5 -73l-14 -45l6 -20l5 -66
c5.33301 -14.667 9.33301 -32.334 12 -53.001l-22 -59l13 -13l-23 -144c10.667 -18 19 -38 25 -60l11 -73c-8.66699 -10 -13.334 -23 -14.001 -39c2.66699 -14.667 4.33398 -32.334 5.00098 -53.001l-7 -19l-9 -79l-7 -19c2.66699 -15.333 4.33398 -33 5.00098 -53
c-19.333 -34 -35.666 -73 -48.999 -117l-40 -45l-28 -52c-29.333 -19.333 -60.666 -44.666 -93.999 -75.999l-113 -50c-14 -4 -27.333 -10.333 -40 -19c-24 4.66699 -48 12 -72 22c-5.33301 23.333 -8.66602 49.666 -9.99902 78.999l8 59l-12 46l60 51l53 19
c14.667 9.33301 28 22 40 38c30.667 21.333 55.667 51.333 75 90l23 137c-6.66699 44.667 -9.66699 95.334 -9 152.001l8 66l-5 59l8 65l-12 20l20 20l-19 40l-5 46l7 19l-12 60l9 72l-16 152c4.66699 35.333 20.334 56.666 47.001 63.999l-45 41l8 59l-11 66l15 65l-12 40
l13 13c4.66699 15.333 13.667 30.333 27 45l27 -7l66 11h13zM378.997 1311l-14.001 -26.001c8.66699 6.66699 13.334 15.334 14.001 26.001zM297.996 1248c3.33301 -9.33301 9.66699 -18.333 19 -27c-2 10.667 -8.33301 19.667 -19 27zM438.997 856.002l5 -99l13 6
c-2.66699 30 -8.66699 61 -18 93zM323.997 727.002c1.33301 -5.33301 5.66699 -9.66699 13 -13c-0.666992 6 -5 10.333 -13 13zM322.998 681.001l1 13l-7 1zM329.998 438.001l6 -20l1 20h-7zM433.998 383.001v13h-6zM393.998 344.001c0.666992 -10 4.66699 -18.667 12 -26z
M418.998 41.001c2.66699 -9.33301 8.99902 -18.333 18.999 -27c-1.33301 11.333 -7.66602 20.333 -18.999 27zM137.997 -148.999v13l-7 1zM321.997 -146.999l-7 -32l19 -1c-0.666992 12 -4.66699 23 -12 33zM260.997 -210.999c-7.33301 -6.66699 -12 -15.332 -14 -25.999
l27 13c-0.666992 5.33301 -5 9.66602 -13 12.999z" />
    <glyph glyph-name="K" unicode="K" horiz-adv-x="1027" 
d="M149 1685l117.999 -16.998l28 -35l-18 -203h7l-10 -119l5 -98l-7 -20l12 -106l-7 -20l11 -113l-8 -62c0 -12.667 4.66699 -20 14 -22l336 378l78 62l70 6l21 -8h28l98 12l42 -8c-6 -22 -16 -45.333 -30 -70l-78 -61l-69 8l-8 -41c8.66699 -16 15.334 -35 20.001 -57
l-49 -6c-21.333 -20.667 -38.333 -48.334 -51 -83.001c-16 -22.667 -35 -45.667 -57 -69l-65 -82l-71 -62l-22 -27c17.333 -14 33.333 -30.667 48 -50l69 -72l61 -85l137 -143c20.667 -22.667 34.334 -50.667 41.001 -84c26 -14 51 -33.333 75 -58l69 -71l-85 -47l-77 15
l-21 -13l-56 -6l-55 29l-329 377c-12.667 26.667 -35.667 41 -69 43l14 -42l-15 -21c-14 3.33301 -27.667 10.666 -41 21.999l-15 -21l20 -35l22 21l26 -99l-1 -56l7 -14l-8 -7l-7 -21l14 -7l19 -112c-18.667 -28.667 -47.334 -49 -86.001 -61l-97 8l-22 -13l-55 15l-7 28
l9 63l-14 42c5.33301 33.333 8.66602 70.666 9.99902 111.999l21 34c-10 16 -19 35 -27 57l-5 63l8 49l-12 119l8 35c-8 9.33301 -10.333 21 -7 35l-3 175l8 42l-7 35h-7l8 42l-5 77l7 28l57 41c-26 4.66699 -44.333 21.334 -55 50.001l-17 224l8 21l-5 105l14 21
c30.667 7.33301 61.334 18.333 92.001 33zM111.999 1567l-8 -21l14 6l1 14zM177.999 1397v-14l14 7zM85.999 1336c7.33301 -8.66699 16.667 -13.333 28 -14zM99 1280v-14l14 7zM861 1251v14h-7zM735 1246l-8 -55.001l6 -15l15 56c-0.666992 6.66699 -5 11.334 -13 14.001z
M104 1161c1.33301 -13.333 5.66699 -27.333 13 -42l14 20zM733.001 1135l6 -22l1 21zM207.001 1089c2.66699 -13.333 9.33301 -25.333 20 -36c-1.33301 13.333 -8 25.333 -20 36zM780 1071c-1.33301 -8.66699 -6 -15.667 -14 -21zM471 986.002l-22 -35
c12 8 19.333 19.667 22 35zM204 949.002h14l1 14h-7zM217 886.002l-15 -35l21 -7l1 35zM278 787.002c1.33301 -6.66699 6 -11.667 14 -15c-1.33301 4.66699 -6 9.66699 -14 15zM430 707.002c6 -10.667 15.332 -20.334 27.999 -29.001
c-5.33301 10.667 -14.666 20.334 -27.999 29.001zM94.999 706.002c4 -9.33301 10.667 -16.333 20 -21zM296.999 688.002c3.33301 -8.66699 10.333 -13.333 21 -14zM366.999 687.003l-21 -21l13 -14l29 21zM107.999 650.003l-1 -14l14 7zM248.999 367.003l-15 -68.999
c10.667 -4.66699 19.667 -14.334 27 -29.001l14 21l-13 56zM121.999 328.004l-8 -56l14 7l15 41zM259.999 227.004c-10 -8.66699 -17.333 -20 -22 -34c12.667 6.66699 20 18 22 34z" />
    <glyph glyph-name="L" unicode="L" horiz-adv-x="366" 
d="M176 1739c42.667 -4.66699 85.6689 -16.332 129.002 -34.999l-13 -177l13 -20l-7 -21l-13 -20c5.33301 -36 16.666 -72.333 33.999 -109c-12.667 -32.667 -21.667 -71.334 -27 -116.001l13 -102l-7 -20l7 -62l-13 -20h-68c28.667 -10 49 -28.333 61 -55l27 -20l-20 -68
l13 -82l-34 -21c19.333 -32.667 33 -71 41 -115l7 -62l-7 -47l7 -21l-27 -20l27 -68l-7 -103l14 -88l-28 -34c-3.33301 -19.333 -12.333 -37.666 -27 -54.999l14 21l-14 7l-115 6l-68 14l-14 20l7 109l-14 137l7 116l-7 95l7 20c-8.66699 46 -13.334 96 -14.001 150l-6 143
l6 130c0 44 -4.33301 91.667 -13 143l7 143l54 68c13.333 -6.66699 29.333 -13.334 48 -20.001l-28 27l-20 13c-15.333 -4 -33.333 -6 -54 -6l-14 41l14 20l-14 82l20 47c31.333 14 70 25.667 116 35zM94.002 1589l-5.99902 -28.001l6 -13l14 -7l27 7
c-10.667 14.667 -24.334 28.334 -41.001 41.001zM101.003 1125c2.66699 -10 9.66699 -19 21 -27c-2 10.667 -9 19.667 -21 27zM210.003 751.001c9.33301 -15.333 23 -29 41 -41c-8 16 -21.667 29.667 -41 41zM196.003 444.001v14h-6zM115.003 355.001l7 -20l6 14z
M237.003 342.001l21 -7l6 20h-13z" />
    <glyph glyph-name="M" unicode="M" horiz-adv-x="2236" 
d="M568 1341l56.0068 -15.002l22 15l232 -43l71 -35c22.667 -4.66699 43.667 -14 63 -28l78 -28c11.333 -17.333 20.666 -38.666 27.999 -63.999c7.33301 -8.66699 16.666 -13.334 27.999 -14.001l56 49l71 36c21.333 12.667 44.666 22 69.999 28l78 35l70 14l57 21l21 -14
l56 7l21 -7l177 -14c22 -12.667 47.667 -22 77 -28l57 -42c16 -16.667 30 -38 42 -64c22.667 -6.66699 46 -18.334 70 -35.001l43 -63l49 -134l14 -64l-7 -21l-42 -28h28l7 -56l-28 -36c20 -12.667 38.667 -29 56 -49v-92l7 -42l-14 -14l7 -14l-7 -85l-14 -49l21 -21l-7 -85
l-21 -42c-10 4 -19.333 11 -28 21l7 43l-21 -29l-7 -63l21 -14l-7 -42l-50 7l-21 14l-56 -14c-22 8.66699 -43.333 22.667 -64 42l22 56l-22 71l7 98l-7 36l7 7v28h-7l7 7l-7 169l7 21l-14 92c-3.33301 22 -10.333 45.333 -21 70l-21 85c-14.667 16 -28.667 34.667 -42 56
c-22 11.333 -43.333 25.333 -64 42c-12.667 14.667 -29 29 -49 43l-77 21l-64 -7l-21 14c-20 -3.33301 -41 -10.333 -63 -21c-23.333 -10.667 -49.333 -17.667 -78 -21l-35 21l-14 -35l-92 -113l-35 -71c-16 -10 -30.333 -24 -43 -42c9.33301 -18.667 16.666 -42 21.999 -70
l-7 -43l7 -14l-7 -14l7 -7l7 -21l-14 -14l7 -42l-7 -57l7 -21l14 -77l-7 -78c3.33301 -16 5.66602 -34.667 6.99902 -56l-7 -14v-22l7 -63l-21 -14l-78 -14c-18.667 -7.33301 -39.667 -12 -63 -14c-25.333 1.33301 -51.333 6 -78 14c-10 23.333 -17 49 -21 77l-7 21l7 50
v120l-7 63l14 21v92l-7 56l7 21l-7 57l7 21l-14 56l7 21l-28 78l-43 63l-56 50c-15.333 14.667 -34 28.667 -56 42l-85 21l-84 7c-22 -4 -43.333 -11 -64 -21c-20.667 8 -44 15 -70 21l-50 -56c-22 -11.333 -43 -25.666 -63 -42.999l-50 -49l-42 -63l-14 -78l7 -92l-7 -56
l7 -21l7 -141l-7 -14l7 -7l-14 -85l14 -42l-21 -14c11.333 -25.333 20.666 -53.666 27.999 -84.999l-7 -49l7 -21v-21l-84 -21l-64 14l-21 -7c-21.333 10.667 -40 27 -56 49c13.333 11.333 20.333 25.333 21 42l-21 14l-7 29l14 28c5.33301 18.667 19.333 28 42 28
c-5.33301 21.333 -17 35.333 -35 42l-14 71l-14 183c8 25.333 15 53.333 21 84l-28 78l14 141l-14 21l14 92l-21 70l-7 64l7 21c0 22 4.66699 45.333 14 70l77 28l78 -14l42 7c-0.666992 -15.333 -5.33398 -31.666 -14.001 -48.999l42 -49l57 49zM646.007 1277l14 -7l7 14
l-14 7zM1534.01 1263c3.33301 -10 10.333 -19.333 21 -28c0 12.667 -7 22 -21 28zM1809.01 1228l-7 -28l14 7v21h-7zM1280.01 1200c1.33301 -23.333 6 -47.001 14 -71.001l14 57c-6.66699 6.66699 -16 11.334 -28 14.001zM1935.01 1136v14h-7zM780.007 1143
c0 -9.33301 4.66699 -16.333 14 -21zM1766.01 1129l-14 -28l50 -14zM2020.01 1059v14h-7zM1061.01 1009v14h-7zM2091.01 945.997v14h-8zM103.007 945.997l-7 -21l14 -7l14 28h-21zM1005.01 924.997l7 -7l14 7v14h-7zM1942.01 910.997l-7 -21h15v21h-8zM1054.01 860.997
c-2.66699 -16.667 -12 -33.001 -28 -49.001c8 -21.333 12.667 -44.666 14 -69.999l14 42c4 16 6.33301 34.667 7 56v21h-7zM131.007 719.996v15h-7zM96.0068 719.996l21 -14c-4 7.33301 -11 12 -21 14zM2105.01 508.996l14 -7v21h-7zM2126.01 367.996l7 -21l7 21h-14z
M1985.01 290.996c1.33301 -6.66699 6 -11.333 14 -14c-1.33301 6 -6 10.667 -14 14zM1174.01 233.997v-14l14 7zM223.007 226.997l28 -21c-6 10.667 -15.333 17.667 -28 21z" />
    <glyph glyph-name="N" unicode="N" horiz-adv-x="1202" 
d="M937 1334l28.9971 -8l79 4l20 -15l72 12l13 -37l-8 -28l5 -72l-8 -21l-25 -99l6 -22l-7 -14l5 -36l7 -14l-8 -21l21 -16l-16 -42l21 -29l-8 -21l-12 -115l13 -43c-4.66699 -0.666992 -9.66699 -5.33398 -15 -14.001c-16 4.66699 -32.333 12.667 -49 24l-9 -43l7 -15
c10.667 10.667 23 17.667 37 21c-4 -12.667 -11.667 -24.334 -23 -35.001c16.667 -4 33 -12 49 -24l-9 -57l14 -14l-8 -22l-1 -28l-9 -28l12 -80c6 -36.667 9.33301 -79.667 10 -129l-3 -64l-15 -14l15 -7l-43 1c-39.333 -1.33301 -82.666 -7 -129.999 -17l-79 -11l-20 36
c-24.667 23.333 -47.334 53 -68.001 89l-214 236l-61 88l-144 163l-61 88l-35 30l18 -280l-8 -21l7 -29l-10 -78l-8 -21c8 -34.667 13.667 -75.667 17 -123c-0.666992 -37.333 5 -75.666 17 -114.999l-30 -27l-21 -7l-57 10c-25.333 -6 -54 -10 -86 -12l-7 29l-43 -20
l-12 65l11 114l-20 237l3 86l-5 57l10 64l-7 22l-1 157c2 11.333 7 23.333 15 36l-20 29l8 21c-3.33301 24.667 -4.66602 53.334 -3.99902 86.001l29 13l-35 16l-5 72l8 21l30 35c-12 4.66699 -19 12 -21 22l65 12l71 -3c32 -8.66699 65.333 -14.667 100 -18
c24 -15.333 44.667 -39.666 62 -72.999l-23 -43c10 -13.333 23.667 -25.666 41 -36.999c40.667 -2.66699 61.334 -24.667 62.001 -66l-43 -13l70 -31c33.333 -8 61.333 -25.667 84 -53l54 -95l-39 -85l59 41l35 -23c15.333 -26 28.666 -55 39.999 -87
c29.333 -18.667 59.333 -41.334 90 -68.001l76 -74c14 -21.333 32.667 -36.333 56 -45c-9.33301 33.333 -15 71.666 -17 114.999c9.33301 23.333 24.333 44.333 45 63l-21 22c-17.333 34.667 -27.666 73.334 -30.999 116.001l15 28l-19 65l1 28l8 29l-5 72l-6 14l8 28l-5 72
l-6 22c12.667 31.333 30.334 61.666 53.001 90.999zM336.997 1148l21 -8l1 22h-7zM950.997 1119l13 -29l8 28zM961.997 1025c-0.666992 6.66699 -5.33301 11.667 -14 15c2 -4.66699 6.66699 -9.66699 14 -15zM327.998 912h15v14h-7zM382.998 853
c1.33301 -6.66699 6.00098 -11.667 14.001 -15c-0.666992 6.66699 -5.33398 11.667 -14.001 15zM95.999 813l5 -43l58 5zM629.999 758l1 15h-7zM571.999 717c-18.667 -9.33301 -31.333 -23.001 -38 -41.001c16 10.667 28.667 24.334 38 41.001zM692 691.999l7 -22l7 14z
M1148 631.999c6.66699 -4.66699 11.333 -12 14 -22zM588.999 609.999l1 14h-7zM788.999 580.999v14h-7zM1051 527.999l7 -21l1 21h-8zM636.999 535.999c2.66699 -10 9.33301 -17.333 20 -22l15 21zM835.998 514.999v-15l14 7zM899.998 490.999l-22 -14l20 -43l8 42l1 15h-7z
M217.998 443.999c1.33301 -6 6.00098 -11 14.001 -15c-0.666992 6.66699 -5.33398 11.667 -14.001 15zM230.999 400.999l-15 -36l6 -14l23 35zM94.999 383.999l21 -15c-4 7.33301 -11 12.333 -21 15zM799.999 293.999l-1 -14l15 7zM1056 270.999l-21.999 -14
c2.66699 -12.667 9.66699 -24.667 21 -36l15 35c-0.666992 6.66699 -5.33398 11.667 -14.001 15zM139 231.999c4 -9.33301 11 -16.667 21 -22l15 21z" />
    <glyph glyph-name="O" unicode="O" horiz-adv-x="1268" 
d="M666 1353l42.001 -20.999l14 21c20.667 -10 39.667 -24 57 -42l49 21l63 -21l63 -35c16.667 -14.667 35.667 -28.667 57 -42l13 22c15.333 15.333 29.333 34.333 42 57l43 7l14 -7l7 -29l56 -35c18 -12 32 -28.333 42 -49c-10.667 -20.667 -24.667 -39.334 -42 -56.001
l-6 -30c-18.667 -12.667 -40 -24.334 -64 -35.001l35 -63l43 -141c7.33301 -19.333 12 -40.333 14 -63c-13.333 -14.667 -30 -24 -50 -28c5.33301 -9.33301 12.666 -14 21.999 -14l28 -78l-36 -161l-49 -50l-21 -63c-15.333 -15.333 -29.333 -34 -42 -56
c-9.33301 -22 -23.333 -40.667 -42 -56l-64 -36c-13.333 -16.667 -32 -30.667 -56 -42l-134 -63l-56 7l-21 -14l-91 7c-16.667 -3.33301 -35.667 -5.66602 -57 -6.99902l-21 14l-133 63c-20.667 -2.66699 -42 -9.66699 -64 -21l-42 -56
c-18.667 -12.667 -39.667 -19.667 -63 -21l-64 35c-16.667 15.333 -33 34 -49 56l-28 7c6.66699 13.333 16 25 28 35l42 57l29 28l-14 21l-22 77c-12 14 -21.333 32.667 -28 56l-21 15l14 49c-17.333 10.667 -31.333 27 -42 49l-21 127l7 14l7 21l-7 63l14 70l28 71
c22.667 4 36.667 18 42 42l14 70l43 57l56 42l49 49c22 9.33301 40.667 23.333 56 42l43 14l21 -21l42 42l70 14l43 -21l21 14zM413.001 1276l28 -7l7 7h-35zM779.001 1262l105 -21c-33.333 10 -68.333 17 -105 21zM849.001 1185l77 -35c-21.333 14 -47 25.667 -77 35z
M659.001 1128l-63.0029 -14l-71 7l-98 -56c-31.333 -14 -59.666 -35 -84.999 -63c-21.333 -30.667 -37.666 -66 -48.999 -106l-42 -98c0.666992 -30 7.66699 -63 21 -99l42 -112c28.667 1.33301 59.334 8.33301 92.001 21l-21 35c21.333 11.333 42.333 25.333 63 42l148 148
l91 63l49 85c24 23.333 52.333 46.666 85 69.999c-7.33301 26.667 -26.333 45.334 -57 56.001zM320.998 1058c4 -10 11 -17 21 -21l7 21h-28zM1004 995.001v14h-7zM236.998 960.001l-7 -50c10.667 8 20 20 28 36zM904.998 924.001l-7 -21l14 7v14h-7zM960.998 889.001
l-76.999 -49c-14.667 -26.667 -33.334 -54.667 -56.001 -84l-64 -71l-77 -63l-56 -84l-141 -134l169 -28l21 14l21 -7l85 35c28 14.667 56 33.334 84 56.001l63 71c22 21.333 41 47 57 77l7 77l-7 21l28 22l-21 56c-8 31.333 -20 61.666 -36 90.999zM60.999 777.001l14 -21
c-1.33301 9.33301 -6 16.333 -14 21zM208.999 777.001c4 -6.66699 11 -11.333 21 -14zM616.999 749.002v14h-7zM588.999 749.002c-8 -11.333 -12.667 -25.667 -14 -43c8 12 12.667 26.333 14 43zM630.999 735.001l14 -7v21h-7zM1102 545.001l-7 -36l14 8zM384.999 531.001
l-7 -22h14l7 22h-14zM503.999 509.001l-6.99902 -28.001l21 14c-0.666992 6.66699 -5.33398 11.334 -14.001 14.001zM1025 425c7.33301 -8 16.667 -12.667 28 -14zM842.001 390l21 -14.001c-4 6.66699 -11 11.334 -21 14.001zM476.001 347.999
c34 -12.667 71.667 -19.667 113 -21c-33.333 10.667 -71 17.667 -113 21z" />
    <glyph glyph-name="P" unicode="P" horiz-adv-x="1235" 
d="M516 1344l84.002 0.00390625l21 -7l7 7l21 -7c36 -2.66699 75.667 -9.66699 119 -21c37.333 -7.33301 74.666 -21.333 111.999 -42c29.333 -19.333 64.333 -33.333 105 -42l77 -77l56 -98c16.667 -28 30.667 -63 42 -105l35 -91l-7 -133l-35 -28l28 -14l-14 -35l-21 -21
l14 -91l-42 -105l-147 -161l-98 -56c-30 -15.333 -65 -29.333 -105 -42c-22 3.33301 -45.333 10.333 -70 21c-13.333 -4.66699 -27.333 -11.667 -42 -21l-42 7l-14 -14l-56 21l-35 -21l-175 70l-56 56l28 -91l-7 -42l14 -14c-9.33301 -30.667 -14 -63.334 -14 -98.001
l35 -119c-30 -18.667 -65 -30.334 -105 -35.001l-105 -7c-21.333 12.667 -42.333 29 -63 49l-7 98l7 21l-7 147l-7 35l7 7v98l7 28l-7 77l-7 21l7 28l-7 70l21 21l-21 91l21 14l63 -14l168 7l21 -105c12 -29.333 33 -55 63 -77l203 -98l28 -7l77 7l112 42
c25.333 19.333 51 42.666 77 69.999c16.667 30 40 58 70 84c-4.66699 15.333 -7 34 -7 56c12 8.66699 23.667 20.334 35 35.001c11.333 18 18.333 39 21 63l-77 224l-77 77l-196 77l-56 14l-56 -21c-38.667 -2 -76 -13.667 -112 -35l-84 -70l-28 -35l7 -21
c-3.33301 -16 -5.66602 -34.667 -6.99902 -56c-12 -34.667 -37.667 -60.334 -77 -77.001l-77 7l-28 -7l-35 7l-14 -7l-14 -21l-28 35l7 98l35 119l63 84c28.667 10 49.667 26.333 63 49c23.333 22.667 53.666 43.667 90.999 63c29.333 17.333 64.333 33.666 105 48.999
c33.333 5.33301 70.666 17 111.999 35zM586.002 1302c6 -15.333 15.332 -31.667 27.999 -49c-5.33301 16.667 -14.666 33 -27.999 49zM684.001 1288v14h-7zM369.001 1246c5.33301 -16.667 14.666 -30.667 27.999 -42c-3.33301 15.333 -12.666 29.333 -27.999 42z
M306.001 1204c1.33301 -6 6 -10.667 14 -14c-1.33301 6 -6 10.667 -14 14zM908.001 1190v14h-7zM621.001 1190c1.33301 -6 6 -10.667 14 -14c-1.33301 6 -6 10.667 -14 14zM964.001 1155c1.33301 -6 6 -10.667 14 -14c-1.33301 6 -6 10.667 -14 14zM180.001 1127l14 -28
c-2 10.667 -6.66699 20 -14 28zM222.001 1036c2.66699 -23.333 11.999 -44.333 27.999 -63c-3.33301 22 -12.666 43 -27.999 63zM103 980.003l-7 -42l21 -7l7 42zM201 931.003c3.33301 -14.667 10.333 -28.667 21 -42c-2.66699 16 -9.66699 30 -21 42zM1132 756.003l14 -21
c-2 9.33301 -6.66699 16.333 -14 21zM75 707.003l35 -14.001c-13.333 0.666992 -25 5.33398 -35 14.001zM1097 672.002v-14h7v14h-7zM1104 574.002l14 -35l7 21zM159 539.002v-14h7v14h-7zM173 504.002h14v14h-7zM943 504.002h14v14h-7zM1062 490.002l21 -27.999
c-2.66699 11.333 -9.66699 20.666 -21 27.999zM845 413.003l-7 -21h14l7 14zM586 364.003c12 -12.667 28.333 -19.667 49 -21zM432 357.003c1.33301 -16.667 8.33301 -30.667 21 -42zM348 315.003v-14h7v14h-7zM124 161.003c1.33301 -6 6 -10.668 14 -14.001
c-2 4.66699 -6.66699 9.33398 -14 14.001zM222 0.00195312l21 -14l14 7z" />
    <glyph glyph-name="Q" unicode="Q" horiz-adv-x="1236" 
d="M1072 1334l89.002 -19c11.333 -14.667 19.666 -33.334 24.999 -56.001l-11 -69l18 -42l-15 -27l18 -49l-22 -13l13 -21l-23 -34l18 -56l-19 -82l11 -62c2.66699 -25.333 3.33398 -53 2.00098 -83l-15 -20l18 -43l3 -69l-8 -20l13 -139l-8 -20l4 -49l-7 -13l-15 -13l4 -56
c-10 -16.667 -15.667 -34.667 -17 -54c9.33301 -20.667 15 -44 17 -70c0 -28 2.66699 -58 8 -90c-7.33301 -23.333 -13.333 -50.666 -18 -81.999c5.33301 -22 8.66602 -47.333 9.99902 -76l-77 -10l-20 9l-56 -11c-24 6 -48.667 16.667 -74 32
c-14.667 15.333 -25 34.333 -31 57l4 75h-7l22 27c-4.66699 16 -8.33398 34.333 -11.001 55l-2 77c-17.333 -3.33301 -34 -9.33301 -50 -18l-154 -40l-55 -4l-20 15l-83 -2l-54 17l-15 -13c-22.667 8 -45 20.667 -67 38l-53 31c-24 8 -46.333 20.667 -67 38l-53 44
c-14 18.667 -33.667 33.667 -59 45l-46 58l-23 70c-12 20.667 -27 40 -45 58l-4 63l-23 77l-2 90l10 54l-5 21l17 68l56 135l89 113l58 38c19.333 11.333 38.333 26.333 57 45l142 54l152 12l20 -15l62 4l21 -8c22.667 -3.33301 45 -11.666 67 -24.999l63 4l20 -8
c16.667 -14.667 36.667 -27.334 60 -38.001l28 12l-18 36c9.33301 18 24 33 44 45l89 -5v7zM1049 1287c0.666992 -6 5 -10.667 13 -14c-0.666992 6 -5 10.667 -13 14zM805.002 1239l-23.001 -27c12.667 6 20.334 15 23.001 27zM708.001 1237l-15 -26.001
c8.66699 6.66699 13.667 15.334 15 26.001zM865.001 1208l-15 -20.001c8.66699 4.66699 13.667 11.334 15 20.001zM932.001 1163c0.666992 -6 4.99902 -11 12.999 -15c-1.33301 4.66699 -5.66602 9.66699 -12.999 15zM319 1190l-23 -33c13.333 7.33301 21 18.333 23 33z
M309 1136l-1 -14l7 -1v14zM384 1131c9.33301 -16 22.667 -28 40 -36zM686.001 1120c-19.333 -10 -42 -18.667 -68 -26l-82 -3l-51 18l-15 -7l-55 -41l-47 -57l-34 -65l-62 -190l21 -16l4 -60l-9 -22c6 -20.667 14.667 -43.334 26 -68.001l83 -109
c20.667 -9.33301 39.667 -22.666 57 -39.999l51 -18l23 6l58 -33l23 14l51 -18c24 4 46.667 12.667 68 26l68 19l69 33l47 42l33 72l11 52l23 13l-20 39l10 51l-7 15l-13 157c-10.667 18 -24.667 36 -42 54c-9.33301 20.667 -23 39 -41 55l-42 54l-65 34zM1137 1006l1 14h-7
zM304.001 1060l-7.99902 -27l6 -8c13.333 7.33301 25.666 18.333 36.999 33zM151.002 1027c4.66699 -7.33301 11 -12.333 19 -15zM197.002 989.998c1.33301 -13.333 10 -23.001 26 -29.001c-4 10.667 -12.667 20.334 -26 29.001zM158.002 908.997l26 -22
c-5.33301 10.667 -14 18 -26 22zM114.002 738.997v14h-6zM195.002 706.997c-17.333 -26.667 -28.332 -58.333 -32.999 -95l44 46c-0.666992 16.667 -4.33398 33 -11.001 49zM117.003 669.998l13 -1l1 14h-7zM1114 599.998l-18 -75l33 -23l8 21l-11 49l8 20zM929.003 499.998
l-9 -34l14 6zM312.003 464.998l20 -14.001c-3.33301 6.66699 -10 11.334 -20 14.001zM806.003 395.997c-8.66699 -6 -14.001 -14.667 -16.001 -26l35 11c-3.33301 7.33301 -9.66602 12.333 -18.999 15zM227.002 414.997l47.001 -23c-12.667 9.33301 -28.334 17 -47.001 23z
M884.003 315.997l-64 -38c-12 -8.66699 -19.667 -19.667 -23 -33l57 38c13.333 7.33301 23.333 18.333 30 33zM421.003 313.997c14 -8 30 -13.333 48 -16zM1103 40.9971l14 -1l1 14l-7 1z" />
    <glyph glyph-name="R" unicode="R" horiz-adv-x="1003" 
d="M289 1352c24 -4.66699 51.999 -7.00195 83.999 -7.00195l90 -7l55 7l21 -7l77 7l90 -14l69 -35l56 -41c20 -11.333 38.333 -25.333 55 -42c14.667 -10 26.334 -24 35.001 -42l42 -118l-7 -21l7 -69l-21 -63l7 -13v-21c-7.33301 -23.333 -19 -44.333 -35 -63
c-4 -21.333 -11 -44.333 -21 -69c-12.667 -17.333 -28.667 -33.666 -48 -48.999c-15.333 -7.33301 -29.333 -18.666 -42 -33.999l-62 -21l-91 -7c4.66699 -22.667 11.667 -46 21 -70l139 -159l35 -63c16.667 -15.333 32.667 -33.666 48 -54.999l49 -49l14 -42l-28 -20l-83 7
l-56 -7l-21 13l-76 -27l-49 55l-14 49l28 7c-17.333 10.667 -35.666 17.667 -54.999 21l-49 48c-8.66699 21.333 -20.334 44.666 -35.001 69.999c-11.333 18 -27.333 34 -48 48l-28 56c-18.667 14 -34.667 32.333 -48 55l-42 21l-21 -14l-35 7l7 -35l-7 -6l7 -77l-14 -90
l14 -49l-14 -20l7 -49l-7 -14l-6 -21l-70 -35h-97c-16.667 16.667 -30.667 37.667 -42 63l-7 21l7 55l-14 271l14 49v14h-7l-27 173l13 49l-6 62v28l-7 7l7 14v34l34 28l-21 14l-20 83l7 49l-7 35c4 22 10.667 45 20 69c24 10 52 17 84 21l76 7c22 6 45 15.333 69 28z
M573.999 1199c4 -6.66699 11 -11.333 21 -14zM233.999 1171c-19.333 -17.333 -35.666 -38.001 -48.999 -62.001l-14 -63l14 -21c10 25.333 17 53.333 21 84c13.333 16.667 22.666 37.334 27.999 62.001zM420.999 1143c-28.667 -7.33301 -58.667 -11.667 -90 -13
c-28.667 -3.33301 -47 -19.666 -55 -48.999l7 -28l-7 -76l-21 -21l28 -42l13 -125c13.333 2 27.333 6.66699 42 14l62 -14l28 14l188 21l69 42c15.333 21.333 29.333 46.666 42 75.999l7 76l-7 28l-35 70zM885.999 1046l-14 -21l14 -41l14 21zM781.999 1032l-14 -20l21 -14
l14 34h-21zM844.999 816.997l-14 -48l28 27c-2 9.33301 -6.66699 16.333 -14 21zM573.999 761.997l-7 -21l14 -7l7 28h-14zM517.999 747.997c2 -6 6.66797 -10.667 14.001 -14c-0.666992 6 -5.33398 10.667 -14.001 14zM810 747.997l-7 -21l14 7v14h-7zM505 719.997l-7 -21
l20 14zM491 677.997v14h-7zM102 650.997l27.999 -42c-3.33301 15.333 -12.666 29.333 -27.999 42zM226.999 441.997l-7 -34l14 -7l7 34zM177.999 247.997c1.33301 -6 6 -10.667 14 -14l7 7z" />
    <glyph glyph-name="S" unicode="S" horiz-adv-x="896" 
d="M335 1355l164 -13.999l21 7l103 -14l68 -34c18.667 -14 37 -32.333 55 -55l41 -75l14 -55l-14 -14l21 -69l-14 -82c-3.33301 -27.333 -10.333 -54.666 -21 -81.999l-96 -117c-24.667 -6.66699 -49.667 -18 -75 -34l-165 -55l-48 -27c-18 -14 -36 -32.333 -54 -55l-28 -82
l55 -55l62 -41l82 7c22 4 42.667 13 62 27l41 69c13.333 18.667 31.666 36.667 54.999 54l75 -6l21 6c24.667 -8 49.667 -19.333 75 -34c9.33301 -18.667 16.333 -39.334 21 -62.001l-35 -75c-6.66699 -25.333 -18 -50.333 -34 -75l-41 -69
c-19.333 -12.667 -40 -28.667 -62 -48c-26 -9.33301 -55.667 -16.333 -89 -21l-89 -20l-82 14l-55 -7l-14 7l-20 6l-62 48c-22.667 4.66699 -48 11.667 -76 21c-17.333 18 -37.666 34 -60.999 48l-55 55c-12 21.333 -21.333 44 -28 68l-13 96l27 179
c10 22 23.667 44.667 41 68c6.66699 14 16 25.333 28 34l68 42l69 20l144 76c26.667 4.66699 54 13.667 82 27c18.667 18 34.667 38.667 48 62l-14 75l-61 34l-21 7l-55 -13c-17.333 -16.667 -31 -37.334 -41 -62.001l7 -41l-7 -14l-144 -27l-103 13l14 158l82 116
c19.333 16.667 42.333 32.667 69 48zM335 1272v-75l13 20l7 48zM259 1245c3.33301 -12.667 10.333 -24 21 -34c-2 14 -9 25.333 -21 34zM115 1204c-1.33301 -16 -6 -32 -14 -48zM540 1190l-7 -20h14l7 20h-14zM657 834.001l-7 -21h14v21h-7zM595 820.001
c5.33301 -11.333 14.667 -18.333 28 -21zM479.001 765.001l20 -14.001c-3.33301 6.66699 -10 11.334 -20 14.001zM321.001 676c3.33301 -8.66699 10 -13.333 20 -14zM725.001 505.001l62 -69l-7 62zM671.001 477.001v14h-7zM122.001 436.001l14 -21
c-2 9.33301 -6.66699 16.333 -14 21zM746.001 402.001l14.001 -28c-0.666992 10 -5.33398 19.333 -14.001 28zM650.002 333.001v-14h7v14h-7z" />
    <glyph glyph-name="T" unicode="T" horiz-adv-x="805" 
d="M358 1598c29.333 -2.66699 60.999 -9.33203 94.999 -19.999c18 -13.333 36 -29.333 54 -48c0 -26.667 -4.33301 -53.667 -13 -81l-7 -54l7 -21c11.333 -19.333 29.333 -35 54 -47c22.667 2 47.334 8.66699 74.001 20c24.667 -8 52 -14.667 82 -20l28 -39l-1 -103l-15 -49
c-16 -17.333 -38.667 -29.333 -68 -36l-61 7l-21 -7l-59 -10l7 -81l-7 -27l7 -68l-14 -122l14 -20l7 -88l-7 -55l7 -13l7 -109l-14 -33l7 -14l-7 -14l7 -6l-7 -75l7 -20l7 -54l-7 -21l13 -81v-88c0 -22 4.66699 -44.667 14 -68l54 -47l81 -27l55 7l20 -7v-95l7 -54l-7 -20
l7 -61l-7 -20l-20 -14l-48 14h-108l-75 27l-129 88l-81 129c-8.66699 24 -15.334 50.667 -20.001 80l7 27l-14 102l7 14l-7 115l7 20l-7 54l7 48l-14 40l7 82l-7 88c0 27.333 -4.33301 56.666 -13 87.999l6 88v74h-6l6 21l-6 54l6 20l14 20l-27 105l-41 -6
c-20 9.33301 -42.333 16 -67 20c-16 -4 -34.333 -6.33301 -55 -7l-13 21c-12 13.333 -21 34.666 -27 63.999l6 95c12 24.667 32.333 40.334 61 47.001l75 -7l20 7l27 -7l14 7l-7 41l14 20l-7 61l7 61l-7 20c10.667 22.667 26.334 43 47.001 61l48 -13zM364.999 1347l7 -20
v20h-7zM289.999 995.002c4 -6 11 -10.333 21 -13c-4 6 -11 10.333 -21 13zM425.999 -6.99805c-1.33301 6 -6 10.333 -14 13c2 -4 6.66699 -8.33301 14 -13zM635.999 -74.998v-13l14 7zM682.999 -135.998c1.33301 -22.667 8.33301 -44.999 21 -66.999
c-4 21.333 -11 43.666 -21 66.999zM296.999 1370l-14 -25l28 17zM440.999 1313c-10.667 -14 -19.667 -30.333 -27 -49c14 12 23 28.333 27 49zM406.999 1189l-14 -33l35 25zM372.999 1149l-27.999 -51c13.333 13.333 22.666 30.333 27.999 51zM448 1123
c4 -9.33301 11 -17.667 21 -25c-3.33301 12 -10.333 20.333 -21 25zM304 1083l-21 -51l21 9l28 42h-28zM290 943.002l7 -26l7 17zM297 350.002l14 -9v25h-7zM290 218.002l14 -41l21 17l20 41h-48z" />
    <glyph glyph-name="U" unicode="U" horiz-adv-x="1394" 
d="M1037 1346c32 -8 67.333 -13.668 106 -17.001l122 8c36.667 -2 66.667 -19.667 90 -53l-4 -100l6 -21c-9.33301 -38.667 -34 -66 -74 -82l-100 -17c15.333 -29.333 28.333 -60.666 39 -93.999c13.333 -27.333 26 -63.333 38 -108l16 -101
c11.333 -37.333 16.666 -80 15.999 -128l-40 -112c-17.333 -28 -30.333 -60.667 -39 -98l-61 -90l-80 -61c-17.333 -26 -42.333 -48.667 -75 -68c-28 -16.667 -59.333 -32 -94 -46l-108 -38c-28 3.33301 -56.333 9.33301 -85 18l-21 -13l-29 -6l-78 10l-20 8
c-36 7.33301 -73.667 20.666 -113 39.999l-172 129l-68 73l-47 87l-38 109c-14 32 -22 67.667 -24 107c0 34.667 -3.33301 70.334 -10 107.001l73 217l39 70c-4 6.66699 -11 11.667 -21 15l-77 10l-29 -6l-20 8c-9.33301 32.667 -14.333 92.334 -15 179.001
c7.33301 17.333 17.333 35.666 30 54.999l335 15l21 -8l50 -10l21 7l21 -1l22 6l7 -7l64 11l34 -29l28 -16l-11 -91l10 -101c-28 -18.667 -64 -33.667 -108 -45l-43 16c-1.33301 -20 -6.66602 -41.333 -15.999 -64c-28.667 -13.333 -58 -30.666 -88 -51.999
c-19.333 -28 -34.666 -58.333 -45.999 -91c-14.667 -34 -25.667 -73.667 -33 -119c1.33301 -34.667 7 -70.334 17 -107.001l-3 -72l95 -117c26.667 -16 51.334 -38.333 74.001 -67l178 -29l28 5h21c36 2.66699 74.333 13 115 31l74 68
c21.333 25.333 41.666 55.333 60.999 90c12 30.667 23 65.667 33 105l11 106c0 35.333 -3 71 -9 107c-12.667 28 -30.667 55 -54 81c-12.667 32 -35.334 58.667 -68.001 80l-97 54c-18.667 32.667 -29 71 -31 115l11 99l22 6c33.333 16 71.333 24 114 24
c33.333 -0.666992 69 2.33301 107 9zM977 1079v15h-7zM1216 678.999l12.999 -23c-1.33301 10 -5.66602 17.667 -12.999 23zM135.999 686.999c0.666992 -5.33301 5 -10 13 -14c-0.666992 6 -5 10.667 -13 14zM1127 411.999l8 7l-22 8c2 -5.33301 6.66699 -10.333 14 -15z
M1031 309.999l6 -8l15 7v13l-7 1zM745.999 320.999l20 -42.999c0 15.333 -6.66699 29.666 -20 42.999zM1054 1141l39 23l-39 68l-17 -68zM1032 550h-16v-8zM1040 424c4 -24 14.667 -47.999 32 -71.999l-16 47c-4 23.333 -14.667 44.666 -32 63.999v-31zM1142 668.001l48 -40
v33l-7 31zM1158 826.001l25 -31l23 15c-10 7.33301 -17.667 18 -23 32zM500.999 239.001v45h-15v-22zM234.999 1020l56 -21.999l-33 45c-10 -2.66699 -17.667 -10.334 -23 -23.001zM525.999 240.002l23 -23l-8 46h-15v-23zM314.999 1147h33l-22 33zM314.999 1259h69l-11 47
c-20.667 -12 -40 -27.667 -58 -47zM372.999 986.002h-25v-11zM485.999 1169c9.33301 2 17 9.33203 23 21.999c-9.33301 -1.33301 -17 -8.66602 -23 -21.999z" />
    <glyph glyph-name="V" unicode="V" horiz-adv-x="1225" 
d="M265 1337c18.667 -17.333 37.334 -38.333 56.001 -63l28 -77l43 -63c9.33301 -24.667 16.333 -53 21 -85l14 -77l49 -56l35 -77c6.66699 -24.667 16 -50.334 28 -77.001l49 -71l21 -70c6.66699 -26 16 -51.667 28 -77l36 77l21 70l35 71c2.66699 25.333 9.66699 51 21 77
l21 91c6 22 15.333 45.333 28 70c3.33301 22 10.333 45.667 21 71c4 21.333 11 44.666 21 69.999l21 91c13.333 22 25 47.667 35 77l169 14l21 -7l77 -14l21 -28l-49 -21l14 -63l-35 -126l-70 -134c-2.66699 -22 -9.66699 -43 -21 -63c-15.333 -14 -27 -32.667 -35 -56
c-14 -10 -30.667 -17 -50 -21c-4 9.33301 -11 16.333 -21 21l-35 -21l35 -14c15.333 -20 27 -43.667 35 -71l-21 -77c-12 -21.333 -28.333 -42.333 -49 -63l-14 -84l-70 -246c-7.33301 -25.333 -19 -51.333 -35 -78l-63 15l-21 -7l-162 -8v-7l-21 15l-63 147
c-10 22.667 -17 48.334 -21 77.001c10.667 8.66699 17.667 20.334 21 35.001l-21 -21l-43 71c-4 22 -11 45.333 -21 70l-168 379l-28 84l-35 71c-11.333 25.333 -21 53.333 -29 84l-35 77c-8.66699 22 -13.334 45.333 -14.001 70l21 14c12.667 -8 27 -12.667 43 -14l91 7
c22.667 2.66699 46 9.66699 70 21zM293 1162c2 -9.33301 6.66699 -16.333 14 -21zM1031 1042l-7 -21l14 7v14h-7zM251 1035c1.33301 -6 6 -10.668 14 -14.001c-1.33301 4.66699 -6 9.33398 -14 14.001zM230 908.999c2.66699 -13.333 9.66699 -25.001 21 -35.001
c-2 12.667 -9 24.334 -21 35.001zM377 845.998c4.66699 -6.66699 12 -11.333 22 -14zM757 761.999l-7.00098 -57l21 7l-7 28c4.66699 2 9.33398 6.66699 14.001 14zM903.999 739.999l-14 -35l21 7l7 28h-14zM735.999 655.999l-21 -28c12.667 6 19.667 15.333 21 28z
M721.999 508.999v14h-7zM482.999 339.999c4 -9.33301 11 -16.333 21 -21c-3.33301 10 -10.333 17 -21 21zM510.999 304.999l-7.00098 -21c4.66699 2 9.33398 6.66699 14.001 14zM650.998 241.999c4 -12.667 13.668 -22 29.001 -28c-4.66699 10 -14.334 19.333 -29.001 28z
M714.999 199.999c-1.33301 6 -6 10.668 -14 14.001c1.33301 -4.66699 6 -9.33398 14 -14.001z" />
    <glyph glyph-name="W" unicode="W" horiz-adv-x="2156" 
d="M187 1309c28.667 -0.666992 57.998 -7.00195 87.998 -19.002c14 -10.667 27.667 -24 41 -40l-1 -88h7l-7 -7l-22 -164l12 -142l-7 -21l19 -142l7 -21l-14 -13l14 -27l46 -142c4 -17.333 17.333 -31 40 -41l82 -19l68 -26l61 -12l20 7l75 15l137 63l62 42l41 55
c14 9.33301 23.333 23 28 41l-14 20l21 55l-6 20l7 62l-6 54l7 21l13 20l-33 95c6.66699 0.666992 11.334 5.33398 14.001 14.001l-6 47l7 21l-6 102l7 20l-13 54l21 82l54 8l21 -6l13 7l41 -7l21 1c24 -2 48.667 -8.33301 74 -19l-7 -62l7 -20l13 -20l-14 -48l6 -61l-7 -21
l13 -81l-22 -143l7 -14l7 -20l-8 -55l12 -163l27 -53l82 -20c12.667 -18.667 28.334 -36.334 47.001 -53.001c0.666992 -21.333 14 -34.666 40 -39.999c18 -14 38.333 -27.333 61 -40l61 8l21 -7c24 4.66699 49 12 75 22c21.333 4.66699 44 14 68 28
c18 3.33301 36.333 12.666 55 27.999l48 55l35 62c10 20.667 23.667 41.334 41 62.001l-26 68l8 215l7 20l-6 61l-13 41l7 14l7 20l-6 82l-7 20l7 54l-27 34l27 -6l7 7c13.333 16.667 29.333 32.667 48 48l96 -5l61 8l13 -21l13 -88l-7 -88c8 -23.333 12 -50.666 12 -81.999
l6 -160l-7 -14l7 -7l-8 -95c3.33301 -15.333 5.33301 -33.333 6 -54l-7 -14v-20l-7 -75l6 -95l-8 -68l6 -82l-7 -75l12 -143l-7 -74c7.33301 -21.333 11.666 -44 12.999 -68c-15.333 -10 -29.333 -23.667 -42 -41c-18 -8.66699 -38.333 -16 -61 -22l-82 6l-74 19l-12 163
l7 81c-2 22 -8.66699 42.333 -20 61l-55 -48c-20 -2 -42.667 -7 -68 -15l-82 -22l-82 -8l-163 18c-21.333 8 -44 19 -68 33c-21.333 8 -43.666 19 -66.999 33l-61 33c-16 14 -36.333 27 -61 39l-40 61c-18 -13.333 -34.333 -29.333 -49 -48
c-17.333 -14.667 -37.666 -28.667 -60.999 -42c-16 -14.667 -34.333 -28.667 -55 -42c-22 -14 -47 -25.667 -75 -35l-69 -29l-61 -7l-20 6c-21.333 -0.666992 -44 -5.66699 -68 -15l-55 6l-14 -7h-20c-24 2 -49 8.33301 -75 19c-23.333 6 -48 14.667 -74 26l-68 26l-47 61
l-54 40c-12.667 18.667 -28.334 36.334 -47.001 53.001l-34 68l-40 53l-34 68l-24 258l7 95l1 68l7 14l-7 7l15 143l-7 20l8 82c10.667 15.333 26.667 26.666 48 33.999c23.333 2 48.333 7 75 15zM1922 1219l13 -6l7 20h-13zM1988 1037l-7 -27l14 -7v27zM1048 894.998
l-15.001 -75.001l21 -13l7 68c-1.33301 8.66699 -5.66602 15.334 -12.999 20.001zM248.997 704.997l-14.001 -55c5.33301 -1.33301 10 -5.66602 14 -12.999l13 -20c-1.33301 27.333 -5.66602 56.666 -12.999 87.999zM172.996 580.997l7 7.00098l-20 7
c2 -4.66699 6.33301 -9.33398 13 -14.001zM281.996 528.998v13h-7zM314.996 481.998l7 -21v21h-7zM1030 424.998l6 -27l7 21zM1989 413.998l-7 -34c8 4 15 11 21 21c-1.33301 6 -6 10.333 -14 13zM565.996 328.998c-1.33301 6 -6 10.668 -14 14.001
c2 -4.66699 6.66699 -9.33398 14 -14.001zM871.996 299.999c1.33301 -5.33301 5.66699 -9.66699 13 -13l7 7zM714.997 236.998c0 -9.33301 4.33301 -16.333 13 -21l21 21h-34zM2080 -74.002l27 -6l-27 -7v13z" />
    <glyph glyph-name="X" unicode="X" horiz-adv-x="1101" 
d="M976 1359l57.0039 -49.001c-12.667 -28 -29.334 -56.333 -50.001 -85l-70 -63l-42 -85l-64 -77l-105 -162l-29 -57l289 -394l43 -85c20 -24.667 38.667 -52.667 56 -84c-24 -14.667 -54.667 -24.334 -92 -29.001c-33.333 -1.33301 -68.333 -6 -105 -14
c-24 13.333 -47.667 30 -71 50c-8.66699 16 -20.334 32.333 -35.001 49l-162 233l-64 70l-112 -155l-21 -63l-50 -78c-14 -26 -32.667 -51.667 -56 -77l-92 -43c-30 8 -62.667 12.667 -98 14c-29.333 4.66699 -50.333 21.334 -63 50.001l42 77c1.33301 12 6 23.667 14 35
l-7 -35l21 14c13.333 25.333 32 51.333 56 78c13.333 27.333 29.666 55.333 48.999 84c-0.666992 12.667 -0.666992 38.667 0 78l7 -42l50 91l56 71l49 84l22 28l-141 198l-50 91l-56 57c-6.66699 18.667 -16 37.334 -28 56.001c-6.66699 28.667 -18.334 57 -35.001 85
l-15 28l155 28h92l21 -7l43 -42c-10 -6 -19.667 -15.333 -29 -28l57 -43c10 -27.333 24 -53 42 -77l77 -134c10.667 4 22.667 11 36 21l211 296zM828.004 1275v14h-7zM370.004 943.999v-15l15 7zM427.004 724.999l-7 -21l14 7v14h-7zM702.004 647.999l-7 -35.999
c4 -8.66699 11 -13.334 21 -14.001zM237.004 584c5.33301 -0.666992 10 -5.33398 14 -14.001c-6 0.666992 -10.667 5.33398 -14 14.001zM709.004 514l28 7l-14 7zM328.004 450l7 -21v21h-7z" />
    <glyph glyph-name="Y" unicode="Y" horiz-adv-x="1341" 
d="M136 1359l104.001 0.00292969l22 -7l67 -45c1.33301 -23.333 13.666 -43 36.999 -59c5.33301 -30.667 15.333 -60.334 30 -89.001c18 -26.667 35 -56.334 51 -89.001l201 -438l52 -82l44 82l260 660c12 23.333 27 43.333 45 60l22 -23c14 9.33301 31.333 17 52 23l37 -15
l-7 22c32 -6.66699 64 -16.667 96 -30l37 15c8 -15.333 13 -35 15 -59c-16 -26.667 -30.667 -56.334 -44 -89.001l-52 -74l-67 -201c-16 -26 -28.333 -53 -37 -81l-45 -82l-30 -104l-89 -170l-22 -97l-37 -96l-22 -97l37 -89l52 -81l37 -96l22 -104l67 -67
c-12.667 -24 -30 -46.333 -52 -67h-104l-22 -7l-104 15c-16.667 26 -36.334 50.667 -59.001 74l-104 289c-7.33301 23.333 -19.666 48 -36.999 74l-104 245c-15.333 25.333 -30.333 55 -45 89l-52 81l-326 728c-2 22 -9.33301 41.667 -22 59zM284.001 1329l-15 -29.001
l30 15c-2 4.66699 -7 9.33398 -15 14.001zM143.001 1292c13.333 -12.667 28.333 -20 45 -22zM284.001 1248c0.666992 -11.333 5.66699 -21.333 15 -30c-0.666992 11.333 -5.66699 21.333 -15 30zM351.001 1196c2 -10 7 -17.333 15 -22zM915.001 944.002l-15 -60
c2 -8 7 -15.333 15 -22l8 59v23h-8zM351.001 907.002h15l-8 14zM908.001 543.002v15h-8zM626.001 528.002c1.33301 -16 8.66699 -28.333 22 -37zM566.002 365.002l15 -21.999c-2 9.33301 -7 16.666 -15 21.999zM678.002 142.003c0 -13.333 4.66699 -28.001 14 -44.001
c-1.33301 14.667 -6 29.334 -14 44.001zM811.002 31.002v15h-7zM811.002 24.002v-23h8v23h-8zM841.002 -42.998l-8 -29l15 -15zM967.002 -212.998c-10 -10.667 -17.333 -23.334 -22 -38.001h37c-2 12.667 -7 25.334 -15 38.001zM871.002 -227.998
c0 -13.333 4.66699 -25.666 14 -36.999c-1.33301 13.333 -6 25.666 -14 36.999z" />
    <glyph glyph-name="Z" unicode="Z" horiz-adv-x="958" 
d="M202 1346l198.997 -7.00195l82 7l22 -7l96 -7l192 7c28 -2 47.667 -16.667 59 -44c8.66699 -22.667 13.334 -47.334 14.001 -74.001l15 -81c-7.33301 -24 -19.666 -48.667 -36.999 -74l-19 -56l-66 -44l-22 -67c-16 -18.667 -31 -40.667 -45 -66
c-21.333 -12.667 -41 -30 -59 -52l-44 -59l-37 -74l-52 -59l-58 -103c-15.333 -14 -27.333 -31.333 -36 -52l174 1l14 -7c14 8.66699 31.333 16 52 22l22 -22l22 7l67 -7l81 15c16 -16 28.333 -35.667 37 -59l-1 -49c6.66699 -25.333 11.667 -54.666 15 -87.999
c15.333 -14 25 -31.333 29 -52c-23.333 -4 -48 -11.333 -74 -22l-88 15l-82 -8l-22 -7l-59 7l-332 -29c-1.33301 4.66699 -6.33301 9.66699 -15 15l-74 -8l-59 -15l-22 15c-14.667 19.333 -29.334 41.666 -44.001 66.999v73h-7l7 23l-6 44c8 18.667 23 41.334 45 68.001
l100 106c14.667 12 32 19.333 52 22c14.667 10.667 29.334 25.334 44.001 44.001l-29 37l36 74l148 177l128 217c-57.333 -11.333 -95.666 -16.333 -114.999 -15l-96 -7l-104 15l-81 -8c-30 3.33301 -59.333 11 -88 23c-12 3.33301 -18.333 18 -19 44
c-7.33301 16.667 -12.333 36.334 -15 59.001c6.66699 0.666992 11.667 5.66699 15 15l-22 66c25.333 12.667 52.333 20 81 22zM112.997 1287v-37l30 8c-4.66699 12 -14.667 21.667 -30 29zM806.997 1287l-14 -22h22v22h-8zM349.997 1206l-30 -36.999
c14.667 7.33301 24.667 19.666 30 36.999zM229.997 612.999l8 -23l-15 -7zM566.997 574.999c6 -1.33301 12.333 -14.667 19 -40zM748.997 375.998l-30 -11c18 -8 28 -4.33301 30 11z" />
    <glyph glyph-name="bracketleft" unicode="[" 
 />
    <glyph glyph-name="backslash" unicode="\" 
 />
    <glyph glyph-name="bracketright" unicode="]" 
 />
    <glyph glyph-name="asciicircum" unicode="^" 
 />
    <glyph glyph-name="underscore" unicode="_" 
 />
    <glyph glyph-name="grave" unicode="`" horiz-adv-x="468" 
d="M78 1740c16 51.333 39.667 82.001 71 92.001l75 -3c29.333 -4.66699 54.666 -3.33398 75.999 3.99902l42 -17l14 -49l-7 -13l21 -103c-0.666992 -16 -1.66699 -31.667 -3 -47c-1.33301 -14.667 -3.33301 -28.667 -6 -42c-13.333 -24.667 -15.666 -51 -6.99902 -79
l-21 -14l-61 7l-36 -2l-93 194zM134 1742l35 11l-5 14l-28 -4zM281 1539l29 11l8 13l-21 3l-35 -11z" />
    <glyph glyph-name="a" unicode="a" horiz-adv-x="1248" 
d="M973 1357l89.9971 -7l90 7l34 -7l-14 -42l14 -103l-7 -14v-14l-7 -20l7 -70l7 -20l-7 -62l21 -76l7 -90l-7 -56l7 -20v-76c-4 -21.333 -11 -44.333 -21 -69l14 -83l-14 -62c4 -24 6.33301 -51.667 7 -83l-7 -69l7 -76l14 -35l-28 -21l-41 -20l-21 13l-83 7
c-26 4 -44.333 20.333 -55 49c-9.33301 14.667 -23.333 23.667 -42 27l-55 -41l-69 -28l-62 7l-62 -34c-21.333 -2 -44.333 -6.66699 -69 -14l-69 21c-23.333 0.666992 -46.666 7.33398 -69.999 20.001l-124 49c-13.333 8.66699 -29.333 13 -48 13l-28 28
c-18 12 -38.667 23.667 -62 35c-8 21.333 -19.667 42 -35 62l-82 110l-28 63c-1.33301 21.333 -6 44.333 -14 69l-21 138l7 20l7 76c4 27.333 11 55 21 83l21 69l34 63l49 131l34 28c6.66699 -4.66699 11.334 -11.667 14.001 -21c16 8 29.667 19.333 41 34l132 56
c21.333 5.33301 44.333 14.333 69 27l138 14l21 -7c22 -0.666992 45 -5.33398 69 -14.001l55 7l14 -7c8.66699 -13.333 13 -29.333 13 -48l42 -21l-21 55c0.666992 6 5.33398 10.667 14.001 14l90 -69c18 -2.66699 36.333 -11.667 55 -27c7.33301 15.333 12 31.333 14 48
l-7 62zM1042 1295v13h-7zM1111 1302c2.66699 -12.667 9.66699 -24.333 21 -35c-4 12 -11 23.667 -21 35zM475.997 1288l-14 -21l34 14zM350.997 1233l-7 -21h14l7 21h-14zM875.997 1226c1.33301 -6 6 -10.668 14 -14.001c-1.33301 4.66699 -6 9.33398 -14 14.001z
M958.997 1212l7 -21v21h-7zM730.997 1184l7 -54.999l7 7l21 -7c-8 19.333 -19.667 37.666 -35 54.999zM1007 1184l-13 -27l27 6zM675.997 1177l-7 -20h14v20h-7zM240.997 1157c4 -9.33301 10.667 -16.333 20 -21c-3.33301 9.33301 -10 16.333 -20 21zM599.997 1122
c-8 -20.667 -19.667 -38.9961 -35 -54.9961l-20 41l-28 -14c-25.333 -4.66699 -53 -13.667 -83 -27c-10.667 -21.333 -26.667 -42 -48 -62l-62 -42l-28 -69l-14 -62c-4.66699 -26 -13.667 -53.667 -27 -83c6 -21.333 15 -44.333 27 -69l21 -55l-14 -21
c6.66699 -13.333 16 -25 28 -35c8.66699 -18.667 13 -39.334 13 -62.001c26 -10 49.333 -26 70 -48c22 -7.33301 45 -19 69 -35l83 -7l-7 63l34 -7c11.333 -22 25.333 -40.667 42 -56l89 -13l76 34c19.333 13.333 35.666 31.666 48.999 54.999l-7 21l7 14l34 7
c1.33301 -4.66699 6 -9.33398 14 -14.001c18.667 9.33301 34.667 23 48 41c8.66699 22.667 20.334 46 35.001 70c12 23.333 21.333 50.666 28 81.999l-14 90c-6 22.667 -15.333 45.667 -28 69l-34 69l-49 63l-62 48c-14 14.667 -32.333 26 -55 34zM841.997 1108v-14h7v14h-7
zM1125 1094c0.666992 -18 5.33301 -36.333 14 -55c-1.33301 18.667 -6 37 -14 55zM861.996 1087c6 -18 17.667 -34 35 -48zM302.996 998.005l-14.001 -21c8.66699 4.66699 13.334 11.667 14.001 21zM108.995 908.005l-6 -21l13 -7zM1014 694.005l14 -21
c-1.33301 9.33301 -6 16.333 -14 21zM1153 694.005l6 -21v21h-6zM1035 673.005c2 -11.333 9 -20.667 21 -28zM1132 438.004c1.33301 -14 6 -27.667 14 -41l7 27c-9.33301 8 -16.333 12.667 -21 14zM495.995 383.004c1.33301 -6 6.00098 -10.667 14.001 -14
c-0.666992 6 -5.33398 10.667 -14.001 14z" />
    <glyph glyph-name="b" unicode="b" horiz-adv-x="1283" 
d="M138 1672c30.667 -8 51.668 -29.332 63.001 -63.999l29 50c22.667 0 36.667 -14.333 42 -43l-7 -77l14 -155l-7 -21l-7 -63l7 -21l7 -78l-7 -28l56 56l92 22c26 7.33301 49.333 23.666 70 48.999l21 14l120 -49l-21 42l28 7l28 14l56 -21l190 -49l78 -36l126 -112
c11.333 -25.333 25.666 -51.333 42.999 -78l28 -84l49 -70l7 -113l-7 -84c-2.66699 -26 -12 -49.667 -28 -71l7 -70l-7 -21l-49 -64c-11.333 -13.333 -21 -29.666 -29 -48.999c-9.33301 -22.667 -23.333 -46 -42 -70l-56 -64l-70 -42c-12 -26.667 -33.333 -43 -64 -49
l-21 14l-56 -21c-24.667 -8 -50.667 -12.667 -78 -14l-28 -7l-70 7c-30 0.666992 -63 5.33398 -99 14.001c-29.333 3.33301 -59.666 10.333 -90.999 21c-22.667 9.33301 -44 23.333 -64 42c-22.667 11.333 -46 25.333 -70 42l-28 22l-7 -29l14 -14l14 -42l-49 -14
c-13.333 -12.667 -30 -24.334 -50 -35.001l-105 7l-35 77l7 21l-7 50v14h-7l7 7c10 24 24 47.333 42 70c-24 10 -40.333 28.667 -49 56l7 71l-7 21c3.33301 28 12.666 56 27.999 84c-8 18.667 -12.667 37.667 -14 57l-28 98l7 78l28 35l-21 14l-14 91
c0.666992 28 7.66699 56.333 21 85c9.33301 13.333 16.333 29.666 21 48.999l-21 14l-21 -7l-7 7l7 78l-14 175l14 71c0 20.667 -4.66699 41.667 -14 63l14 99zM201.001 1566l7 -14.001l22 14c-1.33301 6.66699 -6.33301 11.334 -15 14.001zM152.001 1559l-14 -21
c9.33301 4.66699 14 11.667 14 21zM215.001 1299l-14 -92l21 -7v78l8 21h-15zM933.001 1179c9.33301 -9.33301 21.333 -14 36 -14zM215.001 1158l-7 -42l14 28v14h-7zM1011 1123c4 -6.66699 11 -11.334 21 -14.001c-4 6.66699 -11 11.334 -21 14.001zM694.001 1116
l-113.002 -13.999l-84 -28l-77 -43l-64 -49l-49 -70l7 -71l-14 -28c-10.667 -13.333 -17.667 -25 -21 -35l28 -77c6.66699 -32.667 11.334 -68 14.001 -106c11.333 -18.667 18.333 -42 21 -70c22.667 -12 41.334 -28.667 56.001 -50c-12.667 -10 -24.334 -24 -35.001 -42
l14 -21c19.333 13.333 43 20.333 71 21l70 -42l42 7l14 -7l14 -35c25.333 6 51.333 15.333 78 28c8.66699 -18 20.334 -34.333 35.001 -49c27.333 12 58 21.333 92 28c26 2 47 16 63 42l77 42c2.66699 22 9.66699 43.333 21 64l50 70l28 92l56 42
c-20.667 14 -34.667 35 -42 63c-12.667 22 -22 47.667 -28 77c9.33301 4 14 11.333 14 22l-14 42l-49 63c-15.333 18 -34.333 34.333 -57 49c-20 11.333 -41 25.666 -63 42.999l-70 28zM257.999 940.001c4 -15.333 13.332 -27 27.999 -35
c-5.33301 13.333 -14.666 25 -27.999 35zM1173 813.001c4 -9.33301 11 -16.333 21 -21c-3.33301 10 -10.333 17 -21 21zM243.998 778.001l-7 -21l14 -7l7 28h-14zM1159 560.001l14 -14l7 21l-14 7zM1025 532.001c5.33301 -16 14.667 -30 28 -42zM306.999 525.001l-14 -35
l14 -29l21 50zM229.999 363.001l-8 -35l22 -14zM306.999 363.001c2 -10.667 6.66699 -20 14 -28c-2 10.667 -6.66699 20 -14 28zM404.999 293.001l-7 -22h15l7 22h-15zM383.999 271.001v-14l14 7zM207.999 243.001c4.66699 -6.66699 12 -11.334 22 -14.001
c-4 6.66699 -11.333 11.334 -22 14.001zM672.999 229.001c0.666992 -6 5.33301 -10.668 14 -14.001c-1.33301 4.66699 -6 9.33398 -14 14.001zM200.998 187c1.33301 -6 6 -10.668 14 -14.001c-1.33301 4.66699 -6 9.33398 -14 14.001z" />
    <glyph glyph-name="c" unicode="c" horiz-adv-x="1239" 
d="M630 1361l100.001 -13.9961c33.333 -5.33301 71.333 -15 114 -29c24.667 -17.333 53 -34 85 -50c29.333 -6.66699 46 -25.667 50 -57c-15.333 -6.66699 -29.666 -16 -42.999 -28l50 7c26.667 -6 52.667 -18 78 -36c2 -24 14 -42.667 36 -56l57 -86
c-2.66699 -34.667 -24 -53.667 -64 -57l-50 -21l57 7c26.667 -2 52.667 -6.66699 78 -14l-14 -22l-36 -28l-71 7l-78 -7l-22 36l-21 85c-31.333 6 -57.333 22.667 -78 50c-28 11.333 -42.333 32.666 -43 63.999l-78 -14l-29 7l-163 14l-29 -14l-78 -57
c-25.333 -17.333 -49 -38.666 -71 -63.999c-20 -26 -39 -54.667 -57 -86l-7 -128l-22 -28l43 -157l50 -85l64 -79l64 8c9.33301 -10.667 21.333 -20.334 36 -29.001l106 -7l29 -14l164 50l56 85c20.667 25.333 39.667 53.666 57 84.999c4.66699 32 19 60.667 43 86
c29.333 0 60.333 -7.33301 93 -22l78 29c16 -30.667 27.667 -66.334 35 -107.001c-16.667 -30 -30.667 -63 -42 -99c-7.33301 -30.667 -24 -59.334 -50 -86.001l-135 -149l-185 -86l-50 -7l-21 7h-22l-21 -14c-26.667 11.333 -43.334 32.666 -50.001 63.999
c-20 -27.333 -48.333 -41.666 -85 -42.999l-193 79l-85 64l-71 71c-22.667 18.667 -41.667 44.667 -57 78c-13.333 24.667 -25.333 53.334 -36 86.001l-42 99l-7 64l28 29c-16 24 -27.667 52.333 -35 85c14.667 23.333 26.334 49.333 35.001 78c11.333 28 21 59 29 93
c12.667 29.333 29 60 49 92c17.333 20.667 31.666 47 42.999 79c25.333 17.333 51.333 38.666 78 63.999c23.333 19.333 49.666 36 78.999 50l149 71c12.667 -1.33301 27 -6 43 -14l35 -15zM353.001 1219c-10.667 -11.333 -20.333 -25.667 -29 -43l21 7
c13.333 8.66699 25.333 20.667 36 36h-28zM267.002 1183c-13.333 -17.333 -29.999 -34.001 -49.999 -50.001c0.666992 -13.333 8 -22.666 22 -27.999c15.333 21.333 24.666 47.333 27.999 78zM210.003 1098l-7 -65l14 50zM943.003 1026
c-0.666992 6.66699 -5.33301 11.667 -14 15c2 -5.33301 6.66699 -10.333 14 -15zM281.004 1005l-14 -43l29 29c-1.33301 6 -6.33301 10.667 -15 14zM296.004 984.002l-7 -22l14 7v15h-7zM139.004 799.002h14v14h-7zM160.004 706.002l15 -7v21h-7zM1128 642.002
c1.33301 -6 6.33301 -10.667 15 -14c-1.33301 6 -6.33301 10.667 -15 14zM1029 628.002c0.666992 -11.333 5.33301 -21 14 -29l7 29h-21zM281.003 542.002v-14h8v14h-8zM1107 521.002v14h-7zM1064 486.002c10 -9.33301 22 -14.333 36 -15zM915.003 450.002l-14 -29l28 -7
c-1.33301 12 -6 24 -14 36zM986.003 379.002c4 -12.667 11 -24.667 21 -36c-3.33301 13.333 -10.333 25.333 -21 36zM296.003 315.002c4.66699 -10.667 14 -20.333 28 -29c-6 10 -15.333 19.667 -28 29zM374.003 308.003c3.33301 -10 10.333 -17.333 21 -22
c-4 8.66699 -11 16 -21 22z" />
    <glyph glyph-name="d" unicode="d" horiz-adv-x="1265" 
d="M1029 1692l76.9971 -6.99707c24 -2 49.667 -6.66699 77 -14l21 -42l-14 -28l7 -70l-7 -21l7 -63l-7 -21l-21 -21l21 -43l7 -84l-7 -77l7 -63l-7 -21l14 -77c1.33301 -24.667 6 -50.334 14 -77.001c-8 -24.667 -15 -52.667 -21 -84l14 -21l-14 -64
c2 -19.333 6.66699 -40.333 14 -63l-14 -21l14 -56v-91l14 -91c0 -28 -2.33301 -58.333 -7 -91l7 -49l-7 -14v-21l7 -63l-14 -22l-77 -21l-56 7l-63 -21l-29 120l-56 -42l-231 -92l-77 -7l-56 21c4 11.333 11 23 21 35l-14 15l-28 -22c-19.333 -12 -42.666 -19 -69.999 -21
c-23.333 10.667 -49.333 20 -78 28c-22 10.667 -47.667 20.334 -77 29.001l-154 161l-49 63c-6.66699 17.333 -16 36 -28 56l-28 84c-2.66699 21.333 -9.66699 44.666 -21 69.999v105l7 85l21 84c8.66699 25.333 20.334 51 35.001 77l77 133l112 98
c20.667 13.333 41.667 29.666 63 48.999l71 21c24.667 4.66699 52.667 7 84 7l77 14l91 -14c27.333 -0.666992 55.333 -5.33398 84 -14.001l161 -49c9.33301 -18.667 23.333 -35 42 -49c8.66699 20.667 13.334 44 14.001 70l-7 56l7 21c-1.33301 31.333 -6 64.333 -14 99
l14 91l-7 42l7 35zM1029 1594c3.33301 -9.33301 10.333 -14.001 21 -14.001c-4 6.66699 -11 11.334 -21 14.001zM1029 1355l-7 -28.001l21 14c-1.33301 6.66699 -6 11.334 -14 14.001zM1134 1306l-7 -28c0 -22 4.66699 -45.333 14 -70l7 77zM586.997 1285
c-1.33301 6.66699 -6 11.334 -14 14.001c2 -4.66699 6.66699 -9.33398 14 -14.001zM467.997 1292c2.66699 -12.667 9.66699 -24.333 21 -35c-1.33301 15.333 -8.33301 27 -21 35zM747.997 1257c1.33301 -6 6.00098 -10.668 14.001 -14.001
c-0.666992 6.66699 -5.33398 11.334 -14.001 14.001zM831.998 1243h14v14h-7zM1029 1243c3.33301 -8 10.333 -12.667 21 -14zM593.998 1236v-42l21 35zM908.998 1201l-7 -21l21 -7c-1.33301 10.667 -6 20 -14 28zM593.998 1159l-6.99902 -27.9961l-70 7l-70 -28
c-23.333 -7.33301 -44.666 -19 -63.999 -35l-84 -210c-8 -23.333 -12.667 -49.333 -14 -78l7 -35l-14 -21c1.33301 -4.66699 6 -9.33398 14 -14.001l7 -98l77 -133l148 -63c25.333 -8.66699 51 -13.334 77 -14.001l49 -21l21 14l84 14l63 42l49 56
c19.333 9.33301 35.666 23.333 48.999 42l35 77c11.333 19.333 18.333 40.333 21 63l7 84c-5.33301 24.667 -14.666 50.667 -27.999 78c-8.66699 22 -13.334 47.667 -14.001 77l28 21l-14 42c-2 13.333 -11.333 22.666 -28 27.999l14 -42l-28 -7l-14 7l-35 56
c-19.333 13.333 -38 29.666 -56 48.999c-19.333 8 -40.333 12.667 -63 14c-24.667 6.66699 -50.334 16 -77.001 28zM179.999 1082l-7 -28l21 7zM298.999 991.005v14h-7zM95.999 935.005c1.33301 -6 6 -10.668 14 -14.001c-1.33301 4.66699 -6 9.33398 -14 14.001z
M235.999 900.004h14v14h-7zM179.999 823.004l-7 -21h14l7 21h-14zM1022 802.004v-29l28 14zM1162 745.004v14h-7zM221.999 752.004l-7 -21h14v21h-7zM1155 731.004v-21h7v21h-7zM1092 647.004l7 -14l28 7zM116.999 626.004c-1.33301 6 -6 10.668 -14 14.001
c2 -4.66699 6.66699 -9.33398 14 -14.001zM235.999 605.005l-35 -14l21 -21h28zM137.999 549.005c4.66699 -10.667 13.999 -20 27.999 -28c-5.33301 10.667 -14.666 20 -27.999 28zM922.998 521.005h14l-7 14zM950.998 528.005c-7.33301 -10.667 -12 -24.667 -14 -42
c9.33301 12 14 26 14 42zM943.998 472.005l14 -7l-7 21zM1155 423.005l-20.999 -21.001l35 -14c-0.666992 12.667 -5.33398 24.334 -14.001 35.001zM404.999 360.004v14h-8zM1064 374.004c1.33301 -6 6 -10.668 14 -14.001c-2 4.66699 -6.66699 9.33398 -14 14.001z
M291.999 353.003c-0.666992 6 -5.33301 10.668 -14 14.001c2 -4.66699 6.66699 -9.33398 14 -14.001zM552 346.004l-7 -21l14 -7l7 28h-14zM1148 339.004c2 -9.33301 6.66699 -16.333 14 -21c-2 9.33301 -6.66699 16.333 -14 21zM1085 276.004
c2.66699 -10 9.66699 -17 21 -21zM643 219.004v-14l14 7zM986 227.004l7 -22l-7 -14l-14 -7z" />
    <glyph glyph-name="e" unicode="e" horiz-adv-x="1230" 
d="M541 1364l56 -7.00293l14 7h21l91 -21l90 -7c20.667 -14 44 -25.333 70 -34l63 -42c20.667 -13.333 41.334 -29.666 62.001 -48.999l56 -56c14.667 -21.333 28.667 -47 42 -77l42 -69l14 -63l-14 -21l-35 14l14 -35c26 -3.33301 42.333 -19.666 49 -48.999l14 -90l-7 -91
c-14 -21.333 -35 -33 -63 -35h-70l-14 35l-14 -28l-62 -21l-98 -14l-167 21l-21 -7l-63 14l-21 -14l-76 -7l-77 7l-42 21l-28 -21c-29.333 0 -52.333 -13.667 -69 -41l188 -147l160 -35l91 7c24 8.66699 49.333 20.334 76 35.001l77 35l63 14l21 -14l76 -84
c-0.666992 -19.333 -5.33398 -40 -14.001 -62l-132 -91l-70 -28c-24.667 -10 -52.334 -19.333 -83.001 -28c-27.333 -8.66699 -57.666 -15.667 -90.999 -21l-91 14c-23.333 4 -48.666 11 -75.999 21c-23.333 2.66699 -49 9.66699 -77 21l-77 35c-24 8 -47 22 -69 42
c-18.667 18 -39.667 34 -63 48l-56 56c-14.667 17.333 -28.667 38.333 -42 63l-41 70l-28 181l7 21l-7 63l7 90l34 84c6.66699 22 16 45.333 28 70l35 76c15.333 18 34 36.667 56 56l49 63l69 42l147 62c23.333 4 48.666 11 75.999 21zM967 1176
c-1.33301 6 -6 10.668 -14 14.001c1.33301 -4.66699 6 -9.33398 14 -14.001zM430 1162c0.666992 -10 5.33301 -19.333 14 -28c0 10 -4.66699 19.333 -14 28zM596.999 1148l-118 -42l-91 -48l-63 -7l21 -35c-14 -34 -32.333 -69 -55 -105l-7 -70l48 -7l126 28v-14l77 7h20
l42 -21l-35 -41c28.667 18.667 61.334 37 98.001 55l125 14l63 -7l126 14c-11.333 10.667 -20.666 24.667 -27.999 42c-12 32.667 -33 65.334 -63 98.001c-18.667 22.667 -44.334 45.667 -77.001 69c-15.333 13.333 -29 29.666 -41 48.999l-49 -14
c-36.667 5.33301 -76.334 17 -119.001 35zM1029 1092l14 -14l-7 28zM1064 1037c3.33301 -13.333 10.333 -25.001 21 -35.001c-4 10.667 -11 22.334 -21 35.001zM255.999 1016c4 -8.66699 11 -13.333 21 -14zM122.999 924.998v14h-7zM129.999 917.998
c-8.66699 -11.333 -13.333 -25.333 -14 -42l28 21zM200 875.998c1.33301 -6 6 -10.668 14 -14.001c-1.33301 6.66699 -6 11.334 -14 14.001zM1022 854.997c1.33301 -6 6.00098 -10.668 14.001 -14.001c-0.666992 6.66699 -5.33398 11.334 -14.001 14.001zM88.001 799.996
l7 -21l7 21h-14zM486.001 792.996v-14l14 7zM660.001 708.996c-12 -6 -21.333 -15.333 -28 -28c12 4.66699 21.333 14 28 28zM95.001 638.996v-14l14 7zM270.001 548.996c3.33301 -12 10.333 -23.668 21 -35.001c-2.66699 12.667 -9.66699 24.334 -21 35.001z
M249.001 394.995c1.33301 -6 6 -10.668 14 -14.001c-1.33301 6.66699 -6 11.334 -14 14.001zM667.001 352.994c2 -10 6.66699 -19 14 -27l7 20zM339.001 325.994c0.666992 -10 5.33301 -19.333 14 -28c0 10 -4.66699 19.333 -14 28zM458 325.994l-7 -21l21 14zM444 290.994
c4 -6.66699 11 -11.333 21 -14z" />
    <glyph glyph-name="f" unicode="f" horiz-adv-x="581" 
d="M362 1728l88.999 -6.99805l55 7l14 -7c10.667 -18.667 17.667 -39.334 21 -62.001l-7 -55l7 -75c-21.333 -13.333 -44.333 -22.666 -69 -27.999l-62 -7c-19.333 -6 -37.666 -17.333 -54.999 -34c-18.667 -10.667 -37 -24.334 -55 -41.001l-20 -55l13 -83l48 -27l90 7
c20.667 -2 43.334 -6.66699 68.001 -14l14 -62l-7 -62l7 -20c-2.66699 -16.667 -9.33398 -32.667 -20.001 -48l-35 -28l-20 14c0.666992 18.667 5 37 13 55l-48 -21l-13 -48l27 -7l-55 -13l-41 6c-6.66699 -6 -11.334 -15 -14.001 -27l-7 -21l7 -61l-14 -49l14 -20l7 -69
c-10 -15.333 -17 -33.666 -21 -54.999c10.667 -20 17.667 -43 21 -69l-14 -75c-2.66699 -14.667 -9.33398 -28.334 -20.001 -41.001c0.666992 -4.66699 5 -9.33398 13 -14.001l28 -69l7 -68l-14 -124l7 -21l-28 -48l-27 -14l-13 7h-97l-48 -7l-13 14l-7 -7l-21 28l14 144
l-14 69l7 55l-14 41l7 62l21 62c-3.33301 15.333 -10.333 29 -21 41l-7 75c0.666992 22 5.33398 42.667 14.001 62l-7 62l-20 76l13 75l-20 138l7 13c2 18.667 11 37 27 55c-12 18 -21 38.667 -27 62l6 69l14 41l-20 21l20 75c6 21.333 15.333 42 28 62
c10.667 20 24.334 38.333 41.001 55l48 48l55 34l54 14c22.667 2 45.667 6.66699 69 14zM368.999 1673c6 -9.33301 15 -18.333 27 -27c-3.33301 11.333 -12.333 20.333 -27 27zM114.999 1302l-14 -21l28 14zM258.999 1254c-10.667 -11.333 -19.667 -25 -27 -41
c14 10 23 23.667 27 41zM272.999 1178v14h-7zM265.999 1171l-20 -20l20 14v6zM224.999 1151l-14 -28l35 21zM190.999 1117l-27.999 -42c13.333 10.667 22.666 24.667 27.999 42zM266 1096c4 -8 11 -15 21 -21c-3.33301 10 -10.333 17 -21 21zM122 1062l-21 -42l21 7l28 35
h-28zM108 945.002l7 -21l7 14zM115 450.002l14 -7v21h-7zM108 340.002l14 -34l21 14l20 34h-48zM136 237.002l-14 -27h41zM266 237.002l-7 -20h14v20h-7z" />
    <glyph glyph-name="g" unicode="g" horiz-adv-x="1299" 
d="M736 1366c26.667 -19.333 56.999 -35.6689 90.999 -49.002c34 -6 66.667 -17.333 98 -34l27 -21l14 55c24 9.33301 52 14 84 14l104 7l56 -7c-1.33301 -18.667 -8.33301 -37 -21 -55l-35 34c3.33301 -13.333 10.333 -27 21 -41c14 -30 25.667 -62.667 35 -98l-7 -97
l14 -91l-7 -21l7 -111l-49 -35l28 -7c10.667 -32 17.667 -69 21 -111l7 -28l-14 -42l7 -14v-21l-7 -55l7 -21l14 -7l-7 -14c-4.66699 -11.333 -14 -20.666 -28 -27.999l28 -49l7 -118l-7 -77l7 -21c12 -21.333 21.333 -46.666 28 -75.999l-28 -7l-84 -174
c-14.667 -24.667 -33 -50 -55 -76l-56 -70c-25.333 -9.33301 -51 -23.333 -77 -42l-90 -48l-140 -28l-181 21h-76l-21 -7l-7 7c-10.667 18 -17.667 41 -21 69l-49 -7l7 56l-7 14l-7 97l-7 21l49 14l42 -35c32.667 -9.33301 69.667 -16.333 111 -21l105 14l28 -7l76 14l91 49
l63 69c16.667 28.667 30.334 59 41.001 91c12.667 30.667 22 65.334 28 104.001l-69 -7c-27.333 -15.333 -57.666 -29.333 -90.999 -42l-91 -27l-83 -14l-21 14l-112 7c-26.667 9.33301 -54.334 23 -83.001 41c-34.667 2 -69.667 9 -105 21c-24.667 14 -50 32.667 -76 56
c-24.667 16 -50.334 37 -77.001 63l-49 76c-18 27.333 -34 57.666 -48 90.999l-35 97l-7 70l7 21l-14 104l21 112l83 187l56 77c24.667 13.333 50.334 32 77.001 56l90 42l70 62l77 -7l27 7l56 7l21 -14l21 7l7 -7c30.667 1.33301 60.667 8.33301 90 21zM533.999 1303
c0.666992 -9.33301 5.33301 -18.333 14 -27l7 27h-21zM582.998 1248l-7 -28h14v28h-7zM910.998 1234c1.33301 -9.33301 6 -16.333 14 -21zM1022 1234v-14h7v14h-7zM311.998 1213c-9.33301 -6.66699 -18.667 -16 -28 -28c14.667 4 24 13.333 28 28zM255.997 1178l14 -21
l14 28l-21 7zM359.997 1164v14h-7zM749.997 1157c2 -5.33301 6.66797 -10.001 14.001 -14.001c-0.666992 6.66699 -5.33398 11.334 -14.001 14.001zM708.998 1150c-16 -20.667 -37.001 -36.666 -63.001 -47.999c-23.333 6.66699 -46.666 18 -69.999 34
c-17.333 -16.667 -38 -30.334 -62 -41.001c-21.333 -6 -42.333 -15.333 -63 -28c-21.333 -6.66699 -40 -18.334 -56 -35.001l-49 -56l-62 -139l-21 -84l14 -62l-7 -21l14 -77l48 -48c8.66699 -25.333 13.334 -51 14.001 -77l70 -7l70 -35c20.667 -13.333 43.667 -25 69 -35
l70 7l77 -21l167 56l97 112l28 76c7.33301 22 12 45.333 14 70l21 83c-12 20 -28.333 38.667 -49 56l-21 84c-6 21.333 -15.333 44.333 -28 69c-20.667 15.333 -36.667 36.333 -48 63l-63 35c-26.667 6 -52.334 17.333 -77.001 34c-6 14.667 -17.333 26.334 -34 35.001z
M1071 1143c6 -15.333 15.333 -29 28 -41c-6 15.333 -15.333 29 -28 41zM1161 1143l-14 -34l7 -14l14 34v14h-7zM464.997 1136l-14 -21.001l28 7c-2 4.66699 -6.66699 9.33398 -14 14.001zM157.997 1046l-7 -21l14 7v14h-7zM1147 906.996
c0.666992 -12.667 5.33301 -24.333 14 -35c-1.33301 11.333 -6 23 -14 35zM199.996 899.997l-21 -35.001c10 8.66699 17 20.334 21 35.001zM1140 585.996l-7 -21h14v21h-7zM408.996 376.996v-48l14 35c-1.33301 6 -6 10.333 -14 13zM951.996 335.996l-14 -21l28 14z
M485.996 265.996l7 -21v21h-7zM687.996 237.996l-28 -21l49 -7c-2 10.667 -9 20 -21 28zM951.996 21.9961l-7 -21h14v21h-7zM1057 -68.0039l7 -21v21h-7zM589.996 -151.004v14h-7zM756.996 -137.004l-7 -42l7 -14v-21h7z" />
    <glyph glyph-name="h" unicode="h" horiz-adv-x="1281" 
d="M111 1663c37.333 0 79.6699 -7.00195 127.003 -21.002l70 7l7 -21l-7 -14c-20.667 -29.333 -34.667 -64.666 -42 -105.999l35 -15c-3.33301 -16.667 -10.333 -33 -21 -49l-7 -99c8.66699 -34.667 13.334 -70 14.001 -106c28 6 56.333 15.333 85 28l106 43
c34.667 10.667 74.667 20 120 28l99 -7l21 7c29.333 -8.66699 60 -13.334 92 -14.001c31.333 -13.333 66.666 -22.666 105.999 -27.999l70 -78l22 -14l49 21l-14 -35c13.333 -27.333 29.666 -53.333 48.999 -78c21.333 -24 42.666 -52.333 63.999 -85
c17.333 -29.333 33.666 -64.666 48.999 -105.999c-10.667 -10.667 -20 -24.667 -28 -42l43 -36l14 -120l-14 -106l21 -99l-7 -21l7 -49l-7 -14v-71c-0.666992 -36 -12.667 -73.667 -36 -113l-42 -35l42 7l14 -7c-0.666992 -37.333 -21.667 -56.333 -63 -57l-106 -7l-14 7
l-28 43l14 70l-14 177l7 70l-7 99l7 36v106l-7 21l-22 99l7 63c-11.333 4 -23 11.333 -35 22c-22.667 24.667 -43.667 55 -63 91l-106 36c-34 8.66699 -67 22.667 -99 42l-64 -21l-35 21l-177 -120c-26 -13.333 -42.333 -32 -49 -56c-16 -27.333 -27.667 -60.333 -35 -99
l-36 -22l28 -63l-28 -64l43 -28l-22 -99c-9.33301 -29.333 -14 -60 -14 -92c22 -26 41 -56.667 57 -92c-6 -22 -18 -40.667 -36 -56l29 -28l7 -57l-14 -56l-36 -43l-42 -7l-14 14l-106 7c-14 -9.33301 -30.667 -16.333 -50 -21l-14 42l14 15c0 26.667 -7 54.667 -21 84
l-7 57l7 14v113l7 57l-7 14l-14 268l7 127l-7 128l7 98l-7 22v106l7 21c6.66699 30.667 25.667 56.667 57 78c-42.667 2 -66.334 23 -71.001 63l-7 127c16.667 30 40.334 56 71.001 78zM217.004 1522l-50 -57l-21 -35l21 7l78 71zM111.004 1458
c-1.33301 6.66699 -6.33301 11.334 -15 14.001c2 -4.66699 7 -9.33398 15 -14.001zM224.004 1380l-7 -21h14v21h-7zM760.004 1303c2 -6 7 -10.667 15 -14c-1.33301 6 -6.33301 10.667 -15 14zM513.004 1267l-34.999 -28l21 -14l28 28
c-0.666992 6 -5.33398 10.667 -14.001 14zM859.005 1246c4 -10 11 -17 21 -21c-2.66699 10 -9.66699 17 -21 21zM909.005 1218l-7 -21h21l21 21h-35zM160.005 1140l7 -21v21h-7zM266.005 1140l14 -28l7 28h-21zM464.005 1133l-14.001 -21
c8.66699 4.66699 13.334 11.667 14.001 21zM111.004 1055l-7 -42l14 -14zM273.004 977.998l-7 -43l14 -14l7 7l7 43zM1121 977.998l-7 -36l21 22zM1092 871.998v14h-7zM245.004 857.998l7 -22v22h-7zM1121 772.998l-29 -36c2 -9.33301 7 -16.333 15 -21
c8 16.667 12.667 35.667 14 57zM1078 503.998c-9.33301 -16 -14 -32.333 -14 -49c8 14.667 12.667 31 14 49zM1064 447.998l-7 -50c10 9.33301 17 21.333 21 36z" />
    <glyph glyph-name="i" unicode="i" horiz-adv-x="352" 
d="M89 1340c15.333 -6.66699 33.998 -11.333 55.998 -14l21 7c25.333 -8 50.666 -19.667 75.999 -35c22 -16 33.667 -39.333 35 -70l7 -91l14 -20l-14 -49l-7 -77l14 -84l-14 -56l14 -21l7 -70l-14 -21l-21 -41l28 -21c6.66699 -24.667 11.334 -52.667 14.001 -84l-7 -91
c4.66699 -26.667 7 -57 7 -91l7 -35l-14 -28v-20h7l7 -98c-4 -21.333 -11 -44.666 -21 -69.999l-104 -7c-21.333 1.33301 -44.666 6 -69.999 14c-27.333 6 -43.666 24.667 -48.999 56c8 16 15 34.667 21 56l-14 21l-7 90l14 98l-21 196l7 104l-14 98
c8.66699 16 15.667 34.667 21 56l-21 14l-14 84l28 84l21 41l-35 14l-14 70l7 21c9.33301 23.333 23.333 46.666 42 69.999zM123.998 1082l-7 -42l28 28zM172.998 600.001l-7 -21l14 7v14h-7zM137.998 565.001l-7 -28l28 21zM220.998 558.001l-13.999 -35l28 21
c-0.666992 6 -5.33398 10.667 -14.001 14zM123.999 446.001c1.33301 -6 6 -10.667 14 -14c-1.33301 6 -6 10.667 -14 14zM241.999 328.001l7 -14v14h-7z" />
    <glyph glyph-name="j" unicode="j" horiz-adv-x="557" 
d="M426 1376c16 -10 28.9971 -25.6641 38.9971 -46.9971c11.333 -12.667 19.666 -28.334 24.999 -47.001l5 -53l-7 -32l12 -14l-7 -13l-7 -46l12 -20l-14 -39c1.33301 -4 5.66602 -8.33301 12.999 -13c-4 -34.667 -11.667 -74 -23 -118l25 -53l5 -73l-14 -45l6 -20l5 -66
c5.33301 -14.667 9.33301 -32.334 12 -53.001l-22 -59l13 -13l-23 -144c10.667 -18 19 -38 25 -60l11 -73c-8.66699 -10 -13.334 -23 -14.001 -39c2.66699 -14.667 4.33398 -32.334 5.00098 -53.001l-7 -19l-9 -79l-7 -19c2.66699 -15.333 4.33398 -33 5.00098 -53
c-19.333 -34 -35.666 -73 -48.999 -117l-40 -45l-28 -52c-29.333 -19.333 -60.666 -44.666 -93.999 -75.999l-113 -50c-14 -4 -27.333 -10.333 -40 -19c-24 4.66699 -48 12 -72 22c-5.33301 23.333 -8.66602 49.666 -9.99902 78.999l8 59l-12 46l60 51l53 19
c14.667 9.33301 28 22 40 38c30.667 21.333 55.667 51.333 75 90l23 137c-6.66699 44.667 -9.66699 95.334 -9 152.001l8 66l-5 59l8 65l-12 20l20 20l-19 40l-5 46l7 19l-12 60l9 72l-16 152c4.66699 35.333 20.334 56.666 47.001 63.999l-45 41l8 59l-11 66l15 65l-12 40
l13 13c4.66699 15.333 13.667 30.333 27 45l27 -7l66 11h13zM378.997 1311l-14.001 -26.001c8.66699 6.66699 13.334 15.334 14.001 26.001zM297.996 1248c3.33301 -9.33301 9.66699 -18.333 19 -27c-2 10.667 -8.33301 19.667 -19 27zM438.997 856.002l5 -99l13 6
c-2.66699 30 -8.66699 61 -18 93zM323.997 727.002c1.33301 -5.33301 5.66699 -9.66699 13 -13c-0.666992 6 -5 10.333 -13 13zM322.998 681.001l1 13l-7 1zM329.998 438.001l6 -20l1 20h-7zM433.998 383.001v13h-6zM393.998 344.001c0.666992 -10 4.66699 -18.667 12 -26z
M418.998 41.001c2.66699 -9.33301 8.99902 -18.333 18.999 -27c-1.33301 11.333 -7.66602 20.333 -18.999 27zM137.997 -148.999v13l-7 1zM321.997 -146.999l-7 -32l19 -1c-0.666992 12 -4.66699 23 -12 33zM260.997 -210.999c-7.33301 -6.66699 -12 -15.332 -14 -25.999
l27 13c-0.666992 5.33301 -5 9.66602 -13 12.999z" />
    <glyph glyph-name="k" unicode="k" horiz-adv-x="1027" 
d="M149 1685l117.999 -16.998l28 -35l-18 -203h7l-10 -119l5 -98l-7 -20l12 -106l-7 -20l11 -113l-8 -62c0 -12.667 4.66699 -20 14 -22l336 378l78 62l70 6l21 -8h28l98 12l42 -8c-6 -22 -16 -45.333 -30 -70l-78 -61l-69 8l-8 -41c8.66699 -16 15.334 -35 20.001 -57
l-49 -6c-21.333 -20.667 -38.333 -48.334 -51 -83.001c-16 -22.667 -35 -45.667 -57 -69l-65 -82l-71 -62l-22 -27c17.333 -14 33.333 -30.667 48 -50l69 -72l61 -85l137 -143c20.667 -22.667 34.334 -50.667 41.001 -84c26 -14 51 -33.333 75 -58l69 -71l-85 -47l-77 15
l-21 -13l-56 -6l-55 29l-329 377c-12.667 26.667 -35.667 41 -69 43l14 -42l-15 -21c-14 3.33301 -27.667 10.666 -41 21.999l-15 -21l20 -35l22 21l26 -99l-1 -56l7 -14l-8 -7l-7 -21l14 -7l19 -112c-18.667 -28.667 -47.334 -49 -86.001 -61l-97 8l-22 -13l-55 15l-7 28
l9 63l-14 42c5.33301 33.333 8.66602 70.666 9.99902 111.999l21 34c-10 16 -19 35 -27 57l-5 63l8 49l-12 119l8 35c-8 9.33301 -10.333 21 -7 35l-3 175l8 42l-7 35h-7l8 42l-5 77l7 28l57 41c-26 4.66699 -44.333 21.334 -55 50.001l-17 224l8 21l-5 105l14 21
c30.667 7.33301 61.334 18.333 92.001 33zM111.999 1567l-8 -21l14 6l1 14zM177.999 1397v-14l14 7zM85.999 1336c7.33301 -8.66699 16.667 -13.333 28 -14zM99 1280v-14l14 7zM861 1251v14h-7zM735 1246l-8 -55.001l6 -15l15 56c-0.666992 6.66699 -5 11.334 -13 14.001z
M104 1161c1.33301 -13.333 5.66699 -27.333 13 -42l14 20zM733.001 1135l6 -22l1 21zM207.001 1089c2.66699 -13.333 9.33301 -25.333 20 -36c-1.33301 13.333 -8 25.333 -20 36zM780 1071c-1.33301 -8.66699 -6 -15.667 -14 -21zM471 986.002l-22 -35
c12 8 19.333 19.667 22 35zM204 949.002h14l1 14h-7zM217 886.002l-15 -35l21 -7l1 35zM278 787.002c1.33301 -6.66699 6 -11.667 14 -15c-1.33301 4.66699 -6 9.66699 -14 15zM430 707.002c6 -10.667 15.332 -20.334 27.999 -29.001
c-5.33301 10.667 -14.666 20.334 -27.999 29.001zM94.999 706.002c4 -9.33301 10.667 -16.333 20 -21zM296.999 688.002c3.33301 -8.66699 10.333 -13.333 21 -14zM366.999 687.003l-21 -21l13 -14l29 21zM107.999 650.003l-1 -14l14 7zM248.999 367.003l-15 -68.999
c10.667 -4.66699 19.667 -14.334 27 -29.001l14 21l-13 56zM121.999 328.004l-8 -56l14 7l15 41zM259.999 227.004c-10 -8.66699 -17.333 -20 -22 -34c12.667 6.66699 20 18 22 34z" />
    <glyph glyph-name="l" unicode="l" horiz-adv-x="366" 
d="M176 1739c42.667 -4.66699 85.6689 -16.332 129.002 -34.999l-13 -177l13 -20l-7 -21l-13 -20c5.33301 -36 16.666 -72.333 33.999 -109c-12.667 -32.667 -21.667 -71.334 -27 -116.001l13 -102l-7 -20l7 -62l-13 -20h-68c28.667 -10 49 -28.333 61 -55l27 -20l-20 -68
l13 -82l-34 -21c19.333 -32.667 33 -71 41 -115l7 -62l-7 -47l7 -21l-27 -20l27 -68l-7 -103l14 -88l-28 -34c-3.33301 -19.333 -12.333 -37.666 -27 -54.999l14 21l-14 7l-115 6l-68 14l-14 20l7 109l-14 137l7 116l-7 95l7 20c-8.66699 46 -13.334 96 -14.001 150l-6 143
l6 130c0 44 -4.33301 91.667 -13 143l7 143l54 68c13.333 -6.66699 29.333 -13.334 48 -20.001l-28 27l-20 13c-15.333 -4 -33.333 -6 -54 -6l-14 41l14 20l-14 82l20 47c31.333 14 70 25.667 116 35zM94.002 1589l-5.99902 -28.001l6 -13l14 -7l27 7
c-10.667 14.667 -24.334 28.334 -41.001 41.001zM101.003 1125c2.66699 -10 9.66699 -19 21 -27c-2 10.667 -9 19.667 -21 27zM210.003 751.001c9.33301 -15.333 23 -29 41 -41c-8 16 -21.667 29.667 -41 41zM196.003 444.001v14h-6zM115.003 355.001l7 -20l6 14z
M237.003 342.001l21 -7l6 20h-13z" />
    <glyph glyph-name="m" unicode="m" horiz-adv-x="2236" 
d="M568 1341l56.0068 -15.002l22 15l232 -43l71 -35c22.667 -4.66699 43.667 -14 63 -28l78 -28c11.333 -17.333 20.666 -38.666 27.999 -63.999c7.33301 -8.66699 16.666 -13.334 27.999 -14.001l56 49l71 36c21.333 12.667 44.666 22 69.999 28l78 35l70 14l57 21l21 -14
l56 7l21 -7l177 -14c22 -12.667 47.667 -22 77 -28l57 -42c16 -16.667 30 -38 42 -64c22.667 -6.66699 46 -18.334 70 -35.001l43 -63l49 -134l14 -64l-7 -21l-42 -28h28l7 -56l-28 -36c20 -12.667 38.667 -29 56 -49v-92l7 -42l-14 -14l7 -14l-7 -85l-14 -49l21 -21l-7 -85
l-21 -42c-10 4 -19.333 11 -28 21l7 43l-21 -29l-7 -63l21 -14l-7 -42l-50 7l-21 14l-56 -14c-22 8.66699 -43.333 22.667 -64 42l22 56l-22 71l7 98l-7 36l7 7v28h-7l7 7l-7 169l7 21l-14 92c-3.33301 22 -10.333 45.333 -21 70l-21 85c-14.667 16 -28.667 34.667 -42 56
c-22 11.333 -43.333 25.333 -64 42c-12.667 14.667 -29 29 -49 43l-77 21l-64 -7l-21 14c-20 -3.33301 -41 -10.333 -63 -21c-23.333 -10.667 -49.333 -17.667 -78 -21l-35 21l-14 -35l-92 -113l-35 -71c-16 -10 -30.333 -24 -43 -42c9.33301 -18.667 16.666 -42 21.999 -70
l-7 -43l7 -14l-7 -14l7 -7l7 -21l-14 -14l7 -42l-7 -57l7 -21l14 -77l-7 -78c3.33301 -16 5.66602 -34.667 6.99902 -56l-7 -14v-22l7 -63l-21 -14l-78 -14c-18.667 -7.33301 -39.667 -12 -63 -14c-25.333 1.33301 -51.333 6 -78 14c-10 23.333 -17 49 -21 77l-7 21l7 50
v120l-7 63l14 21v92l-7 56l7 21l-7 57l7 21l-14 56l7 21l-28 78l-43 63l-56 50c-15.333 14.667 -34 28.667 -56 42l-85 21l-84 7c-22 -4 -43.333 -11 -64 -21c-20.667 8 -44 15 -70 21l-50 -56c-22 -11.333 -43 -25.666 -63 -42.999l-50 -49l-42 -63l-14 -78l7 -92l-7 -56
l7 -21l7 -141l-7 -14l7 -7l-14 -85l14 -42l-21 -14c11.333 -25.333 20.666 -53.666 27.999 -84.999l-7 -49l7 -21v-21l-84 -21l-64 14l-21 -7c-21.333 10.667 -40 27 -56 49c13.333 11.333 20.333 25.333 21 42l-21 14l-7 29l14 28c5.33301 18.667 19.333 28 42 28
c-5.33301 21.333 -17 35.333 -35 42l-14 71l-14 183c8 25.333 15 53.333 21 84l-28 78l14 141l-14 21l14 92l-21 70l-7 64l7 21c0 22 4.66699 45.333 14 70l77 28l78 -14l42 7c-0.666992 -15.333 -5.33398 -31.666 -14.001 -48.999l42 -49l57 49zM646.007 1277l14 -7l7 14
l-14 7zM1534.01 1263c3.33301 -10 10.333 -19.333 21 -28c0 12.667 -7 22 -21 28zM1809.01 1228l-7 -28l14 7v21h-7zM1280.01 1200c1.33301 -23.333 6 -47.001 14 -71.001l14 57c-6.66699 6.66699 -16 11.334 -28 14.001zM1935.01 1136v14h-7zM780.007 1143
c0 -9.33301 4.66699 -16.333 14 -21zM1766.01 1129l-14 -28l50 -14zM2020.01 1059v14h-7zM1061.01 1009v14h-7zM2091.01 945.997v14h-8zM103.007 945.997l-7 -21l14 -7l14 28h-21zM1005.01 924.997l7 -7l14 7v14h-7zM1942.01 910.997l-7 -21h15v21h-8zM1054.01 860.997
c-2.66699 -16.667 -12 -33.001 -28 -49.001c8 -21.333 12.667 -44.666 14 -69.999l14 42c4 16 6.33301 34.667 7 56v21h-7zM131.007 719.996v15h-7zM96.0068 719.996l21 -14c-4 7.33301 -11 12 -21 14zM2105.01 508.996l14 -7v21h-7zM2126.01 367.996l7 -21l7 21h-14z
M1985.01 290.996c1.33301 -6.66699 6 -11.333 14 -14c-1.33301 6 -6 10.667 -14 14zM1174.01 233.997v-14l14 7zM223.007 226.997l28 -21c-6 10.667 -15.333 17.667 -28 21z" />
    <glyph glyph-name="n" unicode="n" horiz-adv-x="1302" 
d="M198 1330c30.667 -6 61.667 -18 93 -36l-7 -100l65 50l180 65l72 14l21 -7l101 7c29.333 -2 60.333 -6.66699 93 -14l87 -36c25.333 -11.333 51.666 -25.666 78.999 -42.999l122 -115c14 -22 23.667 -48.333 29 -79c28.667 -8.66699 47.667 -30.334 57 -65.001l36 -87
c9.33301 -25.333 14.333 -54 15 -86l21 -93c-4.66699 -34 -7 -72.667 -7 -116l7 -28l-21 -180l-15 -29l15 -65l-7 -100c-23.333 -18 -50 -32.667 -80 -44l-115 8c-28 6.66699 -44.667 25.667 -50 57l14 180l-7 29l7 101l8 14l-15 36c6 57.333 13.333 100.333 22 129
c-9.33301 28.667 -16.666 60 -21.999 94l-29 86c-10.667 23.333 -25 47.333 -43 72c-12 26 -28.667 50 -50 72c-23.333 16 -47.333 35.333 -72 58l-173 14l-100 -22l-87 -35l-57 -65l-58 -187l-21 -187l21 -187l-7 -29l7 -79l15 -58l-15 -21
c-12.667 -19.333 -31.667 -36.333 -57 -51c-25.333 -10 -54.333 -17 -87 -21l-100 21l-15 72l7 29l-14 93l7 72l-7 22l-7 79l7 29l-14 180l7 79l-14 50l7 51v21l-7 79l7 29l-7 58l7 50l-7 65l7 21c12 22 28.667 41.333 50 58zM90 1280v-36l21 29zM723 1280
c-14.667 -6 -26.667 -15.667 -36 -29l43 15l7 -29l36 29zM579 1273l-7 -29l14 -14l29 36zM824 1259c6.66699 -12.667 15.999 -24.667 27.999 -36c-5.33301 14 -14.666 26 -27.999 36zM96.999 1208l-7 -21l14 -15l7 29zM96.999 1143c0.666992 -10 5.33301 -19.333 14 -28
l8 28h-22zM233.998 1107l-15 -36l22 8l7 28h-14zM923.998 1100c-8.66699 -11.333 -13.334 -23.333 -14.001 -36c8.66699 10.667 13.334 22.667 14.001 36zM405.998 1064v15h-7zM269.998 956c-8.66699 -20.667 -20.667 -42 -36 -64l-15 -44l22 -7l29 58l14 50zM1147 949
c-10 -26.667 -17 -53 -21 -79l36 22zM103.998 913l15 -43l14 36zM1183 834l-7 -36h14v7zM233.998 812l-21.999 -28c11.333 6 18.666 15.333 21.999 28zM1183 611c-18.667 -18.667 -30.667 -40.333 -36 -65l51 29c-0.666992 13.333 -5.66699 25.333 -15 36zM1054 525.001v-15
l14 8zM132.999 518.001l-14 -65l21 14l29 43zM125.999 424.001c1.33301 -6 6.00098 -10.667 14.001 -14c-0.666992 6 -5.33398 10.667 -14.001 14zM1090 424.001c-10.667 -9.33301 -20.333 -21.333 -29 -36c16 6.66699 25.667 18.667 29 36zM126.001 352.001
c2 -9.33301 6.66699 -16.333 14 -21c-1.33301 9.33301 -6 16.333 -14 21zM1169 316.001l-7 -43.001l21 29c-1.33301 4.66699 -6 9.33398 -14 14.001zM1047 302l-8 -29l36 29h-28zM234.001 237v14h-7zM205.001 230l-22 -21.999c14.667 3.33301 22 10.666 22 21.999z" />
    <glyph glyph-name="o" unicode="o" horiz-adv-x="1238" 
d="M643 1353l103.002 -20.001l14 14c24 -15.333 46.667 -38.333 68 -69c14.667 7.33301 30.667 12 48 14l27 -34l-13 -21c18.667 0.666992 37 5.33398 55 14.001l27 -35c13.333 -26 31.666 -48.667 54.999 -68c33.333 -21.333 58.333 -51 75 -89
c27.333 -28 50.333 -60 69 -96l13 -110l-13 -7v-13h7l20 -96l-7 -14l-27 -123c-9.33301 -36 -25.333 -75 -48 -117l-62 -102c-22 -26 -49.333 -51.333 -82 -76c-25.333 -28 -57.333 -50.667 -96 -68l-110 -55l-137 -21h-68l-21 -7l-157 62c-34 13.333 -68.333 34 -103 62
c-30.667 18 -60.334 43 -89.001 75c-24 26.667 -47 56.334 -69 89.001c-18.667 31.333 -34.667 70.333 -48 117c-14.667 31.333 -23.667 67.666 -27 108.999l-7 21l7 62l-7 54c3.33301 46 17 89.667 41 131c2.66699 30 12 64 28 102c13.333 32 33.666 66.333 60.999 103
l89 75c30.667 22.667 67.334 41 110.001 55l55 35l27 -42c16.667 27.333 42 48 76 62c35.333 4 74 13 116 27zM855.002 1237c4.66699 -15.333 11.667 -31.333 21 -48l7 41zM616.002 1155c-20.667 -17.333 -45.999 -33.334 -75.999 -48.001l-55 -7l-6 34
c-18.667 -13.333 -32.667 -31.666 -42 -54.999l-68 -48c-17.333 -8.66699 -31 -22.334 -41 -41.001l20 -54l-34 -14l-41 -7l-14 7c2 -10.667 6.66699 -20 14 -28l21 -13l-14 -48c-3.33301 -24 -10.333 -49.333 -21 -76l-13 -61
c21.333 -11.333 32.666 -29.666 33.999 -54.999l27 -69l48 -75l55 -62l55 -27l68 -21l83 -6l6 -28l138 48l137 89l41 76l54 54c-10 24.667 -16.667 52.334 -20 83.001l7 96c-4 30 -11 61.667 -21 95c-10 26 -19 56 -27 90c-22.667 7.33301 -45.667 18.666 -69 33.999l-55 61
l-20 35l-34 -21l-83 21zM992.003 1141l7 -55l14 41zM869.003 1114c2 -10.667 6.66797 -20 14.001 -28c-0.666992 10 -5.33398 19.333 -14.001 28zM273.004 969.998l7 -21v21h-7zM1157 845.998c0.666992 -12.667 5.33301 -26.333 14 -41c-1.33301 14 -6 27.667 -14 41z
M1047 804.999l-7 -61.001c3.33301 -19.333 10.333 -37.666 21 -54.999l-7 75l7 21c-1.33301 9.33301 -6 16 -14 20zM1150 729.998l14 -21c-2 9.33301 -6.66699 16.333 -14 21zM287.003 476.998v-28l27 14zM184.003 434.998v14h-7zM390.003 393.998
c4 -21.333 15.333 -41.667 34 -61zM232.003 380.997c0.666992 -6.66699 5.33301 -11.334 14 -14.001c-2 4.66699 -6.66699 9.33398 -14 14.001zM622.002 345.997v-13l14 6zM910.002 325.997v-14h7l28 7zM725.002 284.997l7 -35l14 14l-14 34zM855.002 297.997
c4 -9.33301 11 -16 21 -20c-4 8 -11 14.667 -21 20z" />
    <glyph glyph-name="p" unicode="p" horiz-adv-x="1324" 
d="M602 1346l134.997 -21l14 7h21l150 -36l78 -28l128 -86l43 -56l71 -143l42 -135l-14 -21l7 -50l-7 -14v-21l-14 -78l14 -22c-6.66699 -16 -11.334 -34.667 -14.001 -56l-29 -71c-11.333 -22.667 -20.666 -49 -27.999 -79l-100 -120l-56 -43
c-18 -15.333 -39.333 -29.666 -64 -42.999l-150 -64c-27.333 2 -55.666 7 -84.999 15l-71 -36c-25.333 8.66699 -53.666 15.667 -84.999 21l-157 36l-64 43l-42 14l-7 -22l7 -7c-0.666992 -30.667 -5.66699 -63.667 -15 -99l-14 -36l7 -14l15 -14l7 -71l-7 -21l14 -21
l-22 -50l8 -71c-23.333 -11.333 -49.666 -21 -78.999 -29l-57 -7l-21 7c-24.667 7.33301 -50.667 17 -78 29c6.66699 15.333 16 29.666 28 42.999l-21 14l-14 85l-7 191l14 64l-7 22l7 85l-7 85l-7 21l21 128l-14 15c-3.33301 22 -10.333 45.667 -21 71l7 78l-15 21l15 50
l-7 57l7 21l-7 64v21h-8l8 64l-8 57l8 21c-6.66699 28.667 -11.667 59.667 -15 93c0.666992 25.333 8 49 22 71c8 19.333 22 36 42 50l50 -8l14 8l22 7l99 7c10 -24.667 17 -50.667 21 -78l22 -15l42 29l157 57l42 -7l15 7zM843.997 1268l42 -36
c-11.333 16.667 -25.333 28.667 -42 36zM331.997 1175c2 -10.667 6.66699 -20 14 -28l7 28h-21zM1014 1175c17.333 -31.333 45.667 -55 85 -71zM217.998 1126v14h-7zM622.998 1111l-85 -14c-20 -16.667 -43.667 -30.667 -71 -42l-50 -57c-18.667 -14 -37.667 -33 -57 -57
l-35 -78c-15.333 -22 -36.666 -38.667 -63.999 -50c-22 -10 -43.333 -24.333 -64 -43l-15 -49l22 7c17.333 10 34 24 50 42c15.333 -2.66699 29.333 -9.66699 42 -21l22 -85l35 -71l7 -71c16.667 -16.667 33.334 -35.667 50.001 -57l235 -100l85 22l85 7l78 35l107 121
l28 78l15 93c-0.666992 27.333 -3.33398 58 -8.00098 92l-28 85l-43 64c-14.667 18.667 -33.334 37.667 -56.001 57c-11.333 22 -28 36.333 -50 43l-50 42l-57 -7l-14 7l-21 7l-57 -7l-14 7h-22zM1050 983l-7 -21l14 7v14h-7zM1199 877l-7 -29.001l21 15
c-1.33301 4.66699 -6 9.33398 -14 14.001zM1185 847.999l-14 -35c9.33301 10 14 21.667 14 35zM167.998 833.999l-21 -42c12 10.667 19 24.667 21 42zM1192 727.999c1.33301 -16.667 10.667 -28.667 28 -36zM210.999 641.999l-21 -49c10.667 14.667 17.667 31 21 49z
M1156 620.999l-14 -64.001l14 7l22 43c-4 6.66699 -11.333 11.334 -22 14.001zM139.999 528.998v-14l14 7zM1021 492.998l-14.001 -28c8.66699 8 13.334 17.333 14.001 28zM317.998 485.998c12.667 -18.667 28.999 -35.333 48.999 -50c-11.333 20 -27.666 36.667 -48.999 50
zM153.997 414.999v-14l14 7zM523.997 236.999c9.33301 -8 21 -12.667 35 -14zM238.997 30.999l-14 -42c9.33301 10.667 14 24.667 14 42zM117.997 -96.001l-7 -21h15v21h-8zM238.997 -96.001c-13.333 -17.333 -29.667 -33.999 -49 -49.999h28l43 7
c-2 15.333 -9.33301 29.666 -22 42.999z" />
    <glyph glyph-name="q" unicode="q" horiz-adv-x="1236" 
d="M1072 1334l89.002 -19c11.333 -14.667 19.666 -33.334 24.999 -56.001l-11 -69l18 -42l-15 -27l18 -49l-22 -13l13 -21l-23 -34l18 -56l-19 -82l11 -62c2.66699 -25.333 3.33398 -53 2.00098 -83l-15 -20l18 -43l3 -69l-8 -20l13 -139l-8 -20l4 -49l-7 -13l-15 -13l4 -56
c-10 -16.667 -15.667 -34.667 -17 -54c9.33301 -20.667 15 -44 17 -70c0 -28 2.66699 -58 8 -90c-7.33301 -23.333 -13.333 -50.666 -18 -81.999c5.33301 -22 8.66602 -47.333 9.99902 -76l-77 -10l-20 9l-56 -11c-24 6 -48.667 16.667 -74 32
c-14.667 15.333 -25 34.333 -31 57l4 75h-7l22 27c-4.66699 16 -8.33398 34.333 -11.001 55l-2 77c-17.333 -3.33301 -34 -9.33301 -50 -18l-154 -40l-55 -4l-20 15l-83 -2l-54 17l-15 -13c-22.667 8 -45 20.667 -67 38l-53 31c-24 8 -46.333 20.667 -67 38l-53 44
c-14 18.667 -33.667 33.667 -59 45l-46 58l-23 70c-12 20.667 -27 40 -45 58l-4 63l-23 77l-2 90l10 54l-5 21l17 68l56 135l89 113l58 38c19.333 11.333 38.333 26.333 57 45l142 54l152 12l20 -15l62 4l21 -8c22.667 -3.33301 45 -11.666 67 -24.999l63 4l20 -8
c16.667 -14.667 36.667 -27.334 60 -38.001l28 12l-18 36c9.33301 18 24 33 44 45l89 -5v7zM1049 1287c0.666992 -6 5 -10.667 13 -14c-0.666992 6 -5 10.667 -13 14zM805.002 1239l-23.001 -27c12.667 6 20.334 15 23.001 27zM708.001 1237l-15 -26.001
c8.66699 6.66699 13.667 15.334 15 26.001zM865.001 1208l-15 -20.001c8.66699 4.66699 13.667 11.334 15 20.001zM932.001 1163c0.666992 -6 4.99902 -11 12.999 -15c-1.33301 4.66699 -5.66602 9.66699 -12.999 15zM319 1190l-23 -33c13.333 7.33301 21 18.333 23 33z
M309 1136l-1 -14l7 -1v14zM384 1131c9.33301 -16 22.667 -28 40 -36zM686.001 1120c-19.333 -10 -42 -18.667 -68 -26l-82 -3l-51 18l-15 -7l-55 -41l-47 -57l-34 -65l-62 -190l21 -16l4 -60l-9 -22c6 -20.667 14.667 -43.334 26 -68.001l83 -109
c20.667 -9.33301 39.667 -22.666 57 -39.999l51 -18l23 6l58 -33l23 14l51 -18c24 4 46.667 12.667 68 26l68 19l69 33l47 42l33 72l11 52l23 13l-20 39l10 51l-7 15l-13 157c-10.667 18 -24.667 36 -42 54c-9.33301 20.667 -23 39 -41 55l-42 54l-65 34zM1137 1006l1 14h-7
zM304.001 1060l-7.99902 -27l6 -8c13.333 7.33301 25.666 18.333 36.999 33zM151.002 1027c4.66699 -7.33301 11 -12.333 19 -15zM197.002 989.998c1.33301 -13.333 10 -23.001 26 -29.001c-4 10.667 -12.667 20.334 -26 29.001zM158.002 908.997l26 -22
c-5.33301 10.667 -14 18 -26 22zM114.002 738.997v14h-6zM195.002 706.997c-17.333 -26.667 -28.332 -58.333 -32.999 -95l44 46c-0.666992 16.667 -4.33398 33 -11.001 49zM117.003 669.998l13 -1l1 14h-7zM1114 599.998l-18 -75l33 -23l8 21l-11 49l8 20zM929.003 499.998
l-9 -34l14 6zM312.003 464.998l20 -14.001c-3.33301 6.66699 -10 11.334 -20 14.001zM806.003 395.997c-8.66699 -6 -14.001 -14.667 -16.001 -26l35 11c-3.33301 7.33301 -9.66602 12.333 -18.999 15zM227.002 414.997l47.001 -23c-12.667 9.33301 -28.334 17 -47.001 23z
M884.003 315.997l-64 -38c-12 -8.66699 -19.667 -19.667 -23 -33l57 38c13.333 7.33301 23.333 18.333 30 33zM421.003 313.997c14 -8 30 -13.333 48 -16zM1103 40.9971l14 -1l1 14l-7 1z" />
    <glyph glyph-name="r" unicode="r" horiz-adv-x="708" 
d="M179 1349l102 -32.001l29 -23c-6.66699 -15.333 -12.334 -34.666 -17.001 -57.999c26.667 0.666992 54 7 82 19l96 42c33.333 10.667 75.333 19 126 25c33.333 -12.667 57 -37.667 71 -75l-24 -73l14 -22c-11.333 -24.667 -26.666 -49 -45.999 -73
c-35.333 -1.33301 -72.333 -7.33301 -111 -18c-32 -12 -64 -28.333 -96 -49l-76 -71c-20.667 -28.667 -34 -62.667 -40 -102l4 -125l-10 -102l14 -23l-11 -124l-8 -29c2 -22 6 -46.667 12 -74l-16 -59l5 -66l28 -52l-38 -36l-29 9l-74 -13l-14 8l-80 17l-21 37l17 80
c12 11.333 22 26 30 44c-13.333 0 -25.333 5 -36 15l-11 125l10 74l-7 22l-1 213l37 21l-43 23l9 59l-13 73l16 29l-19 126l4 124c4 32 14.667 63.667 32 95zM104 1285c1.33301 -6.66699 6 -11.667 14 -15c-1.33301 4.66699 -6 9.66699 -14 15zM491 1208v15h-7zM165 1107v15
h-7zM143 1108c-8.66699 -12 -14 -26.667 -16 -44l30 36zM222 1047l7 -23v22zM288 1037l-1 -14l15 7zM100 645.999c20 -28 48.668 -53.333 86.001 -76c-24.667 26.667 -53.334 52 -86.001 76zM117.001 212.999c7.33301 -8.66699 17 -14 29 -16z" />
    <glyph glyph-name="s" unicode="s" horiz-adv-x="907" 
d="M387 1350l111.993 -7c30.667 -1.33301 63 -6 97 -14l83 -41c18 -19.333 39 -38 63 -56l55 -153v-21h7l-7 -48l-27 -14l-91 -14c-21.333 -13.333 -46.666 -20.333 -75.999 -21c-13.333 20.667 -29.666 39.334 -48.999 56.001l-21 83c-20 18.667 -45.333 32.667 -76 42
l-83 -35l-35 -84l-28 -48l21 7l7 -7l69 -49l153 -49l77 -41l41 -7l70 -42l48 -70l42 -83l14 -49l-7 -14l-14 -20l-35 14v-49h7l28 21c12.667 -9.33301 24.334 -21 35.001 -35l-14 -84l-35 -83c-15.333 -22 -33.666 -43 -54.999 -63c-17.333 -21.333 -38.333 -42 -63 -62
l-69 -49l-188 -14l-21 7l-83 7l-84 28l-76 42l-63 62l-48 70l-21 97l7 28l-14 70l14 27l83 -7l91 -20c30.667 -10 49 -33.333 55 -70c6.66699 -28 25.334 -49 56.001 -63l69 -55c29.333 -0.666992 57.333 -5.33398 84 -14.001l83 42l56 55l7 56l-14 49
c-18 18.667 -41.333 34.667 -70 48l-90 63l-63 -7c-21.333 16.667 -46.666 33 -75.999 49l-70 48c-23.333 15.333 -46.333 34 -69 56c-17.333 6 -33.666 17.667 -48.999 35l-48 153l14 20c-1.33301 26.667 -8.33301 40.667 -21 42l27 98c16 21.333 34.667 42 56 62
c10 22.667 24 46 42 70l97 21zM699.993 1239c10.667 -10 24.667 -19.332 42 -27.999c-10.667 11.333 -24.667 20.666 -42 27.999zM220.993 1218v-14l14 7zM546.993 1204l-7 -35l7 -6l21 27zM136.993 1037c2 -8.66699 6.66699 -15.333 14 -20l7 20h-21zM616.993 808.002
c2 -10.667 9 -20 21 -28c-2 12 -9 21.333 -21 28zM713.993 731.002c8.66699 -32 27.333 -59.667 56 -83c-13.333 28 -32 55.667 -56 83zM518.992 683.002l21 -7v21h-7zM755.992 356.002l7 -21l7 21h-14zM560.992 335.002l14 -21c-1.33301 9.33301 -6 16.333 -14 21z" />
    <glyph glyph-name="t" unicode="t" horiz-adv-x="706" 
d="M363 1599l82.0029 -70.0029c7.33301 -31.333 13.333 -68.666 18 -111.999l5 -84l39 -7l97 7l6 -35l45 -14l-1 -63h7l-7 -21l12 -67l-14 -21c-32.667 0 -69.334 -4.66699 -110.001 -14l-58 7l-20 -63l10 -199l-7 -21l-1 -49l6 -21l5 -119h7l-7 -7l5 -112
c-0.666992 -27.333 -3.33398 -57.666 -8.00098 -90.999l13 -21l-9 -126l6 -70l-33 -35c-31.333 -2.66699 -66 -12 -104 -28c-36 4.66699 -72.333 18.667 -109 42l-19 28c10 18.667 16.667 39.667 20 63l-11 112l13 21l-5 105l8 70l-13 21l7 21l-6 63l8 70l-9 290
c-2.66699 16 -4.33398 34.667 -5.00098 56l-117 -14l-19 7l-38 28c-8 16.667 -12 48.334 -12 95.001c1.33301 40.667 17 78 47 112c28 4 62.667 6.33301 104 7l19 -7l13 21l-5 112l41 98zM277.003 1487l-7 -21l13 7v14h-6zM338.003 1284l-7 -56l13 7l14 42zM565.003 1284
c5.33301 -17.333 13.667 -33.666 25 -48.999c-2 19.333 -10.333 35.666 -25 48.999zM286.004 1270v-14l13 7zM215.004 1256l-7 -21h13l1 21h-7zM297.004 716.997l-7.00098 -35l26 7c-1.33301 10.667 -7.66602 20 -18.999 28zM299.003 422.997l-6.00098 -21h19
c-1.33301 9.33301 -5.66602 16.333 -12.999 21z" />
    <glyph glyph-name="u" unicode="u" horiz-adv-x="1279" 
d="M1199 1326c14.667 -16 25.667 -35.332 33 -57.999l-18 -90c10.667 -24.667 19 -53 25 -85l-9 -70l-1 -21h7l-10 -91l4 -71l-7 -20l7 -197l-8 -21l11 -288l-8 -21l5 -56c-14 -25.333 -33.667 -48 -59 -68l-55 9l-22 -13l-21 7
c-32.667 5.33301 -67.334 13.666 -104.001 24.999l-6 43l-135 -59l-84 -4c-30 -12.667 -63 -20.667 -99 -24l-22 -7l-55 9c-30 9.33301 -60 22.333 -90 39l-98 24l-89 39l-69 51c-20.667 18 -41 39.667 -61 65l-39 86l-46 72c-5.33301 31.333 -13.666 64.333 -24.999 99
l-11 71l8 27l-7 204l11 105l-3 105l20 175l91 4l49 -9l21 6l21 -1c21.333 -12.667 42 -29.667 62 -51l6 -28l-17 -77l-59 -61c11.333 -9.33301 25 -19 41 -29l14 -22l-9 -63l-16 -94l-10 -77l34 -248c12 -27.333 27.333 -53.333 46 -78
c19.333 -17.333 42.333 -34.666 69 -51.999l82 -45c24.667 -9.33301 52.667 -17.333 84 -24c30.667 2.66699 63.667 10.667 99 24l27 -15c36 -4.66699 62.667 -0.666992 80 12l72 46l65 61l45 76l18 111l-6 22l16 48l-7 21l10 77l-6 29l-22 307l8 20l-7 15l8 6
c12.667 22 29.667 40.333 51 55l105 3c23.333 7.33301 45 20.666 65 39.999zM103 1281c0.666992 -8 5 -15.333 13 -22l22 20zM242 1262l-58.001 -68c-17.333 -16 -29.666 -34.333 -36.999 -55c20 17.333 39.333 37.666 58 60.999c16 16.667 28.333 37.334 37 62.001z
M1026 1220l14 -15l-6 28zM1119 669.001l-8 -42l15 28v14h-7zM159.999 535.001c0.666992 -10 5 -19.667 13 -29zM1155 485.001c1.33301 -9.33301 5.66602 -16.333 12.999 -21c-1.33301 9.33301 -5.66602 16.333 -12.999 21zM576.999 232.001
c10.667 -12.667 24.333 -22.333 41 -29z" />
    <glyph glyph-name="v" unicode="v" horiz-adv-x="1225" 
d="M265 1337c18.667 -17.333 37.334 -38.333 56.001 -63l28 -77l43 -63c9.33301 -24.667 16.333 -53 21 -85l14 -77l49 -56l35 -77c6.66699 -24.667 16 -50.334 28 -77.001l49 -71l21 -70c6.66699 -26 16 -51.667 28 -77l36 77l21 70l35 71c2.66699 25.333 9.66699 51 21 77
l21 91c6 22 15.333 45.333 28 70c3.33301 22 10.333 45.667 21 71c4 21.333 11 44.666 21 69.999l21 91c13.333 22 25 47.667 35 77l169 14l21 -7l77 -14l21 -28l-49 -21l14 -63l-35 -126l-70 -134c-2.66699 -22 -9.66699 -43 -21 -63c-15.333 -14 -27 -32.667 -35 -56
c-14 -10 -30.667 -17 -50 -21c-4 9.33301 -11 16.333 -21 21l-35 -21l35 -14c15.333 -20 27 -43.667 35 -71l-21 -77c-12 -21.333 -28.333 -42.333 -49 -63l-14 -84l-70 -246c-7.33301 -25.333 -19 -51.333 -35 -78l-63 15l-21 -7l-162 -8v-7l-21 15l-63 147
c-10 22.667 -17 48.334 -21 77.001c10.667 8.66699 17.667 20.334 21 35.001l-21 -21l-43 71c-4 22 -11 45.333 -21 70l-168 379l-28 84l-35 71c-11.333 25.333 -21 53.333 -29 84l-35 77c-8.66699 22 -13.334 45.333 -14.001 70l21 14c12.667 -8 27 -12.667 43 -14l91 7
c22.667 2.66699 46 9.66699 70 21zM293 1162c2 -9.33301 6.66699 -16.333 14 -21zM1031 1042l-7 -21l14 7v14h-7zM251 1035c1.33301 -6 6 -10.668 14 -14.001c-1.33301 4.66699 -6 9.33398 -14 14.001zM230 908.999c2.66699 -13.333 9.66699 -25.001 21 -35.001
c-2 12.667 -9 24.334 -21 35.001zM377 845.998c4.66699 -6.66699 12 -11.333 22 -14zM757 761.999l-7.00098 -57l21 7l-7 28c4.66699 2 9.33398 6.66699 14.001 14zM903.999 739.999l-14 -35l21 7l7 28h-14zM735.999 655.999l-21 -28c12.667 6 19.667 15.333 21 28z
M721.999 508.999v14h-7zM482.999 339.999c4 -9.33301 11 -16.333 21 -21c-3.33301 10 -10.333 17 -21 21zM510.999 304.999l-7.00098 -21c4.66699 2 9.33398 6.66699 14.001 14zM650.998 241.999c4 -12.667 13.668 -22 29.001 -28c-4.66699 10 -14.334 19.333 -29.001 28z
M714.999 199.999c-1.33301 6 -6 10.668 -14 14.001c1.33301 -4.66699 6 -9.33398 14 -14.001z" />
    <glyph glyph-name="w" unicode="w" horiz-adv-x="2119" 
d="M1117 1343l90.001 -12.998l20 -76c12 -21.333 21.333 -46.333 28 -75c10.667 -17.333 26.667 -31.333 48 -42l20 -20l-20 -41c2.66699 -23.333 9.33398 -48.666 20.001 -75.999l69 -124c8 -21.333 12.667 -46.333 14 -75c6.66699 -22.667 18 -43.334 34 -62.001l27 -68
c0.666992 -20.667 5.33398 -41.334 14.001 -62.001c12 -15.333 28 -29 48 -41c5.33301 21.333 14.666 44 27.999 68l7 55l-7 21l48 55l34 61l96 282l35 62c5.33301 22.667 14.333 45.334 27 68.001c6 21.333 15 44.333 27 69c20 -0.666992 38.333 -7.66699 55 -21l14 35
l21 14l62 -7l75 7c11.333 -10 20.666 -24 27.999 -42l-28 -7c-16 -2.66699 -29.667 -9.33398 -41 -20.001c19.333 -7.33301 35.333 -21 48 -41l-21 -62c-14 -20 -32.333 -36 -55 -48c-12.667 -6.66699 -19.334 -16 -20.001 -28c11.333 -17.333 20.333 -37.666 27 -60.999
l-116 -268c-7.33301 -22.667 -19 -45.667 -35 -69l-20 -75l-21 -42c1.33301 -6 6 -10.333 14 -13l-21 -28c-5.33301 -14 -12 -25.333 -20 -34c-4 -23.333 -11 -48.666 -21 -75.999l-21 -61c-7.33301 -16 -14 -34.333 -20 -55c-4 -21.333 -11 -44.333 -21 -69
c-8.66699 -22 -22.334 -42.667 -41.001 -62l-76 -7l-54 7l-14 -7h-21l-34 -7l-14 7h-14c-22.667 6 -38.667 22 -48 48l-123 261c-5.33301 22 -14.666 45 -27.999 69l-82 213c-6 22 -15.333 44.667 -28 68l-13 62l-28 69l-27 20l-34 -48
c7.33301 -10.667 11.666 -24.334 12.999 -41.001l-55 -137c-14.667 -18 -26 -38.667 -34 -62l-21 -75c-14.667 -17.333 -26 -38 -34 -62l-41 -158c-12.667 -18 -24 -38.667 -34 -62l-14 -69l-28 -68c-13.333 -9.33301 -29.333 -16.333 -48 -21l-20 14l-48 -28l-90 -13
l-68 27c-12.667 19.333 -22 40 -28 62l-34 62c-6.66699 21.333 -18 42 -34 62c-1.33301 21.333 -6 44 -14 68c-10 22 -19.333 47.333 -28 76l-68 123l-76 213l-34 62c-3.33301 24 -12.666 47 -27.999 69l-34 61l7 55l-75 213c1.33301 8.66699 5.66602 15.667 12.999 21
l55 -7l76 7l68 -7l55 7l21 -21l20 -62l7 -55l-7 -13l35 -62c8 -20 19.333 -40.667 34 -62c10.667 -21.333 20 -46.333 28 -75l61 -131c-0.666992 -23.333 -7.33398 -46 -20.001 -68l-35 20l7 -27c14 -11.333 30 -18.333 48 -21c15.333 -8.66699 29.333 -22.334 42 -41.001
l27 -76c1.33301 -20.667 6 -41 14 -61l55 137c8.66699 24 15.334 51.333 20.001 82c12.667 18 24.334 38.667 35.001 62l34 62c7.33301 22 12 44.667 14 68l41 55c5.33301 25.333 14.333 50.666 27 75.999l21 69l27 55c6.66699 24 16 49 28 75
c18 8.66699 38.667 15.667 62 21l20 -7l62 7c28 2 55.333 6.33301 82 13zM115.001 1240l7 -6l14 6v14h-7zM980.001 1220l14 -28l7 28l-14 -7zM314.001 1131c2 -9.33301 6.66699 -16.333 14 -21zM1213 1117c0 -16 7 -29.667 21 -41c-4 14 -11 27.667 -21 41zM1811 1082v14h-7
zM369.001 1034l7 -27l7 14zM795.001 931.002l7 -20v20h-7zM808.001 890.002c-0.666992 6 -4.99902 10.668 -12.999 14.001c1.33301 -4.66699 5.66602 -9.33398 12.999 -14.001zM266.002 856.003c-0.666992 6 -5.33301 10.668 -14 14.001
c2 -4.66699 6.66699 -9.33398 14 -14.001zM294.003 787.004l13 -82l14 -14zM850.003 671.004c1.33301 -14 5.66699 -28 13 -42v35zM1426 636.004l-20 -34l34 -34c-2 21.333 -6.66699 44 -14 68zM788.004 540.004c2.66699 -14.667 9.33301 -28.334 20 -41.001
c0 18.667 -6.66699 32.334 -20 41.001zM520.003 513.004v13h-7zM932.003 533.004l14.001 -20c-6.66699 4 -11.334 10.667 -14.001 20zM1310 526.004l-7 -20l13 7v13h-6zM1584 519.004l28 -54c-4.66699 18.667 -14 36.667 -28 54zM1715 506.004v13h-7zM1138 485.004
c-5.33301 0.666992 -10 5.33301 -14 14zM699.004 382.003l12.999 -20.001c-1.33301 8.66699 -5.66602 15.334 -12.999 20.001zM726.003 341.002v14h-7zM1488 252.002v-35l21 14zM664.003 231.002c2.66699 -10 9.66699 -19 21 -27c-2 10 -9 19 -21 27z" />
    <glyph glyph-name="x" unicode="x" horiz-adv-x="1101" 
d="M976 1359l57.0039 -49.001c-12.667 -28 -29.334 -56.333 -50.001 -85l-70 -63l-42 -85l-64 -77l-105 -162l-29 -57l289 -394l43 -85c20 -24.667 38.667 -52.667 56 -84c-24 -14.667 -54.667 -24.334 -92 -29.001c-33.333 -1.33301 -68.333 -6 -105 -14
c-24 13.333 -47.667 30 -71 50c-8.66699 16 -20.334 32.333 -35.001 49l-162 233l-64 70l-112 -155l-21 -63l-50 -78c-14 -26 -32.667 -51.667 -56 -77l-92 -43c-30 8 -62.667 12.667 -98 14c-29.333 4.66699 -50.333 21.334 -63 50.001l42 77c1.33301 12 6 23.667 14 35
l-7 -35l21 14c13.333 25.333 32 51.333 56 78c13.333 27.333 29.666 55.333 48.999 84c-0.666992 12.667 -0.666992 38.667 0 78l7 -42l50 91l56 71l49 84l22 28l-141 198l-50 91l-56 57c-6.66699 18.667 -16 37.334 -28 56.001c-6.66699 28.667 -18.334 57 -35.001 85
l-15 28l155 28h92l21 -7l43 -42c-10 -6 -19.667 -15.333 -29 -28l57 -43c10 -27.333 24 -53 42 -77l77 -134c10.667 4 22.667 11 36 21l211 296zM828.004 1275v14h-7zM370.004 943.999v-15l15 7zM427.004 724.999l-7 -21l14 7v14h-7zM702.004 647.999l-7 -35.999
c4 -8.66699 11 -13.334 21 -14.001zM237.004 584c5.33301 -0.666992 10 -5.33398 14 -14.001c-6 0.666992 -10.667 5.33398 -14 14.001zM709.004 514l28 7l-14 7zM328.004 450l7 -21v21h-7z" />
    <glyph glyph-name="y" unicode="y" horiz-adv-x="1264" 
d="M1080 1359l105.999 -6.99902c24.667 -30 37.334 -65.667 38.001 -107l-45 -98l-23 -91c-12.667 -32.667 -28 -65.667 -46 -99l-45 -76l-16 -114c-20.667 -22.667 -38.334 -50.667 -53.001 -84l-197 -486c-12.667 -32 -28 -64.667 -46 -98l-30 -91
c-15.333 -26 -23 -54 -23 -84c-14 -24 -21.667 -51.667 -23 -83l-30 -114l-53 -91l-213 -38l-15 15l-15 23l60 167l23 114l84 197l-38 30l22 46l-75 197c-15.333 26.667 -28 57 -38 91l-92 175c-11.333 30.667 -26.333 61 -45 91l-31 99l-22 46
c-13.333 24 -23.666 49 -30.999 75c-11.333 25.333 -21.333 53.333 -30 84l-23 68l-46 69c-11.333 26 -21 56.333 -29 91c9.33301 37.333 34.333 60 75 68l30 -7l84 15c36.667 -0.666992 74.667 -11 114 -31l15 -91l228 -569c8 -28.667 20.667 -56.667 38 -84
c4.66699 -28.667 17.334 -54 38.001 -76c6.66699 33.333 16.667 66.333 30 99l69 213l45 91l16 45l53 -30l38 23l-23 45c-14.667 -12.667 -32.334 -22.667 -53.001 -30l-15 45c6 25.333 16 50.666 30 75.999l30 92l91 174c33.333 1.33301 69 6.33301 107 15z
M912.999 729.001l15 -8l7 23h-15zM866.999 615.001l-15.001 -30c4.66699 -9.33301 12.334 -14.333 23.001 -15l7 38zM479.998 440.001v16h-8zM509.998 364.001c2 -11.333 7 -21.333 15 -30c0 10.667 -5 20.667 -15 30zM547.998 -112.999l8 -38l7 30z" />
    <glyph glyph-name="z" unicode="z" horiz-adv-x="958" 
d="M202 1346l198.997 -7.00195l82 7l22 -7l96 -7l192 7c28 -2 47.667 -16.667 59 -44c8.66699 -22.667 13.334 -47.334 14.001 -74.001l15 -81c-7.33301 -24 -19.666 -48.667 -36.999 -74l-19 -56l-66 -44l-22 -67c-16 -18.667 -31 -40.667 -45 -66
c-21.333 -12.667 -41 -30 -59 -52l-44 -59l-37 -74l-52 -59l-58 -103c-15.333 -14 -27.333 -31.333 -36 -52l174 1l14 -7c14 8.66699 31.333 16 52 22l22 -22l22 7l67 -7l81 15c16 -16 28.333 -35.667 37 -59l-1 -49c6.66699 -25.333 11.667 -54.666 15 -87.999
c15.333 -14 25 -31.333 29 -52c-23.333 -4 -48 -11.333 -74 -22l-88 15l-82 -8l-22 -7l-59 7l-332 -29c-1.33301 4.66699 -6.33301 9.66699 -15 15l-74 -8l-59 -15l-22 15c-14.667 19.333 -29.334 41.666 -44.001 66.999v73h-7l7 23l-6 44c8 18.667 23 41.334 45 68.001
l100 106c14.667 12 32 19.333 52 22c14.667 10.667 29.334 25.334 44.001 44.001l-29 37l36 74l148 177l128 217c-57.333 -11.333 -95.666 -16.333 -114.999 -15l-96 -7l-104 15l-81 -8c-30 3.33301 -59.333 11 -88 23c-12 3.33301 -18.333 18 -19 44
c-7.33301 16.667 -12.333 36.334 -15 59.001c6.66699 0.666992 11.667 5.66699 15 15l-22 66c25.333 12.667 52.333 20 81 22zM112.997 1287v-37l30 8c-4.66699 12 -14.667 21.667 -30 29zM806.997 1287l-14 -22h22v22h-8zM349.997 1206l-30 -36.999
c14.667 7.33301 24.667 19.666 30 36.999zM229.997 612.999l8 -23l-15 -7zM566.997 574.999c6 -1.33301 12.333 -14.667 19 -40zM748.997 375.998l-30 -11c18 -8 28 -4.33301 30 11z" />
    <glyph glyph-name="braceleft" unicode="{" 
 />
    <glyph glyph-name="bar" unicode="|" 
 />
    <glyph glyph-name="braceright" unicode="}" 
 />
    <glyph glyph-name="asciitilde" unicode="~" 
 />
    <glyph glyph-name="exclamdown" unicode="&#xa1;" horiz-adv-x="602" 
d="M261 1501l-7.00293 28.001c7.33301 6 12 13 14 21c-1.33301 21.333 -3.66602 50 -6.99902 86c19.333 17.333 40.333 23.666 63 18.999l67 23l46 -37c18.667 -1.33301 29.834 -8.83301 33.501 -22.5s7.83398 -42.5 12.501 -86.5l-4 -69
c-16 -32.667 -47 -53.334 -93 -62.001l-65 8c-23.333 30.667 -43.333 61.334 -60 92.001zM249.997 159.001l-17.998 35.998l13 62l-13 15l13 31c18 0 34 -1.66699 48 -5l18 10l25 21c-16.667 -5.33301 -31 -10.333 -43 -15l-48 51l-7 109c8 38.667 12 74.667 12 108l-5 98
l5 109c0.666992 40.667 5 78.334 13 113.001l-7 16l7 72l-7 88l13 103l-6 83l12 15l61 11l104 4l12 6l-12 16c12.667 -13.333 20.667 -27.333 24 -42l25 -26l-13 -67l7 -78l-25 -51l25 -15l-7 -16l7 -36l-7 -47c-6.66699 -33.333 -18.667 -62.333 -36 -87l30 -16l-12 -62
l18 -52l-24 -15l6 -41l12 -16l-6 -47l6 -15l-12 -77c5.33301 -34 13.666 -63.333 24.999 -88c-16 -28 -26.333 -55.667 -31 -83l12 -15l6 -16l-12 -15l12 -134c-38.667 -14 -77.334 -22.667 -116.001 -26c-41.333 6.66699 -76 15.334 -104 26.001zM328.999 372.999l-24 6
l-12 -6l-6 -10l6 -21c14.667 10 26.667 20.333 36 31zM305.999 617.999c-10.667 -6 -17 -12.667 -19 -20c10.667 5.33301 17 12 19 20zM421.999 911.999c-16.667 -8.66699 -28.999 -19 -36.999 -31c17.333 8.66699 29.666 19 36.999 31zM448 1103h12v30zM312 1603l-12 29
l-14 -42zM422 1573h26l-12 42l-41 -14z" />
    <glyph glyph-name="cent" unicode="&#xa2;" 
 />
    <glyph glyph-name="sterling" unicode="&#xa3;" 
 />
    <glyph glyph-name="yen" unicode="&#xa5;" 
 />
    <glyph glyph-name="brokenbar" unicode="&#xa6;" 
 />
    <glyph glyph-name="section" unicode="&#xa7;" 
 />
    <glyph glyph-name="dieresis" unicode="&#xa8;" horiz-adv-x="657" 
d="M95 1790l119.001 -21c26.667 -14.667 48 -38.334 64 -71.001l13 -48c-10.667 -32.667 -12.667 -58.667 -6 -78c-14 -8 -30.333 -12.667 -49 -14l-92 -21l-21 7c-31.333 4 -52.333 20.333 -63 49c3.33301 16 5.66602 34.667 6.99902 56c-2 8 -6.66699 15 -14 21l7 28
c0 30.667 11.667 61.334 35 92.001zM464.001 1755l26.998 7c-1.33301 6.66699 2 9 10 7c21.333 2 40 4.66699 56 8c28.667 -10.667 45 -31.667 49 -63l7 -21l-20 -92c-1.33301 -18.667 -5.66602 -35 -12.999 -49c-20 6.66699 -46.667 4.66699 -80 -6l-46 12
c-33.333 16 -57.333 37 -72 63l-10 98c30.667 24 61.334 36 92.001 36z" />
    <glyph glyph-name="copyright" unicode="&#xa9;" 
 />
    <glyph glyph-name="ordfeminine" unicode="&#xaa;" 
 />
    <glyph glyph-name="guillemotleft" unicode="&#xab;" 
 />
    <glyph glyph-name="logicalnot" unicode="&#xac;" 
 />
    <glyph glyph-name="registered" unicode="&#xae;" 
 />
    <glyph glyph-name="degree" unicode="&#xb0;" 
 />
    <glyph glyph-name="plusminus" unicode="&#xb1;" 
 />
    <glyph glyph-name="twosuperior" unicode="&#xb2;" 
 />
    <glyph glyph-name="threesuperior" unicode="&#xb3;" 
 />
    <glyph glyph-name="acute" unicode="&#xb4;" horiz-adv-x="468" 
d="M379 1689l-137 -247.001l-35 5l-63 -1l-19 16c-7.33301 28.667 -16 55.667 -26 81c11.333 35.333 18 69.333 20 102l32 100l-6 14l19 47l26 -16c32 10 62.333 16 91 18l76 -5c30.667 -13.333 47 -33.666 49 -60.999zM150 1562l35 11l-5 14l-28 -4zM234 1586l29 11l8 13
l-21 3l-35 -11z" />
    <glyph glyph-name="mu1" unicode="&#xb5;" 
 />
    <glyph glyph-name="paragraph" unicode="&#xb6;" 
 />
    <glyph glyph-name="periodcentered" unicode="&#xb7;" 
 />
    <glyph glyph-name="periodcentered" unicode="&#x2219;" 
 />
    <glyph glyph-name="cedilla" unicode="&#xb8;" horiz-adv-x="556" 
d="M287 141c6 0 11.668 -0.333008 17.001 -1l43 -20c4 -24 20.667 -50.333 50 -79l34 -29c20.667 -6 42.334 -25.667 65.001 -59l14 -39l7 -37l-8 -58c-4 -14 -9.66699 -27.667 -17 -41l-23 -41c-14 -8 -26.333 -17.667 -37 -29
c-17.333 -5.33301 -32.666 -9.33301 -45.999 -12l-38 -29l-12 -4l-8 -4l-33 4l-50 -9l-54 13c-20 2.66699 -43 16.334 -69 41.001l-24 42c-10 14.667 -17 29.667 -21 45l-21 46c2.66699 13.333 7 25.666 13 36.999c15.333 8.66699 39.666 12.334 72.999 11.001
c14 -10.667 25 -21.667 33 -33l17 -54c11.333 -8.66699 30.666 -17.667 57.999 -27l45 -4l55 10l27 52c22.667 24 20.667 55 -6 93c-10.667 13.333 -27.334 29.666 -50.001 48.999l-50 49c-32.667 23.333 -46.667 57 -42 101c18 10.667 37.333 16 58 16z" />
    <glyph glyph-name="onesuperior" unicode="&#xb9;" 
 />
    <glyph glyph-name="ordmasculine" unicode="&#xba;" 
 />
    <glyph glyph-name="guillemotright" unicode="&#xbb;" 
 />
    <glyph glyph-name="onequarter" unicode="&#xbc;" 
 />
    <glyph glyph-name="onehalf" unicode="&#xbd;" 
 />
    <glyph glyph-name="threequarters" unicode="&#xbe;" 
 />
    <glyph glyph-name="questiondown" unicode="&#xbf;" horiz-adv-x="1061" 
d="M634 256c-2 8.66699 -6.66699 15.333 -14 20l-7 -20h21zM393 1028c-2 10.667 -9 20 -21 28c2 -12 9 -21.333 21 -28zM604 1203l-21 7v-21h7zM732 512.999l2 10l-16 12l-21 -25c11.333 1.33301 23 2.33301 35 3zM328 382.999c-16 21.333 -35.667 41.333 -59 60
c11.333 -24 25 -47.667 41 -71zM504 908.999l14.9961 9.00098l20 34l-11 56l-2 48l-104 -16l-3 -48c-29.333 0.666992 -54.666 7.66699 -75.999 21l-91 14l-27 14l-7 48h7l21 41c24 18 45 36.667 63 56l83 41c34 8 66.333 12.667 97 14l49 -1l79 -14l30 -25
c18 -24 32 -47.333 42 -70c21.333 -20 40 -40.667 56 -62l23 -93c-12.667 -1.33301 -19.667 -15.333 -21 -42l14 -20l-48 -87c-15.333 -17.333 -31.666 -29 -48.999 -35c-22.667 -22 -45.667 -40.667 -69 -56l-70 -48l-76 -26l-64 -51c-28.667 -13.333 -52 -29.333 -70 -48
l-14 -49l7 -56l56 -55l83 -42c16 5.33301 32.333 9 49 11l-25 -29l46 -28l14 60l82 30c30.667 14 49.334 35 56.001 63c-2.66699 53.333 11.333 85 42 95l83 -1l83 7l14 -27l-14 -70l7 -28l-13 -76l-48 -70l-63 -62l-76 -42l-84 -28l-83 -7l-71 19l-17 -29l-190 66
c-24.667 20 -45.667 40.667 -63 62c-21.333 20 -39.666 41 -54.999 63l-35 83l-14 84c10.667 14 17.667 37 21 69l-7 14l14 49l42 83l48 45l58 42l41 7l77 29l81 29l39 24c17.333 -26 37.333 -51.667 60 -77c-8.66699 31.333 -22.667 60.666 -42 87.999zM577.996 1392
l-119.001 21.001c-26.667 14.667 -48 38.334 -64 71.001l21 77c-12 13.333 -21.333 29.666 -28 48.999c14 8 30.333 12.667 49 14l92 21l21 -7c31.333 -4 52.333 -20.333 63 -49c-3.33301 -16 -5.66602 -34.667 -6.99902 -56c2 -8 6.66699 -15 14 -21l-7 -28
c0 -30.667 -11.667 -61.334 -35 -92.001z" />
    <glyph glyph-name="Agrave" unicode="&#xc0;" horiz-adv-x="1248" 
d="M976 1357l89.9971 -7l90 7l34 -7l-14 -42l14 -103l-7 -14v-14l-7 -20l7 -70l7 -20l-7 -62l21 -76l7 -90l-7 -56l7 -20v-76c-4 -21.333 -11 -44.333 -21 -69l14 -83l-14 -62c4 -24 6.33301 -51.667 7 -83l-7 -69l7 -76l14 -35l-28 -21l-41 -20l-21 13l-83 7
c-26 4 -44.333 20.333 -55 49c-9.33301 14.667 -23.333 23.667 -42 27l-55 -41l-69 -28l-62 7l-62 -34c-21.333 -2 -44.333 -6.66699 -69 -14l-69 21c-23.333 0.666992 -46.666 7.33398 -69.999 20.001l-124 49c-13.333 8.66699 -29.333 13 -48 13l-28 28
c-18 12 -38.667 23.667 -62 35c-8 21.333 -19.667 42 -35 62l-82 110l-28 63c-1.33301 21.333 -6 44.333 -14 69l-21 138l7 20l7 76c4 27.333 11 55 21 83l21 69l34 63l49 131l34 28c6.66699 -4.66699 11.334 -11.667 14.001 -21c16 8 29.667 19.333 41 34l132 56
c21.333 5.33301 44.333 14.333 69 27l138 14l21 -7c22 -0.666992 45 -5.33398 69 -14.001l55 7l14 -7c8.66699 -13.333 13 -29.333 13 -48l42 -21l-21 55c0.666992 6 5.33398 10.667 14.001 14l90 -69c18 -2.66699 36.333 -11.667 55 -27c7.33301 15.333 12 31.333 14 48
l-7 62zM1045 1295v13h-7zM1114 1302c2.66699 -12.667 9.66699 -24.333 21 -35c-4 12 -11 23.667 -21 35zM478.997 1288l-14 -21l34 14zM353.997 1233l-7 -21h14l7 21h-14zM878.997 1226c1.33301 -6 6 -10.668 14 -14.001c-1.33301 4.66699 -6 9.33398 -14 14.001z
M961.997 1212l7 -21v21h-7zM733.997 1184l7 -54.999l7 7l21 -7c-8 19.333 -19.667 37.666 -35 54.999zM1010 1184l-13 -27l27 6zM678.997 1177l-7 -20h14v20h-7zM243.997 1157c4 -9.33301 10.667 -16.333 20 -21c-3.33301 9.33301 -10 16.333 -20 21zM602.997 1122
c-8 -20.667 -19.667 -38.9961 -35 -54.9961l-20 41l-28 -14c-25.333 -4.66699 -53 -13.667 -83 -27c-10.667 -21.333 -26.667 -42 -48 -62l-62 -42l-28 -69l-14 -62c-4.66699 -26 -13.667 -53.667 -27 -83c6 -21.333 15 -44.333 27 -69l21 -55l-14 -21
c6.66699 -13.333 16 -25 28 -35c8.66699 -18.667 13 -39.334 13 -62.001c26 -10 49.333 -26 70 -48c22 -7.33301 45 -19 69 -35l83 -7l-7 63l34 -7c11.333 -22 25.333 -40.667 42 -56l89 -13l76 34c19.333 13.333 35.666 31.666 48.999 54.999l-7 21l7 14l34 7
c1.33301 -4.66699 6 -9.33398 14 -14.001c18.667 9.33301 34.667 23 48 41c8.66699 22.667 20.334 46 35.001 70c12 23.333 21.333 50.666 28 81.999l-14 90c-6 22.667 -15.333 45.667 -28 69l-34 69l-49 63l-62 48c-14 14.667 -32.333 26 -55 34zM844.997 1108v-14h7v14h-7
zM1128 1094c0.666992 -18 5.33301 -36.333 14 -55c-1.33301 18.667 -6 37 -14 55zM864.996 1087c6 -18 17.667 -34 35 -48zM305.996 998.005l-14.001 -21c8.66699 4.66699 13.334 11.667 14.001 21zM111.995 908.005l-6 -21l13 -7zM1017 694.005l14 -21
c-1.33301 9.33301 -6 16.333 -14 21zM1156 694.005l6 -21v21h-6zM1038 673.005c2 -11.333 9 -20.667 21 -28zM1135 438.004c1.33301 -14 6 -27.667 14 -41l7 27c-9.33301 8 -16.333 12.667 -21 14zM498.995 383.004c1.33301 -6 6.00098 -10.667 14.001 -14
c-0.666992 6 -5.33398 10.667 -14.001 14zM439.996 1741c16 50.667 39.666 81 70.999 91l76 -2c28.667 -5.33301 53.667 -4.33301 75 3l42 -17l14 -49l-7 -13l21 -103c-0.666992 -16 -1.66699 -31.667 -3 -47c-1.33301 -14 -3.33301 -28 -6 -42
c-13.333 -24 -15.666 -50.333 -6.99902 -79l-21 -14l-61 7l-36 -2l-93 194zM495.995 1742l35 11l-5 14l-28 -4zM642.995 1539l29 11l8 13l-21 3l-35 -11z" />
    <glyph glyph-name="Aacute" unicode="&#xc1;" horiz-adv-x="1248" 
d="M973 1357l89.9971 -7l90 7l34 -7l-14 -42l14 -103l-7 -14v-14l-7 -20l7 -70l7 -20l-7 -62l21 -76l7 -90l-7 -56l7 -20v-76c-4 -21.333 -11 -44.333 -21 -69l14 -83l-14 -62c4 -24 6.33301 -51.667 7 -83l-7 -69l7 -76l14 -35l-28 -21l-41 -20l-21 13l-83 7
c-26 4 -44.333 20.333 -55 49c-9.33301 14.667 -23.333 23.667 -42 27l-55 -41l-69 -28l-62 7l-62 -34c-21.333 -2 -44.333 -6.66699 -69 -14l-69 21c-23.333 0.666992 -46.666 7.33398 -69.999 20.001l-124 49c-13.333 8.66699 -29.333 13 -48 13l-28 28
c-18 12 -38.667 23.667 -62 35c-8 21.333 -19.667 42 -35 62l-82 110l-28 63c-1.33301 21.333 -6 44.333 -14 69l-21 138l7 20l7 76c4 27.333 11 55 21 83l21 69l34 63l49 131l34 28c6.66699 -4.66699 11.334 -11.667 14.001 -21c16 8 29.667 19.333 41 34l132 56
c21.333 5.33301 44.333 14.333 69 27l138 14l21 -7c22 -0.666992 45 -5.33398 69 -14.001l55 7l14 -7c8.66699 -13.333 13 -29.333 13 -48l42 -21l-21 55c0.666992 6 5.33398 10.667 14.001 14l90 -69c18 -2.66699 36.333 -11.667 55 -27c7.33301 15.333 12 31.333 14 48
l-7 62zM1042 1295v13h-7zM1111 1302c2.66699 -12.667 9.66699 -24.333 21 -35c-4 12 -11 23.667 -21 35zM475.997 1288l-14 -21l34 14zM350.997 1233l-7 -21h14l7 21h-14zM875.997 1226c1.33301 -6 6 -10.668 14 -14.001c-1.33301 4.66699 -6 9.33398 -14 14.001z
M958.997 1212l7 -21v21h-7zM730.997 1184l7 -54.999l7 7l21 -7c-8 19.333 -19.667 37.666 -35 54.999zM1007 1184l-13 -27l27 6zM675.997 1177l-7 -20h14v20h-7zM240.997 1157c4 -9.33301 10.667 -16.333 20 -21c-3.33301 9.33301 -10 16.333 -20 21zM599.997 1122
c-8 -20.667 -19.667 -38.9961 -35 -54.9961l-20 41l-28 -14c-25.333 -4.66699 -53 -13.667 -83 -27c-10.667 -21.333 -26.667 -42 -48 -62l-62 -42l-28 -69l-14 -62c-4.66699 -26 -13.667 -53.667 -27 -83c6 -21.333 15 -44.333 27 -69l21 -55l-14 -21
c6.66699 -13.333 16 -25 28 -35c8.66699 -18.667 13 -39.334 13 -62.001c26 -10 49.333 -26 70 -48c22 -7.33301 45 -19 69 -35l83 -7l-7 63l34 -7c11.333 -22 25.333 -40.667 42 -56l89 -13l76 34c19.333 13.333 35.666 31.666 48.999 54.999l-7 21l7 14l34 7
c1.33301 -4.66699 6 -9.33398 14 -14.001c18.667 9.33301 34.667 23 48 41c8.66699 22.667 20.334 46 35.001 70c12 23.333 21.333 50.666 28 81.999l-14 90c-6 22.667 -15.333 45.667 -28 69l-34 69l-49 63l-62 48c-14 14.667 -32.333 26 -55 34zM841.997 1108v-14h7v14h-7
zM1125 1094c0.666992 -18 5.33301 -36.333 14 -55c-1.33301 18.667 -6 37 -14 55zM861.996 1087c6 -18 17.667 -34 35 -48zM302.996 998.005l-14.001 -21c8.66699 4.66699 13.334 11.667 14.001 21zM108.995 908.005l-6 -21l13 -7zM1014 694.005l14 -21
c-1.33301 9.33301 -6 16.333 -14 21zM1153 694.005l6 -21v21h-6zM1035 673.005c2 -11.333 9 -20.667 21 -28zM1132 438.004c1.33301 -14 6 -27.667 14 -41l7 27c-9.33301 8 -16.333 12.667 -21 14zM495.995 383.004c1.33301 -6 6.00098 -10.667 14.001 -14
c-0.666992 6 -5.33398 10.667 -14.001 14zM782.996 1690l-138 -247.002l-35 5l-63 -1l-18 16c-7.33301 28 -16.333 55 -27 81c11.333 34.667 18.333 68.334 21 101.001l31 101l-6 14l19 47l26 -16c32 10 62.667 15.667 92 17l75 -4c30.667 -13.333 47 -33.666 49 -60.999z
M552.996 1562l35 11l-5 14l-28 -4zM636.996 1586l29 11l8 14l-21 2l-35 -11z" />
    <glyph glyph-name="Acircumflex" unicode="&#xc2;" horiz-adv-x="1248" 
d="M973 1357l89.9971 -7l90 7l34 -7l-14 -42l14 -103l-7 -14v-14l-7 -20l7 -70l7 -20l-7 -62l21 -76l7 -90l-7 -56l7 -20v-76c-4 -21.333 -11 -44.333 -21 -69l14 -83l-14 -62c4 -24 6.33301 -51.667 7 -83l-7 -69l7 -76l14 -35l-28 -21l-41 -20l-21 13l-83 7
c-26 4 -44.333 20.333 -55 49c-9.33301 14.667 -23.333 23.667 -42 27l-55 -41l-69 -28l-62 7l-62 -34c-21.333 -2 -44.333 -6.66699 -69 -14l-69 21c-23.333 0.666992 -46.666 7.33398 -69.999 20.001l-124 49c-13.333 8.66699 -29.333 13 -48 13l-28 28
c-18 12 -38.667 23.667 -62 35c-8 21.333 -19.667 42 -35 62l-82 110l-28 63c-1.33301 21.333 -6 44.333 -14 69l-21 138l7 20l7 76c4 27.333 11 55 21 83l21 69l34 63l49 131l34 28c6.66699 -4.66699 11.334 -11.667 14.001 -21c16 8 29.667 19.333 41 34l132 56
c21.333 5.33301 44.333 14.333 69 27l138 14l21 -7c22 -0.666992 45 -5.33398 69 -14.001l55 7l14 -7c8.66699 -13.333 13 -29.333 13 -48l42 -21l-21 55c0.666992 6 5.33398 10.667 14.001 14l90 -69c18 -2.66699 36.333 -11.667 55 -27c7.33301 15.333 12 31.333 14 48
l-7 62zM1042 1295v13h-7zM1111 1302c2.66699 -12.667 9.66699 -24.333 21 -35c-4 12 -11 23.667 -21 35zM475.997 1288l-14 -21l34 14zM350.997 1233l-7 -21h14l7 21h-14zM875.997 1226c1.33301 -6 6 -10.668 14 -14.001c-1.33301 4.66699 -6 9.33398 -14 14.001z
M958.997 1212l7 -21v21h-7zM730.997 1184l7 -54.999l7 7l21 -7c-8 19.333 -19.667 37.666 -35 54.999zM1007 1184l-13 -27l27 6zM675.997 1177l-7 -20h14v20h-7zM240.997 1157c4 -9.33301 10.667 -16.333 20 -21c-3.33301 9.33301 -10 16.333 -20 21zM599.997 1122
c-8 -20.667 -19.667 -38.9961 -35 -54.9961l-20 41l-28 -14c-25.333 -4.66699 -53 -13.667 -83 -27c-10.667 -21.333 -26.667 -42 -48 -62l-62 -42l-28 -69l-14 -62c-4.66699 -26 -13.667 -53.667 -27 -83c6 -21.333 15 -44.333 27 -69l21 -55l-14 -21
c6.66699 -13.333 16 -25 28 -35c8.66699 -18.667 13 -39.334 13 -62.001c26 -10 49.333 -26 70 -48c22 -7.33301 45 -19 69 -35l83 -7l-7 63l34 -7c11.333 -22 25.333 -40.667 42 -56l89 -13l76 34c19.333 13.333 35.666 31.666 48.999 54.999l-7 21l7 14l34 7
c1.33301 -4.66699 6 -9.33398 14 -14.001c18.667 9.33301 34.667 23 48 41c8.66699 22.667 20.334 46 35.001 70c12 23.333 21.333 50.666 28 81.999l-14 90c-6 22.667 -15.333 45.667 -28 69l-34 69l-49 63l-62 48c-14 14.667 -32.333 26 -55 34zM841.997 1108v-14h7v14h-7
zM1125 1094c0.666992 -18 5.33301 -36.333 14 -55c-1.33301 18.667 -6 37 -14 55zM861.996 1087c6 -18 17.667 -34 35 -48zM302.996 998.005l-14.001 -21c8.66699 4.66699 13.334 11.667 14.001 21zM108.995 908.005l-6 -21l13 -7zM1014 694.005l14 -21
c-1.33301 9.33301 -6 16.333 -14 21zM1153 694.005l6 -21v21h-6zM1035 673.005c2 -11.333 9 -20.667 21 -28zM1132 438.004c1.33301 -14 6 -27.667 14 -41l7 27c-9.33301 8 -16.333 12.667 -21 14zM495.995 383.004c1.33301 -6 6.00098 -10.667 14.001 -14
c-0.666992 6 -5.33398 10.667 -14.001 14zM501.996 1450l-6 -5.99609c-7.33301 3.33301 -12.333 16.333 -15 39l-15 -16c2.66699 -8 2 -11.333 -2 -10l-11 -1l-7 -3c-5.33301 -0.666992 -10 -2.33398 -14 -5.00098l-7 5c0 7.33301 7.66699 31.333 23 72l11 23l8 26l50 119
c3.33301 8 5.66602 15.333 6.99902 22l13 22v5c0.666992 8.66699 2.66699 16.667 6 24l18 46l7 5v-2l26 -1l4 2v-2l35 -2l12 3l2 -4h2l6 -2l20 5c5.33301 -8.66699 9.33301 -17 12 -25l23 -77l5 -26c6.66699 -6.66699 14.334 -21.334 23.001 -44.001l12 -34l18 -37l23 -42
l12 -40l5 -35l-24 -4l-6 -2l-27 2l-3 -2l-53 5c-3.33301 9.33301 -7.33301 17.333 -12 24c-8 27.333 -15.333 51.333 -22 72c-0.666992 12 11.666 22.333 36.999 31c-13.333 1.33301 -28.333 -1.33398 -45 -8.00098l-15 53l-14 33l-16 -34l-18 -49l-16 -17
c-3.33301 -26 -11 -49.667 -23 -71l-1 -15c-10 -14 -18 -23.667 -24 -29c-7.33301 3.33301 -14.666 5.66602 -21.999 6.99902h-2z" />
    <glyph glyph-name="Atilde" unicode="&#xc3;" horiz-adv-x="1248" 
d="M973 1357l89.9971 -7l90 7l34 -7l-14 -42l14 -103l-7 -14v-14l-7 -20l7 -70l7 -20l-7 -62l21 -76l7 -90l-7 -56l7 -20v-76c-4 -21.333 -11 -44.333 -21 -69l14 -83l-14 -62c4 -24 6.33301 -51.667 7 -83l-7 -69l7 -76l14 -35l-28 -21l-41 -20l-21 13l-83 7
c-26 4 -44.333 20.333 -55 49c-9.33301 14.667 -23.333 23.667 -42 27l-55 -41l-69 -28l-62 7l-62 -34c-21.333 -2 -44.333 -6.66699 -69 -14l-69 21c-23.333 0.666992 -46.666 7.33398 -69.999 20.001l-124 49c-13.333 8.66699 -29.333 13 -48 13l-28 28
c-18 12 -38.667 23.667 -62 35c-8 21.333 -19.667 42 -35 62l-82 110l-28 63c-1.33301 21.333 -6 44.333 -14 69l-21 138l7 20l7 76c4 27.333 11 55 21 83l21 69l34 63l49 131l34 28c6.66699 -4.66699 11.334 -11.667 14.001 -21c16 8 29.667 19.333 41 34l132 56
c21.333 5.33301 44.333 14.333 69 27l138 14l21 -7c22 -0.666992 45 -5.33398 69 -14.001l55 7l14 -7c8.66699 -13.333 13 -29.333 13 -48l42 -21l-21 55c0.666992 6 5.33398 10.667 14.001 14l90 -69c18 -2.66699 36.333 -11.667 55 -27c7.33301 15.333 12 31.333 14 48
l-7 62zM1042 1295v13h-7zM1111 1302c2.66699 -12.667 9.66699 -24.333 21 -35c-4 12 -11 23.667 -21 35zM475.997 1288l-14 -21l34 14zM350.997 1233l-7 -21h14l7 21h-14zM875.997 1226c1.33301 -6 6 -10.668 14 -14.001c-1.33301 4.66699 -6 9.33398 -14 14.001z
M958.997 1212l7 -21v21h-7zM730.997 1184l7 -54.999l7 7l21 -7c-8 19.333 -19.667 37.666 -35 54.999zM1007 1184l-13 -27l27 6zM675.997 1177l-7 -20h14v20h-7zM240.997 1157c4 -9.33301 10.667 -16.333 20 -21c-3.33301 9.33301 -10 16.333 -20 21zM599.997 1122
c-8 -20.667 -19.667 -38.9961 -35 -54.9961l-20 41l-28 -14c-25.333 -4.66699 -53 -13.667 -83 -27c-10.667 -21.333 -26.667 -42 -48 -62l-62 -42l-28 -69l-14 -62c-4.66699 -26 -13.667 -53.667 -27 -83c6 -21.333 15 -44.333 27 -69l21 -55l-14 -21
c6.66699 -13.333 16 -25 28 -35c8.66699 -18.667 13 -39.334 13 -62.001c26 -10 49.333 -26 70 -48c22 -7.33301 45 -19 69 -35l83 -7l-7 63l34 -7c11.333 -22 25.333 -40.667 42 -56l89 -13l76 34c19.333 13.333 35.666 31.666 48.999 54.999l-7 21l7 14l34 7
c1.33301 -4.66699 6 -9.33398 14 -14.001c18.667 9.33301 34.667 23 48 41c8.66699 22.667 20.334 46 35.001 70c12 23.333 21.333 50.666 28 81.999l-14 90c-6 22.667 -15.333 45.667 -28 69l-34 69l-49 63l-62 48c-14 14.667 -32.333 26 -55 34zM841.997 1108v-14h7v14h-7
zM1125 1094c0.666992 -18 5.33301 -36.333 14 -55c-1.33301 18.667 -6 37 -14 55zM861.996 1087c6 -18 17.667 -34 35 -48zM302.996 998.005l-14.001 -21c8.66699 4.66699 13.334 11.667 14.001 21zM108.995 908.005l-6 -21l13 -7zM1014 694.005l14 -21
c-1.33301 9.33301 -6 16.333 -14 21zM1153 694.005l6 -21v21h-6zM1035 673.005c2 -11.333 9 -20.667 21 -28zM1132 438.004c1.33301 -14 6 -27.667 14 -41l7 27c-9.33301 8 -16.333 12.667 -21 14zM495.995 383.004c1.33301 -6 6.00098 -10.667 14.001 -14
c-0.666992 6 -5.33398 10.667 -14.001 14zM380.996 1533l-26.999 -16.999c-24.667 10.667 -51.667 15.334 -81 14.001l-66 20v13c0 8.66699 0.333008 17 1 25c2.66699 27.333 9.66699 53 21 77l36 60l47 48c13.333 0 25.666 -2 36.999 -6v-27l3 -5l31 22l-25 16l6 18l6 11
l37 14l71 12l67 2l59 -24l23 -23l62 -29l69 -65l95 -30l-58 -34l70 16l66 36c19.333 27.333 26.333 62 21 104l58 26l52 13l50 -40l3 -56c-6.66699 -22.667 -15 -42 -25 -58c-2.66699 -22.667 -7 -44.334 -13 -65.001l-49 -62c-6.66699 7.33301 -18.667 5.33301 -36 -6
l-6 -18l-118 -41c-18.667 2 -33.667 7 -45 15c-24 4 -46.667 10 -68 18l-62 21c-23.333 11.333 -45.333 19.666 -66 24.999l-25 43l-81 28c-21.333 12 -42 19 -62 21l-38 -13l-31 -30zM1049 1703l2 -12l9 7zM974.997 1574l-9 -13c6.66699 -2.66699 13 -2.66699 19 0z
M591.997 1757c10.667 -4 19.667 -4 27 0c-9.33301 4 -18.333 4 -27 0zM447.997 1779c28 -7.33301 54 -6.33301 78 3c-28 2.66699 -54 1.66699 -78 -3zM587.997 1653l-3 4l-13 -10l14 -10zM263.997 1644l-10 -14l17 6z" />
    <glyph glyph-name="Adieresis" unicode="&#xc4;" horiz-adv-x="1248" 
d="M973 1357l89.9971 -7l90 7l34 -7l-14 -42l14 -103l-7 -14v-14l-7 -20l7 -70l7 -20l-7 -62l21 -76l7 -90l-7 -56l7 -20v-76c-4 -21.333 -11 -44.333 -21 -69l14 -83l-14 -62c4 -24 6.33301 -51.667 7 -83l-7 -69l7 -76l14 -35l-28 -21l-41 -20l-21 13l-83 7
c-26 4 -44.333 20.333 -55 49c-9.33301 14.667 -23.333 23.667 -42 27l-55 -41l-69 -28l-62 7l-62 -34c-21.333 -2 -44.333 -6.66699 -69 -14l-69 21c-23.333 0.666992 -46.666 7.33398 -69.999 20.001l-124 49c-13.333 8.66699 -29.333 13 -48 13l-28 28
c-18 12 -38.667 23.667 -62 35c-8 21.333 -19.667 42 -35 62l-82 110l-28 63c-1.33301 21.333 -6 44.333 -14 69l-21 138l7 20l7 76c4 27.333 11 55 21 83l21 69l34 63l49 131l34 28c6.66699 -4.66699 11.334 -11.667 14.001 -21c16 8 29.667 19.333 41 34l132 56
c21.333 5.33301 44.333 14.333 69 27l138 14l21 -7c22 -0.666992 45 -5.33398 69 -14.001l55 7l14 -7c8.66699 -13.333 13 -29.333 13 -48l42 -21l-21 55c0.666992 6 5.33398 10.667 14.001 14l90 -69c18 -2.66699 36.333 -11.667 55 -27c7.33301 15.333 12 31.333 14 48
l-7 62zM1042 1295v13h-7zM1111 1302c2.66699 -12.667 9.66699 -24.333 21 -35c-4 12 -11 23.667 -21 35zM475.997 1288l-14 -21l34 14zM350.997 1233l-7 -21h14l7 21h-14zM875.997 1226c1.33301 -6 6 -10.668 14 -14.001c-1.33301 4.66699 -6 9.33398 -14 14.001z
M958.997 1212l7 -21v21h-7zM730.997 1184l7 -54.999l7 7l21 -7c-8 19.333 -19.667 37.666 -35 54.999zM1007 1184l-13 -27l27 6zM675.997 1177l-7 -20h14v20h-7zM240.997 1157c4 -9.33301 10.667 -16.333 20 -21c-3.33301 9.33301 -10 16.333 -20 21zM599.997 1122
c-8 -20.667 -19.667 -38.9961 -35 -54.9961l-20 41l-28 -14c-25.333 -4.66699 -53 -13.667 -83 -27c-10.667 -21.333 -26.667 -42 -48 -62l-62 -42l-28 -69l-14 -62c-4.66699 -26 -13.667 -53.667 -27 -83c6 -21.333 15 -44.333 27 -69l21 -55l-14 -21
c6.66699 -13.333 16 -25 28 -35c8.66699 -18.667 13 -39.334 13 -62.001c26 -10 49.333 -26 70 -48c22 -7.33301 45 -19 69 -35l83 -7l-7 63l34 -7c11.333 -22 25.333 -40.667 42 -56l89 -13l76 34c19.333 13.333 35.666 31.666 48.999 54.999l-7 21l7 14l34 7
c1.33301 -4.66699 6 -9.33398 14 -14.001c18.667 9.33301 34.667 23 48 41c8.66699 22.667 20.334 46 35.001 70c12 23.333 21.333 50.666 28 81.999l-14 90c-6 22.667 -15.333 45.667 -28 69l-34 69l-49 63l-62 48c-14 14.667 -32.333 26 -55 34zM841.997 1108v-14h7v14h-7
zM1125 1094c0.666992 -18 5.33301 -36.333 14 -55c-1.33301 18.667 -6 37 -14 55zM861.996 1087c6 -18 17.667 -34 35 -48zM302.996 998.005l-14.001 -21c8.66699 4.66699 13.334 11.667 14.001 21zM108.995 908.005l-6 -21l13 -7zM1014 694.005l14 -21
c-1.33301 9.33301 -6 16.333 -14 21zM1153 694.005l6 -21v21h-6zM1035 673.005c2 -11.333 9 -20.667 21 -28zM1132 438.004c1.33301 -14 6 -27.667 14 -41l7 27c-9.33301 8 -16.333 12.667 -21 14zM495.995 383.004c1.33301 -6 6.00098 -10.667 14.001 -14
c-0.666992 6 -5.33398 10.667 -14.001 14zM384.996 1790l119.001 -21c26.667 -14.667 48 -38.334 64 -71.001l13 -48c-10.667 -32.667 -12.667 -58.667 -6 -78c-14 -8 -30.333 -12.667 -49 -14l-92 -21l-21 7c-31.333 4 -52.333 20.333 -63 49
c3.33301 16 5.66602 34.667 6.99902 56c-2 8 -6.66699 15 -14 21l7 28c0 30.667 11.667 61.334 35 92.001zM752.997 1755l28 7c-2 6.66699 1 9 9 7c21.333 2 40 4.66699 56 8c29.333 -10.667 46 -31.667 50 -63l7 -21l-20 -92c-1.33301 -18.667 -6 -35 -14 -49
c-19.333 6.66699 -45.666 4.66699 -78.999 -6l-47 12c-32.667 15.333 -56.334 36.333 -71.001 63l-10 98c30 23.333 60.333 35.333 91 36z" />
    <glyph glyph-name="Aring" unicode="&#xc5;" 
 />
    <glyph glyph-name="AE" unicode="&#xc6;" 
 />
    <glyph glyph-name="Ccedilla" unicode="&#xc7;" horiz-adv-x="1239" 
d="M630 1361l100.001 -13.9961c33.333 -5.33301 71.333 -15 114 -29c24.667 -17.333 53 -34 85 -50c29.333 -6.66699 46 -25.667 50 -57c-15.333 -6.66699 -29.666 -16 -42.999 -28l50 7c26.667 -6 52.667 -18 78 -36c2 -24 14 -42.667 36 -56l57 -86
c-2.66699 -34.667 -24 -53.667 -64 -57l-50 -21l57 7c26.667 -2 52.667 -6.66699 78 -14l-14 -22l-36 -28l-71 7l-78 -7l-22 36l-21 85c-31.333 6 -57.333 22.667 -78 50c-28 11.333 -42.333 32.666 -43 63.999l-78 -14l-29 7l-163 14l-29 -14l-78 -57
c-25.333 -17.333 -49 -38.666 -71 -63.999c-20 -26 -39 -54.667 -57 -86l-7 -128l-22 -28l43 -157l50 -85l64 -79l64 8c9.33301 -10.667 21.333 -20.334 36 -29.001l106 -7l29 -14l164 50l56 85c20.667 25.333 39.667 53.666 57 84.999c4.66699 32 19 60.667 43 86
c29.333 0 60.333 -7.33301 93 -22l78 29c16 -30.667 27.667 -66.334 35 -107.001c-16.667 -30 -30.667 -63 -42 -99c-7.33301 -30.667 -24 -59.334 -50 -86.001l-135 -149l-185 -86l-50 -7l-21 7h-22l-21 -14c-26.667 11.333 -43.334 32.666 -50.001 63.999
c-20 -27.333 -48.333 -41.666 -85 -42.999l-193 79l-85 64l-71 71c-22.667 18.667 -41.667 44.667 -57 78c-13.333 24.667 -25.333 53.334 -36 86.001l-42 99l-7 64l28 29c-16 24 -27.667 52.333 -35 85c14.667 23.333 26.334 49.333 35.001 78c11.333 28 21 59 29 93
c12.667 29.333 29 60 49 92c17.333 20.667 31.666 47 42.999 79c25.333 17.333 51.333 38.666 78 63.999c23.333 19.333 49.666 36 78.999 50l149 71c12.667 -1.33301 27 -6 43 -14l35 -15zM353.001 1219c-10.667 -11.333 -20.333 -25.667 -29 -43l21 7
c13.333 8.66699 25.333 20.667 36 36h-28zM267.002 1183c-13.333 -17.333 -29.999 -34.001 -49.999 -50.001c0.666992 -13.333 8 -22.666 22 -27.999c15.333 21.333 24.666 47.333 27.999 78zM210.003 1098l-7 -65l14 50zM943.003 1026
c-0.666992 6.66699 -5.33301 11.667 -14 15c2 -5.33301 6.66699 -10.333 14 -15zM281.004 1005l-14 -43l29 29c-1.33301 6 -6.33301 10.667 -15 14zM296.004 984.002l-7 -22l14 7v15h-7zM139.004 799.002h14v14h-7zM160.004 706.002l15 -7v21h-7zM1128 642.002
c1.33301 -6 6.33301 -10.667 15 -14c-1.33301 6 -6.33301 10.667 -15 14zM1029 628.002c0.666992 -11.333 5.33301 -21 14 -29l7 29h-21zM281.003 542.002v-14h8v14h-8zM1107 521.002v14h-7zM1064 486.002c10 -9.33301 22 -14.333 36 -15zM915.003 450.002l-14 -29l28 -7
c-1.33301 12 -6 24 -14 36zM986.003 379.002c4 -12.667 11 -24.667 21 -36c-3.33301 13.333 -10.333 25.333 -21 36zM296.003 315.002c4.66699 -10.667 14 -20.333 28 -29c-6 10 -15.333 19.667 -28 29zM374.003 308.003c3.33301 -10 10.333 -17.333 21 -22
c-4 8.66699 -11 16 -21 22zM632.003 140.003c6 0 11.667 -0.333008 17 -1l43 -20c4 -24 20.667 -50.333 50 -79l34 -29c20.667 -6 42.334 -25.667 65.001 -59l14 -39l7 -36l-8 -58c-4 -14.667 -9.66699 -28.667 -17 -42l-23 -41c-14 -8 -26.333 -17.667 -37 -29
c-17.333 -5.33301 -32.666 -9.33301 -45.999 -12l-38 -29l-12 -4l-8 -4l-33 4l-50 -8l-54 12c-20 2.66699 -42.667 16.334 -68 41.001l-25 42c-10 14.667 -17 29.667 -21 45l-21 46c2.66699 13.333 7 25.666 13 36.999c15.333 8.66699 39.666 12.334 72.999 11.001
c14 -10.667 25 -21.667 33 -33l17 -54c12 -8.66699 31.333 -17.667 58 -27l45 -4l55 10l27 52c22.667 24 20.667 55 -6 93c-10.667 13.333 -27.334 29.666 -50.001 48.999l-50 49c-32.667 23.333 -46.667 57 -42 101c18 10.667 37.333 16 58 16z" />
    <glyph glyph-name="Egrave" unicode="&#xc8;" horiz-adv-x="1230" 
d="M541 1364l56 -7.00293l14 7h21l91 -21l90 -7c20.667 -14 44 -25.333 70 -34l63 -42c20.667 -13.333 41.334 -29.666 62.001 -48.999l56 -56c14.667 -21.333 28.667 -47 42 -77l42 -69l14 -63l-14 -21l-35 14l14 -35c26 -3.33301 42.333 -19.666 49 -48.999l14 -90l-7 -91
c-14 -21.333 -35 -33 -63 -35h-70l-14 35l-14 -28l-62 -21l-98 -14l-167 21l-21 -7l-63 14l-21 -14l-76 -7l-77 7l-42 21l-28 -21c-29.333 0 -52.333 -13.667 -69 -41l188 -147l160 -35l91 7c24 8.66699 49.333 20.334 76 35.001l77 35l63 14l21 -14l76 -84
c-0.666992 -19.333 -5.33398 -40 -14.001 -62l-132 -91l-70 -28c-24.667 -10 -52.334 -19.333 -83.001 -28c-27.333 -8.66699 -57.666 -15.667 -90.999 -21l-91 14c-23.333 4 -48.666 11 -75.999 21c-23.333 2.66699 -49 9.66699 -77 21l-77 35c-24 8 -47 22 -69 42
c-18.667 18 -39.667 34 -63 48l-56 56c-14.667 17.333 -28.667 38.333 -42 63l-41 70l-28 181l7 21l-7 63l7 90l34 84c6.66699 22 16 45.333 28 70l35 76c15.333 18 34 36.667 56 56l49 63l69 42l147 62c23.333 4 48.666 11 75.999 21zM967 1176
c-1.33301 6 -6 10.668 -14 14.001c1.33301 -4.66699 6 -9.33398 14 -14.001zM430 1162c0.666992 -10 5.33301 -19.333 14 -28c0 10 -4.66699 19.333 -14 28zM596.999 1148l-118 -42l-91 -48l-63 -7l21 -35c-14 -34 -32.333 -69 -55 -105l-7 -70l48 -7l126 28v-14l77 7h20
l42 -21l-35 -41c28.667 18.667 61.334 37 98.001 55l125 14l63 -7l126 14c-11.333 10.667 -20.666 24.667 -27.999 42c-12 32.667 -33 65.334 -63 98.001c-18.667 22.667 -44.334 45.667 -77.001 69c-15.333 13.333 -29 29.666 -41 48.999l-49 -14
c-36.667 5.33301 -76.334 17 -119.001 35zM1029 1092l14 -14l-7 28zM1064 1037c3.33301 -13.333 10.333 -25.001 21 -35.001c-4 10.667 -11 22.334 -21 35.001zM255.999 1016c4 -8.66699 11 -13.333 21 -14zM122.999 924.998v14h-7zM129.999 917.998
c-8.66699 -11.333 -13.333 -25.333 -14 -42l28 21zM200 875.998c1.33301 -6 6 -10.668 14 -14.001c-1.33301 6.66699 -6 11.334 -14 14.001zM1022 854.997c1.33301 -6 6.00098 -10.668 14.001 -14.001c-0.666992 6.66699 -5.33398 11.334 -14.001 14.001zM88.001 799.996
l7 -21l7 21h-14zM486.001 792.996v-14l14 7zM660.001 708.996c-12 -6 -21.333 -15.333 -28 -28c12 4.66699 21.333 14 28 28zM95.001 638.996v-14l14 7zM270.001 548.996c3.33301 -12 10.333 -23.668 21 -35.001c-2.66699 12.667 -9.66699 24.334 -21 35.001z
M249.001 394.995c1.33301 -6 6 -10.668 14 -14.001c-1.33301 6.66699 -6 11.334 -14 14.001zM667.001 352.994c2 -10 6.66699 -19 14 -27l7 20zM339.001 325.994c0.666992 -10 5.33301 -19.333 14 -28c0 10 -4.66699 19.333 -14 28zM458 325.994l-7 -21l21 14zM444 290.994
c4 -6.66699 11 -11.333 21 -14zM432 1740c16 50.667 39.999 81.334 71.999 92.001l75 -3c28.667 -4.66699 53.667 -3.33398 75 3.99902l42 -17l14 -49l-7 -13l21 -103c-0.666992 -16 -1.66699 -31.667 -3 -47c-1.33301 -14.667 -3.33301 -28.667 -6 -42
c-13.333 -24.667 -15.666 -51 -6.99902 -79l-21 -14l-61 7l-36 -2l-93 194zM487.999 1742l35 11l-5 14l-28 -4zM634.999 1539l29 11l8 13l-21 3l-35 -11z" />
    <glyph glyph-name="Eacute" unicode="&#xc9;" horiz-adv-x="1230" 
d="M541 1364l56 -7.00293l14 7h21l91 -21l90 -7c20.667 -14 44 -25.333 70 -34l63 -42c20.667 -13.333 41.334 -29.666 62.001 -48.999l56 -56c14.667 -21.333 28.667 -47 42 -77l42 -69l14 -63l-14 -21l-35 14l14 -35c26 -3.33301 42.333 -19.666 49 -48.999l14 -90l-7 -91
c-14 -21.333 -35 -33 -63 -35h-70l-14 35l-14 -28l-62 -21l-98 -14l-167 21l-21 -7l-63 14l-21 -14l-76 -7l-77 7l-42 21l-28 -21c-29.333 0 -52.333 -13.667 -69 -41l188 -147l160 -35l91 7c24 8.66699 49.333 20.334 76 35.001l77 35l63 14l21 -14l76 -84
c-0.666992 -19.333 -5.33398 -40 -14.001 -62l-132 -91l-70 -28c-24.667 -10 -52.334 -19.333 -83.001 -28c-27.333 -8.66699 -57.666 -15.667 -90.999 -21l-91 14c-23.333 4 -48.666 11 -75.999 21c-23.333 2.66699 -49 9.66699 -77 21l-77 35c-24 8 -47 22 -69 42
c-18.667 18 -39.667 34 -63 48l-56 56c-14.667 17.333 -28.667 38.333 -42 63l-41 70l-28 181l7 21l-7 63l7 90l34 84c6.66699 22 16 45.333 28 70l35 76c15.333 18 34 36.667 56 56l49 63l69 42l147 62c23.333 4 48.666 11 75.999 21zM967 1176
c-1.33301 6 -6 10.668 -14 14.001c1.33301 -4.66699 6 -9.33398 14 -14.001zM430 1162c0.666992 -10 5.33301 -19.333 14 -28c0 10 -4.66699 19.333 -14 28zM596.999 1148l-118 -42l-91 -48l-63 -7l21 -35c-14 -34 -32.333 -69 -55 -105l-7 -70l48 -7l126 28v-14l77 7h20
l42 -21l-35 -41c28.667 18.667 61.334 37 98.001 55l125 14l63 -7l126 14c-11.333 10.667 -20.666 24.667 -27.999 42c-12 32.667 -33 65.334 -63 98.001c-18.667 22.667 -44.334 45.667 -77.001 69c-15.333 13.333 -29 29.666 -41 48.999l-49 -14
c-36.667 5.33301 -76.334 17 -119.001 35zM1029 1092l14 -14l-7 28zM1064 1037c3.33301 -13.333 10.333 -25.001 21 -35.001c-4 10.667 -11 22.334 -21 35.001zM255.999 1016c4 -8.66699 11 -13.333 21 -14zM122.999 924.998v14h-7zM129.999 917.998
c-8.66699 -11.333 -13.333 -25.333 -14 -42l28 21zM200 875.998c1.33301 -6 6 -10.668 14 -14.001c-1.33301 6.66699 -6 11.334 -14 14.001zM1022 854.997c1.33301 -6 6.00098 -10.668 14.001 -14.001c-0.666992 6.66699 -5.33398 11.334 -14.001 14.001zM88.001 799.996
l7 -21l7 21h-14zM486.001 792.996v-14l14 7zM660.001 708.996c-12 -6 -21.333 -15.333 -28 -28c12 4.66699 21.333 14 28 28zM95.001 638.996v-14l14 7zM270.001 548.996c3.33301 -12 10.333 -23.668 21 -35.001c-2.66699 12.667 -9.66699 24.334 -21 35.001z
M249.001 394.995c1.33301 -6 6 -10.668 14 -14.001c-1.33301 6.66699 -6 11.334 -14 14.001zM667.001 352.994c2 -10 6.66699 -19 14 -27l7 20zM339.001 325.994c0.666992 -10 5.33301 -19.333 14 -28c0 10 -4.66699 19.333 -14 28zM458 325.994l-7 -21l21 14zM444 290.994
c4 -6.66699 11 -11.333 21 -14zM812 1690l-138 -247.002l-35 5l-62 -1l-19 16c-7.33301 28 -16.333 55 -27 81c11.333 34.667 18.333 68.334 21 101.001l31 101l-6 14l19 47l26 -16c32 10 62.667 15.667 92 17l75 -4c30.667 -13.333 47 -33.666 49 -60.999zM582 1561.99
l35 11l-5 14l-28 -4zM666 1585.99l29 11l9 14l-21 2l-35 -11z" />
    <glyph glyph-name="Ecircumflex" unicode="&#xca;" horiz-adv-x="1230" 
d="M541 1364l56 -7.00293l14 7h21l91 -21l90 -7c20.667 -14 44 -25.333 70 -34l63 -42c20.667 -13.333 41.334 -29.666 62.001 -48.999l56 -56c14.667 -21.333 28.667 -47 42 -77l42 -69l14 -63l-14 -21l-35 14l14 -35c26 -3.33301 42.333 -19.666 49 -48.999l14 -90l-7 -91
c-14 -21.333 -35 -33 -63 -35h-70l-14 35l-14 -28l-62 -21l-98 -14l-167 21l-21 -7l-63 14l-21 -14l-76 -7l-77 7l-42 21l-28 -21c-29.333 0 -52.333 -13.667 -69 -41l188 -147l160 -35l91 7c24 8.66699 49.333 20.334 76 35.001l77 35l63 14l21 -14l76 -84
c-0.666992 -19.333 -5.33398 -40 -14.001 -62l-132 -91l-70 -28c-24.667 -10 -52.334 -19.333 -83.001 -28c-27.333 -8.66699 -57.666 -15.667 -90.999 -21l-91 14c-23.333 4 -48.666 11 -75.999 21c-23.333 2.66699 -49 9.66699 -77 21l-77 35c-24 8 -47 22 -69 42
c-18.667 18 -39.667 34 -63 48l-56 56c-14.667 17.333 -28.667 38.333 -42 63l-41 70l-28 181l7 21l-7 63l7 90l34 84c6.66699 22 16 45.333 28 70l35 76c15.333 18 34 36.667 56 56l49 63l69 42l147 62c23.333 4 48.666 11 75.999 21zM967 1176
c-1.33301 6 -6 10.668 -14 14.001c1.33301 -4.66699 6 -9.33398 14 -14.001zM430 1162c0.666992 -10 5.33301 -19.333 14 -28c0 10 -4.66699 19.333 -14 28zM596.999 1148l-118 -42l-91 -48l-63 -7l21 -35c-14 -34 -32.333 -69 -55 -105l-7 -70l48 -7l126 28v-14l77 7h20
l42 -21l-35 -41c28.667 18.667 61.334 37 98.001 55l125 14l63 -7l126 14c-11.333 10.667 -20.666 24.667 -27.999 42c-12 32.667 -33 65.334 -63 98.001c-18.667 22.667 -44.334 45.667 -77.001 69c-15.333 13.333 -29 29.666 -41 48.999l-49 -14
c-36.667 5.33301 -76.334 17 -119.001 35zM1029 1092l14 -14l-7 28zM1064 1037c3.33301 -13.333 10.333 -25.001 21 -35.001c-4 10.667 -11 22.334 -21 35.001zM255.999 1016c4 -8.66699 11 -13.333 21 -14zM122.999 924.998v14h-7zM129.999 917.998
c-8.66699 -11.333 -13.333 -25.333 -14 -42l28 21zM200 875.998c1.33301 -6 6 -10.668 14 -14.001c-1.33301 6.66699 -6 11.334 -14 14.001zM1022 854.997c1.33301 -6 6.00098 -10.668 14.001 -14.001c-0.666992 6.66699 -5.33398 11.334 -14.001 14.001zM88.001 799.996
l7 -21l7 21h-14zM486.001 792.996v-14l14 7zM660.001 708.996c-12 -6 -21.333 -15.333 -28 -28c12 4.66699 21.333 14 28 28zM95.001 638.996v-14l14 7zM270.001 548.996c3.33301 -12 10.333 -23.668 21 -35.001c-2.66699 12.667 -9.66699 24.334 -21 35.001z
M249.001 394.995c1.33301 -6 6 -10.668 14 -14.001c-1.33301 6.66699 -6 11.334 -14 14.001zM667.001 352.994c2 -10 6.66699 -19 14 -27l7 20zM339.001 325.994c0.666992 -10 5.33301 -19.333 14 -28c0 10 -4.66699 19.333 -14 28zM458 325.994l-7 -21l21 14zM444 290.994
c4 -6.66699 11 -11.333 21 -14zM506 1450l-6 -5.99512c-7.33301 3.33301 -12.333 16.333 -15 39l-14 -15c2 -8.66699 1 -12.334 -3 -11.001h-11l-7 -4c-5.33301 -0.666992 -10 -2.33398 -14 -5.00098l-7 5c0 7.33301 7.66699 31.333 23 72l11 23l8 26l50 119
c3.33301 8 5.66602 15.333 6.99902 22l13 22v5c0.666992 8.66699 2.66699 16.667 6 24l18 46l7 5v-2l26 -1l4 2v-2l35 -2l12 3l2 -4h2l6 -2l20 5c5.33301 -8.66699 9.33301 -17 12 -25l23 -77l5 -26c6.66699 -6.66699 14.334 -21.334 23.001 -44.001l12 -34l18 -37l23 -42
l12 -40l5 -35l-24 -4l-6 -2l-26 2l-4 -2l-53 5c-3.33301 9.33301 -7.33301 17.333 -12 24c-8 27.333 -15.333 51.333 -22 72c-0.666992 12 11.666 22.333 36.999 31c-13.333 1.33301 -28.333 -1.33398 -45 -8.00098l-15 53l-14 34l-16 -35l-18 -49l-16 -17
c-3.33301 -26 -11 -49.667 -23 -71l-1 -15c-10 -14 -18 -23.667 -24 -29c-7.33301 3.33301 -14.666 5.66602 -21.999 6.99902h-2z" />
    <glyph glyph-name="Edieresis" unicode="&#xcb;" horiz-adv-x="1230" 
d="M541 1364l56 -7.00293l14 7h21l91 -21l90 -7c20.667 -14 44 -25.333 70 -34l63 -42c20.667 -13.333 41.334 -29.666 62.001 -48.999l56 -56c14.667 -21.333 28.667 -47 42 -77l42 -69l14 -63l-14 -21l-35 14l14 -35c26 -3.33301 42.333 -19.666 49 -48.999l14 -90l-7 -91
c-14 -21.333 -35 -33 -63 -35h-70l-14 35l-14 -28l-62 -21l-98 -14l-167 21l-21 -7l-63 14l-21 -14l-76 -7l-77 7l-42 21l-28 -21c-29.333 0 -52.333 -13.667 -69 -41l188 -147l160 -35l91 7c24 8.66699 49.333 20.334 76 35.001l77 35l63 14l21 -14l76 -84
c-0.666992 -19.333 -5.33398 -40 -14.001 -62l-132 -91l-70 -28c-24.667 -10 -52.334 -19.333 -83.001 -28c-27.333 -8.66699 -57.666 -15.667 -90.999 -21l-91 14c-23.333 4 -48.666 11 -75.999 21c-23.333 2.66699 -49 9.66699 -77 21l-77 35c-24 8 -47 22 -69 42
c-18.667 18 -39.667 34 -63 48l-56 56c-14.667 17.333 -28.667 38.333 -42 63l-41 70l-28 181l7 21l-7 63l7 90l34 84c6.66699 22 16 45.333 28 70l35 76c15.333 18 34 36.667 56 56l49 63l69 42l147 62c23.333 4 48.666 11 75.999 21zM967 1176
c-1.33301 6 -6 10.668 -14 14.001c1.33301 -4.66699 6 -9.33398 14 -14.001zM430 1162c0.666992 -10 5.33301 -19.333 14 -28c0 10 -4.66699 19.333 -14 28zM596.999 1148l-118 -42l-91 -48l-63 -7l21 -35c-14 -34 -32.333 -69 -55 -105l-7 -70l48 -7l126 28v-14l77 7h20
l42 -21l-35 -41c28.667 18.667 61.334 37 98.001 55l125 14l63 -7l126 14c-11.333 10.667 -20.666 24.667 -27.999 42c-12 32.667 -33 65.334 -63 98.001c-18.667 22.667 -44.334 45.667 -77.001 69c-15.333 13.333 -29 29.666 -41 48.999l-49 -14
c-36.667 5.33301 -76.334 17 -119.001 35zM1029 1092l14 -14l-7 28zM1064 1037c3.33301 -13.333 10.333 -25.001 21 -35.001c-4 10.667 -11 22.334 -21 35.001zM255.999 1016c4 -8.66699 11 -13.333 21 -14zM122.999 924.998v14h-7zM129.999 917.998
c-8.66699 -11.333 -13.333 -25.333 -14 -42l28 21zM200 875.998c1.33301 -6 6 -10.668 14 -14.001c-1.33301 6.66699 -6 11.334 -14 14.001zM1022 854.997c1.33301 -6 6.00098 -10.668 14.001 -14.001c-0.666992 6.66699 -5.33398 11.334 -14.001 14.001zM88.001 799.996
l7 -21l7 21h-14zM486.001 792.996v-14l14 7zM660.001 708.996c-12 -6 -21.333 -15.333 -28 -28c12 4.66699 21.333 14 28 28zM95.001 638.996v-14l14 7zM270.001 548.996c3.33301 -12 10.333 -23.668 21 -35.001c-2.66699 12.667 -9.66699 24.334 -21 35.001z
M249.001 394.995c1.33301 -6 6 -10.668 14 -14.001c-1.33301 6.66699 -6 11.334 -14 14.001zM667.001 352.994c2 -10 6.66699 -19 14 -27l7 20zM339.001 325.994c0.666992 -10 5.33301 -19.333 14 -28c0 10 -4.66699 19.333 -14 28zM458 325.994l-7 -21l21 14zM444 290.994
c4 -6.66699 11 -11.333 21 -14zM387 1790l119.001 -21c26.667 -14.667 48 -38.334 64 -71.001l13 -48c-10.667 -32.667 -12.667 -58.667 -6 -78c-14 -8 -30.333 -12.667 -49 -14l-92 -21l-21 7c-31.333 4 -52.333 20.333 -63 49c3.33301 16 5.66602 34.667 6.99902 56
c-2 8 -6.66699 15 -14 21l7 28c0 30.667 11.667 61.334 35 92.001zM756.001 1755l27.9971 6.99902c-2 6.66699 1 9 9 7c21.333 1.33301 40 4 56 8c28.667 -10.667 45.334 -31.667 50.001 -63l7 -21l-20 -92c-1.33301 -18.667 -6 -35 -14 -49
c-19.333 6.66699 -45.666 4.33398 -78.999 -6.99902l-47 13c-32.667 15.333 -56.667 36.333 -72 63l-10 98c30.667 23.333 61.334 35.333 92.001 36z" />
    <glyph glyph-name="Igrave" unicode="&#xcc;" horiz-adv-x="352" 
d="M89 1340c15.333 -6.66699 33.998 -11.333 55.998 -14l21 7c25.333 -8 50.666 -19.667 75.999 -35c22 -16 33.667 -39.333 35 -70l7 -91l14 -20l-14 -49l-7 -77l14 -84l-14 -56l14 -21l7 -70l-14 -21l-21 -41l28 -21c6.66699 -24.667 11.334 -52.667 14.001 -84l-7 -91
c4.66699 -26.667 7 -57 7 -91l7 -35l-14 -28v-20h7l7 -98c-4 -21.333 -11 -44.666 -21 -69.999l-104 -7c-21.333 1.33301 -44.666 6 -69.999 14c-27.333 6 -43.666 24.667 -48.999 56c8 16 15 34.667 21 56l-14 21l-7 90l14 98l-21 196l7 104l-14 98
c8.66699 16 15.667 34.667 21 56l-21 14l-14 84l28 84l21 41l-35 14l-14 70l7 21c9.33301 23.333 23.333 46.666 42 69.999zM123.998 1082l-7 -42l28 28zM172.998 600.001l-7 -21l14 7v14h-7zM137.998 565.001l-7 -28l28 21zM220.998 558.001l-13.999 -35l28 21
c-0.666992 6 -5.33398 10.667 -14.001 14zM123.999 446.001c1.33301 -6 6 -10.667 14 -14c-1.33301 6 -6 10.667 -14 14zM241.999 328.001l7 -14v14h-7zM-44.001 1740c16 50.667 39.667 81.334 71 92.001l75 -3c29.333 -4.66699 54.666 -3.33398 75.999 3.99902l42 -17
l14 -49l-7 -13l21 -103c-0.666992 -16 -1.66699 -31.667 -3 -47c-1.33301 -14.667 -3.33301 -29 -6 -43c-13.333 -24 -15.666 -50 -6.99902 -78l-21 -15l-61 8l-36 -2l-93 193zM11.999 1742l35 11l-5 14l-28 -4zM158.999 1539l29 11l8 13l-21 3l-35 -11z" />
    <glyph glyph-name="Iacute" unicode="&#xcd;" horiz-adv-x="352" 
d="M89 1340c15.333 -6.66699 33.998 -11.333 55.998 -14l21 7c25.333 -8 50.666 -19.667 75.999 -35c22 -16 33.667 -39.333 35 -70l7 -91l14 -20l-14 -49l-7 -77l14 -84l-14 -56l14 -21l7 -70l-14 -21l-21 -41l28 -21c6.66699 -24.667 11.334 -52.667 14.001 -84l-7 -91
c4.66699 -26.667 7 -57 7 -91l7 -35l-14 -28v-20h7l7 -98c-4 -21.333 -11 -44.666 -21 -69.999l-104 -7c-21.333 1.33301 -44.666 6 -69.999 14c-27.333 6 -43.666 24.667 -48.999 56c8 16 15 34.667 21 56l-14 21l-7 90l14 98l-21 196l7 104l-14 98
c8.66699 16 15.667 34.667 21 56l-21 14l-14 84l28 84l21 41l-35 14l-14 70l7 21c9.33301 23.333 23.333 46.666 42 69.999zM123.998 1082l-7 -42l28 28zM172.998 600.001l-7 -21l14 7v14h-7zM137.998 565.001l-7 -28l28 21zM220.998 558.001l-13.999 -35l28 21
c-0.666992 6 -5.33398 10.667 -14.001 14zM123.999 446.001c1.33301 -6 6 -10.667 14 -14c-1.33301 6 -6 10.667 -14 14zM241.999 328.001l7 -14v14h-7zM353.999 1690l-138.001 -248.002l-34 5h-63l-19 16c-7.33301 28 -16 55 -26 81
c10.667 34.667 17.334 68.334 20.001 101.001l31 101l-6 14l19 46l26 -16c32 10 62.667 16 92 18l76 -5c30 -13.333 46 -33.666 48 -60.999zM123.998 1562l35 11l-5 14l-28 -4zM208.998 1586l28 11l9 14l-21 2l-35 -11z" />
    <glyph glyph-name="Icircumflex" unicode="&#xce;" horiz-adv-x="352" 
d="M89 1340c15.333 -6.66699 33.998 -11.333 55.998 -14l21 7c25.333 -8 50.666 -19.667 75.999 -35c22 -16 33.667 -39.333 35 -70l7 -91l14 -20l-14 -49l-7 -77l14 -84l-14 -56l14 -21l7 -70l-14 -21l-21 -41l28 -21c6.66699 -24.667 11.334 -52.667 14.001 -84l-7 -91
c4.66699 -26.667 7 -57 7 -91l7 -35l-14 -28v-20h7l7 -98c-4 -21.333 -11 -44.666 -21 -69.999l-104 -7c-21.333 1.33301 -44.666 6 -69.999 14c-27.333 6 -43.666 24.667 -48.999 56c8 16 15 34.667 21 56l-14 21l-7 90l14 98l-21 196l7 104l-14 98
c8.66699 16 15.667 34.667 21 56l-21 14l-14 84l28 84l21 41l-35 14l-14 70l7 21c9.33301 23.333 23.333 46.666 42 69.999zM123.998 1082l-7 -42l28 28zM172.998 600.001l-7 -21l14 7v14h-7zM137.998 565.001l-7 -28l28 21zM220.998 558.001l-13.999 -35l28 21
c-0.666992 6 -5.33398 10.667 -14.001 14zM123.999 446.001c1.33301 -6 6 -10.667 14 -14c-1.33301 6 -6 10.667 -14 14zM241.999 328.001l7 -14v14h-7zM71.999 1450c-2 -2.66699 -3.66699 -4.66211 -5 -5.99512c-6 3.33301 -10 16.333 -12 39l-11 -16
c1.33301 -8 0.333008 -11.333 -3 -10l-9 -1l-5 -3c-4.66699 -0.666992 -8.33398 -2.33398 -11.001 -5.00098l-6 5c0 7.33301 6 31.333 18 72l9 23l7 26l40 119c2.66699 8 4.33398 15.333 5.00098 22l11 22v5c0 8.66699 1.33301 16.667 4 24l15 46l5 5v-2l22 -2l2 3v-2l29 -2
l9 3l2 -4h1l5 -2l16 5c4 -8.66699 7.33301 -17 10 -25l18 -77l4 -26c5.33301 -6.66699 11.333 -21.334 18 -44.001l10 -34l14 -37l19 -42l9 -40l4 -35l-19 -4l-5 -2l-21 2l-3 -2l-42 5c-2.66699 9.33301 -6 17.333 -10 24c-6 27.333 -11.667 51.333 -17 72
c-0.666992 11.333 9 21.666 29 30.999c-10 1.33301 -22 -1.33398 -36 -8.00098l-12 53l-11 33l-13 -34l-14 -49l-13 -17c-2.66699 -26 -8.66699 -49.667 -18 -71l-1 -15c-8 -14 -14.333 -23.667 -19 -29c-6 3.33301 -12 5.66602 -18 6.99902h-1z" />
    <glyph glyph-name="Idieresis" unicode="&#xcf;" horiz-adv-x="352" 
d="M89 1340c15.333 -6.66699 33.998 -11.333 55.998 -14l21 7c25.333 -8 50.666 -19.667 75.999 -35c22 -16 33.667 -39.333 35 -70l7 -91l14 -20l-14 -49l-7 -77l14 -84l-14 -56l14 -21l7 -70l-14 -21l-21 -41l28 -21c6.66699 -24.667 11.334 -52.667 14.001 -84l-7 -91
c4.66699 -26.667 7 -57 7 -91l7 -35l-14 -28v-20h7l7 -98c-4 -21.333 -11 -44.666 -21 -69.999l-104 -7c-21.333 1.33301 -44.666 6 -69.999 14c-27.333 6 -43.666 24.667 -48.999 56c8 16 15 34.667 21 56l-14 21l-7 90l14 98l-21 196l7 104l-14 98
c8.66699 16 15.667 34.667 21 56l-21 14l-14 84l28 84l21 41l-35 14l-14 70l7 21c9.33301 23.333 23.333 46.666 42 69.999zM123.998 1082l-7 -42l28 28zM172.998 600.001l-7 -21l14 7v14h-7zM137.998 565.001l-7 -28l28 21zM220.998 558.001l-13.999 -35l28 21
c-0.666992 6 -5.33398 10.667 -14.001 14zM123.999 446.001c1.33301 -6 6 -10.667 14 -14c-1.33301 6 -6 10.667 -14 14zM241.999 328.001l7 -14v14h-7zM-68.001 1790l119.001 -21c26.667 -14.667 48 -38.334 64 -71.001l13 -48c-10.667 -32.667 -12.667 -58.667 -6 -78
c-14 -8 -30.333 -12.667 -49 -14l-92 -21l-21 7c-31.333 4 -52.333 20.333 -63 49c3.33301 16 5.66602 34.667 6.99902 56c-2 8 -6.66699 15 -14 21l7 28c0 30.667 11.667 61.334 35 92.001zM301 1755l26.998 6.99902c-1.33301 6.66699 2 9 10 7c21.333 1.33301 40 4 56 8
c28.667 -10.667 45 -31.667 49 -63l7 -21l-20 -92c-1.33301 -18.667 -5.66602 -35 -12.999 -49c-20 6.66699 -46.667 4.33398 -80 -6.99902l-46 13c-33.333 15.333 -57.333 36.333 -72 63l-10 98c30.667 23.333 61.334 35.333 92.001 36z" />
    <glyph glyph-name="Eth" unicode="&#xd0;" 
 />
    <glyph glyph-name="Ntilde" unicode="&#xd1;" horiz-adv-x="1302" 
d="M198 1330c30.667 -6 61.667 -18 93 -36l-7 -100l65 50l180 65l72 14l21 -7l101 7c29.333 -2 60.333 -6.66699 93 -14l87 -36c25.333 -11.333 51.666 -25.666 78.999 -42.999l122 -115c14 -22 23.667 -48.333 29 -79c28.667 -8.66699 47.667 -30.334 57 -65.001l36 -87
c9.33301 -25.333 14.333 -54 15 -86l21 -93c-4.66699 -34 -7 -72.667 -7 -116l7 -28l-21 -180l-15 -29l15 -65l-7 -100c-23.333 -18 -50 -32.667 -80 -44l-115 8c-28 6.66699 -44.667 25.667 -50 57l14 180l-7 29l7 101l8 14l-15 36c6 57.333 13.333 100.333 22 129
c-9.33301 28.667 -16.666 60 -21.999 94l-29 86c-10.667 23.333 -25 47.333 -43 72c-12 26 -28.667 50 -50 72c-23.333 16 -47.333 35.333 -72 58l-173 14l-100 -22l-87 -35l-57 -65l-58 -187l-21 -187l21 -187l-7 -29l7 -79l15 -58l-15 -21
c-12.667 -19.333 -31.667 -36.333 -57 -51c-25.333 -10 -54.333 -17 -87 -21l-100 21l-15 72l7 29l-14 93l7 72l-7 22l-7 79l7 29l-14 180l7 79l-14 50l7 51v21l-7 79l7 29l-7 58l7 50l-7 65l7 21c12 22 28.667 41.333 50 58zM90 1280v-36l21 29zM723 1280
c-14.667 -6 -26.667 -15.667 -36 -29l43 15l7 -29l36 29zM579 1273l-7 -29l14 -14l29 36zM824 1259c6.66699 -12.667 15.999 -24.667 27.999 -36c-5.33301 14 -14.666 26 -27.999 36zM96.999 1208l-7 -21l14 -15l7 29zM96.999 1143c0.666992 -10 5.33301 -19.333 14 -28
l8 28h-22zM233.998 1107l-15 -36l22 8l7 28h-14zM923.998 1100c-8.66699 -11.333 -13.334 -23.333 -14.001 -36c8.66699 10.667 13.334 22.667 14.001 36zM405.998 1064v15h-7zM269.998 956c-8.66699 -20.667 -20.667 -42 -36 -64l-15 -44l22 -7l29 58l14 50zM1147 949
c-10 -26.667 -17 -53 -21 -79l36 22zM103.998 913l15 -43l14 36zM1183 834l-7 -36h14v7zM233.998 812l-21.999 -28c11.333 6 18.666 15.333 21.999 28zM1183 611c-18.667 -18.667 -30.667 -40.333 -36 -65l51 29c-0.666992 13.333 -5.66699 25.333 -15 36zM1054 525.001v-15
l14 8zM132.999 518.001l-14 -65l21 14l29 43zM125.999 424.001c1.33301 -6 6.00098 -10.667 14.001 -14c-0.666992 6 -5.33398 10.667 -14.001 14zM1090 424.001c-10.667 -9.33301 -20.333 -21.333 -29 -36c16 6.66699 25.667 18.667 29 36zM126.001 352.001
c2 -9.33301 6.66699 -16.333 14 -21c-1.33301 9.33301 -6 16.333 -14 21zM1169 316.001l-7 -43.001l21 29c-1.33301 4.66699 -6 9.33398 -14 14.001zM1047 302l-8 -29l36 29h-28zM234.001 237v14h-7zM205.001 230l-22 -21.999c14.667 3.33301 22 10.666 22 21.999z
M369.001 1533l-26.999 -16.999c-24.667 10.667 -51.667 15.334 -81 14.001l-66 20v13c0 8.66699 0.333008 17 1 25c2.66699 27.333 9.66699 53 21 77l36 60l47 48c13.333 0 25.666 -2 36.999 -6v-27l3 -5l31 22l-25 16l6 18l6 11l37 14l71 12l67 2l59 -24l23 -23l62 -29
l69 -65l95 -30l-58 -34l70 16l66 36c19.333 27.333 26.333 62 21 104l58 26l52 13l50 -40l3 -56c-6.66699 -22.667 -15 -42 -25 -58c-2.66699 -22.667 -7 -44.334 -13 -65.001l-49 -62c-6.66699 7.33301 -18.667 5.33301 -36 -6l-6 -18l-118 -41c-18.667 2 -33.667 7 -45 15
c-24 4 -46.667 10 -68 18l-62 21c-23.333 11.333 -45.333 19.666 -66 24.999l-25 43l-81 28c-21.333 12 -42 19 -62 21l-38 -13l-31 -30zM1037 1703l2 -12l9 7zM963.002 1574l-9 -13c6.66699 -2.66699 13 -2.66699 19 0zM580.002 1757c10.667 -4 19.667 -4 27 0
c-9.33301 4 -18.333 4 -27 0zM436.002 1779c28 -7.33301 54 -6.33301 78 3c-28 2.66699 -54 1.66699 -78 -3zM576.002 1653l-3 4l-13 -10l14 -10zM252.002 1644l-10 -14l17 6z" />
    <glyph glyph-name="Ograve" unicode="&#xd2;" horiz-adv-x="1238" 
d="M643 1353l103.002 -20.001l14 14c24 -15.333 46.667 -38.333 68 -69c14.667 7.33301 30.667 12 48 14l27 -34l-13 -21c18.667 0.666992 37 5.33398 55 14.001l27 -35c13.333 -26 31.666 -48.667 54.999 -68c33.333 -21.333 58.333 -51 75 -89
c27.333 -28 50.333 -60 69 -96l13 -110l-13 -7v-13h7l20 -96l-7 -14l-27 -123c-9.33301 -36 -25.333 -75 -48 -117l-62 -102c-22 -26 -49.333 -51.333 -82 -76c-25.333 -28 -57.333 -50.667 -96 -68l-110 -55l-137 -21h-68l-21 -7l-157 62c-34 13.333 -68.333 34 -103 62
c-30.667 18 -60.334 43 -89.001 75c-24 26.667 -47 56.334 -69 89.001c-18.667 31.333 -34.667 70.333 -48 117c-14.667 31.333 -23.667 67.666 -27 108.999l-7 21l7 62l-7 54c3.33301 46 17 89.667 41 131c2.66699 30 12 64 28 102c13.333 32 33.666 66.333 60.999 103
l89 75c30.667 22.667 67.334 41 110.001 55l55 35l27 -42c16.667 27.333 42 48 76 62c35.333 4 74 13 116 27zM855.002 1237c4.66699 -15.333 11.667 -31.333 21 -48l7 41zM616.002 1155c-20.667 -17.333 -45.999 -33.334 -75.999 -48.001l-55 -7l-6 34
c-18.667 -13.333 -32.667 -31.666 -42 -54.999l-68 -48c-17.333 -8.66699 -31 -22.334 -41 -41.001l20 -54l-34 -14l-41 -7l-14 7c2 -10.667 6.66699 -20 14 -28l21 -13l-14 -48c-3.33301 -24 -10.333 -49.333 -21 -76l-13 -61
c21.333 -11.333 32.666 -29.666 33.999 -54.999l27 -69l48 -75l55 -62l55 -27l68 -21l83 -6l6 -28l138 48l137 89l41 76l54 54c-10 24.667 -16.667 52.334 -20 83.001l7 96c-4 30 -11 61.667 -21 95c-10 26 -19 56 -27 90c-22.667 7.33301 -45.667 18.666 -69 33.999l-55 61
l-20 35l-34 -21l-83 21zM992.003 1141l7 -55l14 41zM869.003 1114c2 -10.667 6.66797 -20 14.001 -28c-0.666992 10 -5.33398 19.333 -14.001 28zM273.004 969.998l7 -21v21h-7zM1157 845.998c0.666992 -12.667 5.33301 -26.333 14 -41c-1.33301 14 -6 27.667 -14 41z
M1047 804.999l-7 -61.001c3.33301 -19.333 10.333 -37.666 21 -54.999l-7 75l7 21c-1.33301 9.33301 -6 16 -14 20zM1150 729.998l14 -21c-2 9.33301 -6.66699 16.333 -14 21zM287.003 476.998v-28l27 14zM184.003 434.998v14h-7zM390.003 393.998
c4 -21.333 15.333 -41.667 34 -61zM232.003 380.997c0.666992 -6.66699 5.33301 -11.334 14 -14.001c-2 4.66699 -6.66699 9.33398 -14 14.001zM622.002 345.997v-13l14 6zM910.002 325.997v-14h7l28 7zM725.002 284.997l7 -35l14 14l-14 34zM855.002 297.997
c4 -9.33301 11 -16 21 -20c-4 8 -11 14.667 -21 20zM410.002 1741c15.333 50.667 39 81 71 91l75 -2c29.333 -5.33301 54.666 -4.33301 75.999 3l41 -17l15 -49l-8 -13l21 -103c0 -16 -0.666992 -31.667 -2 -47c-1.33301 -14 -3.66602 -28 -6.99902 -42
c-12.667 -24 -15 -50.333 -7 -79l-20 -14l-62 7l-35 -2l-93 194zM466.002 1742l35 11l-5 14l-28 -4zM613.002 1539l29 11l8 13l-21 3l-35 -11z" />
    <glyph glyph-name="Oacute" unicode="&#xd3;" horiz-adv-x="1238" 
d="M643 1353l103.002 -20.001l14 14c24 -15.333 46.667 -38.333 68 -69c14.667 7.33301 30.667 12 48 14l27 -34l-13 -21c18.667 0.666992 37 5.33398 55 14.001l27 -35c13.333 -26 31.666 -48.667 54.999 -68c33.333 -21.333 58.333 -51 75 -89
c27.333 -28 50.333 -60 69 -96l13 -110l-13 -7v-13h7l20 -96l-7 -14l-27 -123c-9.33301 -36 -25.333 -75 -48 -117l-62 -102c-22 -26 -49.333 -51.333 -82 -76c-25.333 -28 -57.333 -50.667 -96 -68l-110 -55l-137 -21h-68l-21 -7l-157 62c-34 13.333 -68.333 34 -103 62
c-30.667 18 -60.334 43 -89.001 75c-24 26.667 -47 56.334 -69 89.001c-18.667 31.333 -34.667 70.333 -48 117c-14.667 31.333 -23.667 67.666 -27 108.999l-7 21l7 62l-7 54c3.33301 46 17 89.667 41 131c2.66699 30 12 64 28 102c13.333 32 33.666 66.333 60.999 103
l89 75c30.667 22.667 67.334 41 110.001 55l55 35l27 -42c16.667 27.333 42 48 76 62c35.333 4 74 13 116 27zM855.002 1237c4.66699 -15.333 11.667 -31.333 21 -48l7 41zM616.002 1155c-20.667 -17.333 -45.999 -33.334 -75.999 -48.001l-55 -7l-6 34
c-18.667 -13.333 -32.667 -31.666 -42 -54.999l-68 -48c-17.333 -8.66699 -31 -22.334 -41 -41.001l20 -54l-34 -14l-41 -7l-14 7c2 -10.667 6.66699 -20 14 -28l21 -13l-14 -48c-3.33301 -24 -10.333 -49.333 -21 -76l-13 -61
c21.333 -11.333 32.666 -29.666 33.999 -54.999l27 -69l48 -75l55 -62l55 -27l68 -21l83 -6l6 -28l138 48l137 89l41 76l54 54c-10 24.667 -16.667 52.334 -20 83.001l7 96c-4 30 -11 61.667 -21 95c-10 26 -19 56 -27 90c-22.667 7.33301 -45.667 18.666 -69 33.999l-55 61
l-20 35l-34 -21l-83 21zM992.003 1141l7 -55l14 41zM869.003 1114c2 -10.667 6.66797 -20 14.001 -28c-0.666992 10 -5.33398 19.333 -14.001 28zM273.004 969.998l7 -21v21h-7zM1157 845.998c0.666992 -12.667 5.33301 -26.333 14 -41c-1.33301 14 -6 27.667 -14 41z
M1047 804.999l-7 -61.001c3.33301 -19.333 10.333 -37.666 21 -54.999l-7 75l7 21c-1.33301 9.33301 -6 16 -14 20zM1150 729.998l14 -21c-2 9.33301 -6.66699 16.333 -14 21zM287.003 476.998v-28l27 14zM184.003 434.998v14h-7zM390.003 393.998
c4 -21.333 15.333 -41.667 34 -61zM232.003 380.997c0.666992 -6.66699 5.33301 -11.334 14 -14.001c-2 4.66699 -6.66699 9.33398 -14 14.001zM622.002 345.997v-13l14 6zM910.002 325.997v-14h7l28 7zM725.002 284.997l7 -35l14 14l-14 34zM855.002 297.997
c4 -9.33301 11 -16 21 -20c-4 8 -11 14.667 -21 20zM831.002 1690l-138 -248.002l-35 5h-62l-19 16c-7.33301 28 -16.333 55 -27 81c11.333 34.667 18.333 68.334 21 101.001l31 101l-6 14l19 46l26 -16c32 10 62.667 16 92 18l75 -5c30.667 -13.333 47 -33.666 49 -60.999z
M601.002 1562l35 11l-5 14l-28 -4zM685.002 1586l29 11l8 14l-21 2l-35 -11z" />
    <glyph glyph-name="Ocircumflex" unicode="&#xd4;" horiz-adv-x="1238" 
d="M643 1353l103.002 -20.001l14 14c24 -15.333 46.667 -38.333 68 -69c14.667 7.33301 30.667 12 48 14l27 -34l-13 -21c18.667 0.666992 37 5.33398 55 14.001l27 -35c13.333 -26 31.666 -48.667 54.999 -68c33.333 -21.333 58.333 -51 75 -89
c27.333 -28 50.333 -60 69 -96l13 -110l-13 -7v-13h7l20 -96l-7 -14l-27 -123c-9.33301 -36 -25.333 -75 -48 -117l-62 -102c-22 -26 -49.333 -51.333 -82 -76c-25.333 -28 -57.333 -50.667 -96 -68l-110 -55l-137 -21h-68l-21 -7l-157 62c-34 13.333 -68.333 34 -103 62
c-30.667 18 -60.334 43 -89.001 75c-24 26.667 -47 56.334 -69 89.001c-18.667 31.333 -34.667 70.333 -48 117c-14.667 31.333 -23.667 67.666 -27 108.999l-7 21l7 62l-7 54c3.33301 46 17 89.667 41 131c2.66699 30 12 64 28 102c13.333 32 33.666 66.333 60.999 103
l89 75c30.667 22.667 67.334 41 110.001 55l55 35l27 -42c16.667 27.333 42 48 76 62c35.333 4 74 13 116 27zM855.002 1237c4.66699 -15.333 11.667 -31.333 21 -48l7 41zM616.002 1155c-20.667 -17.333 -45.999 -33.334 -75.999 -48.001l-55 -7l-6 34
c-18.667 -13.333 -32.667 -31.666 -42 -54.999l-68 -48c-17.333 -8.66699 -31 -22.334 -41 -41.001l20 -54l-34 -14l-41 -7l-14 7c2 -10.667 6.66699 -20 14 -28l21 -13l-14 -48c-3.33301 -24 -10.333 -49.333 -21 -76l-13 -61
c21.333 -11.333 32.666 -29.666 33.999 -54.999l27 -69l48 -75l55 -62l55 -27l68 -21l83 -6l6 -28l138 48l137 89l41 76l54 54c-10 24.667 -16.667 52.334 -20 83.001l7 96c-4 30 -11 61.667 -21 95c-10 26 -19 56 -27 90c-22.667 7.33301 -45.667 18.666 -69 33.999l-55 61
l-20 35l-34 -21l-83 21zM992.003 1141l7 -55l14 41zM869.003 1114c2 -10.667 6.66797 -20 14.001 -28c-0.666992 10 -5.33398 19.333 -14.001 28zM273.004 969.998l7 -21v21h-7zM1157 845.998c0.666992 -12.667 5.33301 -26.333 14 -41c-1.33301 14 -6 27.667 -14 41z
M1047 804.999l-7 -61.001c3.33301 -19.333 10.333 -37.666 21 -54.999l-7 75l7 21c-1.33301 9.33301 -6 16 -14 20zM1150 729.998l14 -21c-2 9.33301 -6.66699 16.333 -14 21zM287.003 476.998v-28l27 14zM184.003 434.998v14h-7zM390.003 393.998
c4 -21.333 15.333 -41.667 34 -61zM232.003 380.997c0.666992 -6.66699 5.33301 -11.334 14 -14.001c-2 4.66699 -6.66699 9.33398 -14 14.001zM622.002 345.997v-13l14 6zM910.002 325.997v-14h7l28 7zM725.002 284.997l7 -35l14 14l-14 34zM855.002 297.997
c4 -9.33301 11 -16 21 -20c-4 8 -11 14.667 -21 20zM510.002 1450l-6.00098 -5.99512c-7.33301 3.33301 -12.333 16.333 -15 39l-14 -15c2 -8.66699 1 -12.334 -3 -11.001h-11l-7 -4c-5.33301 -0.666992 -10 -2.33398 -14 -5.00098l-7 5c0 7.33301 7.66699 31.333 23 72
l11 23l8 26l50 119c3.33301 8 5.66602 15.333 6.99902 22l13 22v5c0.666992 8.66699 2.66699 16.667 6 24l18 46l7 5v-2l27 -1l3 2v-2l35 -2l12 3l2 -4h2l6 -2l20 5c5.33301 -8.66699 9.33301 -17 12 -25l23 -77l5 -26c6.66699 -6.66699 14.334 -21.334 23.001 -44.001
l12 -34l18 -37l23 -42l12 -40l5 -35l-24 -4l-6 -2l-26 2l-4 -2l-53 5c-3.33301 9.33301 -7.33301 17.333 -12 24c-8 27.333 -15.333 51.333 -22 72c0 12 12.333 22.333 37 31c-12.667 1.33301 -27.667 -1.33398 -45 -8.00098l-15 53l-13 34l-17 -35l-18 -49l-16 -17
c-3.33301 -26 -11 -49.667 -23 -71l-1 -15c-10 -14 -18 -23.667 -24 -29c-7.33301 3.33301 -14.666 5.66602 -21.999 6.99902h-2z" />
    <glyph glyph-name="Otilde" unicode="&#xd5;" horiz-adv-x="1238" 
d="M643 1353l103.002 -20.001l14 14c24 -15.333 46.667 -38.333 68 -69c14.667 7.33301 30.667 12 48 14l27 -34l-13 -21c18.667 0.666992 37 5.33398 55 14.001l27 -35c13.333 -26 31.666 -48.667 54.999 -68c33.333 -21.333 58.333 -51 75 -89
c27.333 -28 50.333 -60 69 -96l13 -110l-13 -7v-13h7l20 -96l-7 -14l-27 -123c-9.33301 -36 -25.333 -75 -48 -117l-62 -102c-22 -26 -49.333 -51.333 -82 -76c-25.333 -28 -57.333 -50.667 -96 -68l-110 -55l-137 -21h-68l-21 -7l-157 62c-34 13.333 -68.333 34 -103 62
c-30.667 18 -60.334 43 -89.001 75c-24 26.667 -47 56.334 -69 89.001c-18.667 31.333 -34.667 70.333 -48 117c-14.667 31.333 -23.667 67.666 -27 108.999l-7 21l7 62l-7 54c3.33301 46 17 89.667 41 131c2.66699 30 12 64 28 102c13.333 32 33.666 66.333 60.999 103
l89 75c30.667 22.667 67.334 41 110.001 55l55 35l27 -42c16.667 27.333 42 48 76 62c35.333 4 74 13 116 27zM855.002 1237c4.66699 -15.333 11.667 -31.333 21 -48l7 41zM616.002 1155c-20.667 -17.333 -45.999 -33.334 -75.999 -48.001l-55 -7l-6 34
c-18.667 -13.333 -32.667 -31.666 -42 -54.999l-68 -48c-17.333 -8.66699 -31 -22.334 -41 -41.001l20 -54l-34 -14l-41 -7l-14 7c2 -10.667 6.66699 -20 14 -28l21 -13l-14 -48c-3.33301 -24 -10.333 -49.333 -21 -76l-13 -61
c21.333 -11.333 32.666 -29.666 33.999 -54.999l27 -69l48 -75l55 -62l55 -27l68 -21l83 -6l6 -28l138 48l137 89l41 76l54 54c-10 24.667 -16.667 52.334 -20 83.001l7 96c-4 30 -11 61.667 -21 95c-10 26 -19 56 -27 90c-22.667 7.33301 -45.667 18.666 -69 33.999l-55 61
l-20 35l-34 -21l-83 21zM992.003 1141l7 -55l14 41zM869.003 1114c2 -10.667 6.66797 -20 14.001 -28c-0.666992 10 -5.33398 19.333 -14.001 28zM273.004 969.998l7 -21v21h-7zM1157 845.998c0.666992 -12.667 5.33301 -26.333 14 -41c-1.33301 14 -6 27.667 -14 41z
M1047 804.999l-7 -61.001c3.33301 -19.333 10.333 -37.666 21 -54.999l-7 75l7 21c-1.33301 9.33301 -6 16 -14 20zM1150 729.998l14 -21c-2 9.33301 -6.66699 16.333 -14 21zM287.003 476.998v-28l27 14zM184.003 434.998v14h-7zM390.003 393.998
c4 -21.333 15.333 -41.667 34 -61zM232.003 380.997c0.666992 -6.66699 5.33301 -11.334 14 -14.001c-2 4.66699 -6.66699 9.33398 -14 14.001zM622.002 345.997v-13l14 6zM910.002 325.997v-14h7l28 7zM725.002 284.997l7 -35l14 14l-14 34zM855.002 297.997
c4 -9.33301 11 -16 21 -20c-4 8 -11 14.667 -21 20zM344.002 1533l-26.999 -16.999c-24.667 10.667 -51.667 15.334 -81 14.001l-66 20v13c0 8.66699 0.333008 17 1 25c2.66699 27.333 9.66699 53 21 77l36 60l47 48c13.333 0 25.666 -2 36.999 -6v-27l3 -5l31 22l-25 16
l6 18l6 11l37 14l71 12l67 2l59 -24l23 -23l62 -29l69 -65l95 -30l-58 -34l70 16l66 36c19.333 27.333 26.333 62 21 104l58 26l52 13l50 -40l3 -56c-6.66699 -22.667 -15 -42 -25 -58c-2.66699 -22.667 -7 -44.334 -13 -65.001l-49 -62
c-6.66699 7.33301 -18.667 5.33301 -36 -6l-6 -18l-118 -41c-18.667 2 -33.667 7 -45 15c-24 4 -46.667 10 -68 18l-62 21c-23.333 11.333 -45.333 19.666 -66 24.999l-25 43l-81 28c-21.333 12 -42 19 -62 21l-38 -13l-31 -30zM1012 1703l2 -12l9 7zM938.003 1574l-9 -13
c6.66699 -2.66699 13 -2.66699 19 0zM555.003 1757c10.667 -4 19.667 -4 27 0c-9.33301 4 -18.333 4 -27 0zM411.003 1779c28 -7.33301 54 -6.33301 78 3c-28 2.66699 -54 1.66699 -78 -3zM551.003 1653l-3 4l-13 -10l14 -10zM227.003 1644l-10 -14l17 6z" />
    <glyph glyph-name="Odieresis" unicode="&#xd6;" horiz-adv-x="1238" 
d="M643 1353l103.002 -20.001l14 14c24 -15.333 46.667 -38.333 68 -69c14.667 7.33301 30.667 12 48 14l27 -34l-13 -21c18.667 0.666992 37 5.33398 55 14.001l27 -35c13.333 -26 31.666 -48.667 54.999 -68c33.333 -21.333 58.333 -51 75 -89
c27.333 -28 50.333 -60 69 -96l13 -110l-13 -7v-13h7l20 -96l-7 -14l-27 -123c-9.33301 -36 -25.333 -75 -48 -117l-62 -102c-22 -26 -49.333 -51.333 -82 -76c-25.333 -28 -57.333 -50.667 -96 -68l-110 -55l-137 -21h-68l-21 -7l-157 62c-34 13.333 -68.333 34 -103 62
c-30.667 18 -60.334 43 -89.001 75c-24 26.667 -47 56.334 -69 89.001c-18.667 31.333 -34.667 70.333 -48 117c-14.667 31.333 -23.667 67.666 -27 108.999l-7 21l7 62l-7 54c3.33301 46 17 89.667 41 131c2.66699 30 12 64 28 102c13.333 32 33.666 66.333 60.999 103
l89 75c30.667 22.667 67.334 41 110.001 55l55 35l27 -42c16.667 27.333 42 48 76 62c35.333 4 74 13 116 27zM855.002 1237c4.66699 -15.333 11.667 -31.333 21 -48l7 41zM616.002 1155c-20.667 -17.333 -45.999 -33.334 -75.999 -48.001l-55 -7l-6 34
c-18.667 -13.333 -32.667 -31.666 -42 -54.999l-68 -48c-17.333 -8.66699 -31 -22.334 -41 -41.001l20 -54l-34 -14l-41 -7l-14 7c2 -10.667 6.66699 -20 14 -28l21 -13l-14 -48c-3.33301 -24 -10.333 -49.333 -21 -76l-13 -61
c21.333 -11.333 32.666 -29.666 33.999 -54.999l27 -69l48 -75l55 -62l55 -27l68 -21l83 -6l6 -28l138 48l137 89l41 76l54 54c-10 24.667 -16.667 52.334 -20 83.001l7 96c-4 30 -11 61.667 -21 95c-10 26 -19 56 -27 90c-22.667 7.33301 -45.667 18.666 -69 33.999l-55 61
l-20 35l-34 -21l-83 21zM992.003 1141l7 -55l14 41zM869.003 1114c2 -10.667 6.66797 -20 14.001 -28c-0.666992 10 -5.33398 19.333 -14.001 28zM273.004 969.998l7 -21v21h-7zM1157 845.998c0.666992 -12.667 5.33301 -26.333 14 -41c-1.33301 14 -6 27.667 -14 41z
M1047 804.999l-7 -61.001c3.33301 -19.333 10.333 -37.666 21 -54.999l-7 75l7 21c-1.33301 9.33301 -6 16 -14 20zM1150 729.998l14 -21c-2 9.33301 -6.66699 16.333 -14 21zM287.003 476.998v-28l27 14zM184.003 434.998v14h-7zM390.003 393.998
c4 -21.333 15.333 -41.667 34 -61zM232.003 380.997c0.666992 -6.66699 5.33301 -11.334 14 -14.001c-2 4.66699 -6.66699 9.33398 -14 14.001zM622.002 345.997v-13l14 6zM910.002 325.997v-14h7l28 7zM725.002 284.997l7 -35l14 14l-14 34zM855.002 297.997
c4 -9.33301 11 -16 21 -20c-4 8 -11 14.667 -21 20zM394.002 1790l119.001 -21c26.667 -14.667 48 -38.334 64 -71.001l13 -48c-10.667 -32.667 -12.667 -58.667 -6 -78c-14 -8 -30.333 -12.667 -49 -14l-92 -21l-21 7c-31.333 4 -52.333 20.333 -63 49
c3.33301 16 5.66602 34.667 6.99902 56c-2 8 -6.66699 15 -14 21l7 28c0 30.667 11.667 61.334 35 92.001zM763.003 1755l27.999 8.00195c-2 6.66699 1 9 9 7c21.333 1.33301 40 3.66602 56 6.99902c28.667 -10 45 -30.667 49 -62l7 -21l-20 -92
c-0.666992 -18.667 -5 -35.334 -13 -50.001c-19.333 6.66699 -46 4.66699 -80 -6l-46 12c-33.333 16 -57.333 37.333 -72 64l-10 97c30.667 24 61.334 36 92.001 36z" />
    <glyph glyph-name="multiply" unicode="&#xd7;" 
 />
    <glyph glyph-name="Oslash" unicode="&#xd8;" 
 />
    <glyph glyph-name="Ugrave" unicode="&#xd9;" horiz-adv-x="1279" 
d="M1199 1326c14.667 -16 25.667 -35.332 33 -57.999l-18 -90c10.667 -24.667 19 -53 25 -85l-9 -70l-1 -21h7l-10 -91l4 -71l-7 -20l7 -197l-8 -21l11 -288l-8 -21l5 -56c-14 -25.333 -33.667 -48 -59 -68l-55 9l-22 -13l-21 7
c-32.667 5.33301 -67.334 13.666 -104.001 24.999l-6 43l-135 -59l-84 -4c-30 -12.667 -63 -20.667 -99 -24l-22 -7l-55 9c-30 9.33301 -60 22.333 -90 39l-98 24l-89 39l-69 51c-20.667 18 -41 39.667 -61 65l-39 86l-46 72c-5.33301 31.333 -13.666 64.333 -24.999 99
l-11 71l8 27l-7 204l11 105l-3 105l20 175l91 4l49 -9l21 6l21 -1c21.333 -12.667 42 -29.667 62 -51l6 -28l-17 -77l-59 -61c11.333 -9.33301 25 -19 41 -29l14 -22l-9 -63l-16 -94l-10 -77l34 -248c12 -27.333 27.333 -53.333 46 -78
c19.333 -17.333 42.333 -34.666 69 -51.999l82 -45c24.667 -9.33301 52.667 -17.333 84 -24c30.667 2.66699 63.667 10.667 99 24l27 -15c36 -4.66699 62.667 -0.666992 80 12l72 46l65 61l45 76l18 111l-6 22l16 48l-7 21l10 77l-6 29l-22 307l8 20l-7 15l8 6
c12.667 22 29.667 40.333 51 55l105 3c23.333 7.33301 45 20.666 65 39.999zM103 1281c0.666992 -8 5 -15.333 13 -22l22 20zM242 1262l-58.001 -68c-17.333 -16 -29.666 -34.333 -36.999 -55c20 17.333 39.333 37.666 58 60.999c16 16.667 28.333 37.334 37 62.001z
M1026 1220l14 -15l-6 28zM1119 669.001l-8 -42l15 28v14h-7zM159.999 535.001c0.666992 -10 5 -19.667 13 -29zM1155 485.001c1.33301 -9.33301 5.66602 -16.333 12.999 -21c-1.33301 9.33301 -5.66602 16.333 -12.999 21zM576.999 232.001
c10.667 -12.667 24.333 -22.333 41 -29zM439.998 1741c16 50.667 39.999 81 71.999 91l75 -2c28.667 -5.33301 53.667 -4.33301 75 3l42 -17l14 -49l-7 -13l21 -103c-0.666992 -16 -1.66699 -31.667 -3 -47c-1.33301 -14 -3.33301 -28 -6 -42
c-13.333 -24 -15.666 -50.333 -6.99902 -79l-21 -14l-61 7l-36 -2l-93 194zM495.997 1742l35 11l-5 14l-28 -4zM642.997 1539l29 11l8 13l-21 3l-35 -11z" />
    </font>
</defs>
</svg>
